%TF.GenerationSoftware,KiCad,Pcbnew,5.1.6-c6e7f7d~87~ubuntu18.04.1*%
%TF.CreationDate,2021-03-30T09:08:54+02:00*%
%TF.ProjectId,bz-hat,627a2d68-6174-42e6-9b69-6361645f7063,rev?*%
%TF.SameCoordinates,Original*%
%TF.FileFunction,Legend,Top*%
%TF.FilePolarity,Positive*%
%FSLAX46Y46*%
G04 Gerber Fmt 4.6, Leading zero omitted, Abs format (unit mm)*
G04 Created by KiCad (PCBNEW 5.1.6-c6e7f7d~87~ubuntu18.04.1) date 2021-03-30 09:08:54*
%MOMM*%
%LPD*%
G01*
G04 APERTURE LIST*
%ADD10C,0.200000*%
%ADD11C,0.400000*%
%ADD12C,0.010000*%
%ADD13C,0.120000*%
%ADD14C,0.150000*%
G04 APERTURE END LIST*
D10*
X103677142Y-123815714D02*
X103791428Y-123872857D01*
X104020000Y-123872857D01*
X104134285Y-123815714D01*
X104191428Y-123701428D01*
X104191428Y-123644285D01*
X104134285Y-123530000D01*
X104020000Y-123472857D01*
X103848571Y-123472857D01*
X103734285Y-123415714D01*
X103677142Y-123301428D01*
X103677142Y-123244285D01*
X103734285Y-123130000D01*
X103848571Y-123072857D01*
X104020000Y-123072857D01*
X104134285Y-123130000D01*
X104877142Y-123872857D02*
X104762857Y-123815714D01*
X104705714Y-123758571D01*
X104648571Y-123644285D01*
X104648571Y-123301428D01*
X104705714Y-123187142D01*
X104762857Y-123130000D01*
X104877142Y-123072857D01*
X105048571Y-123072857D01*
X105162857Y-123130000D01*
X105220000Y-123187142D01*
X105277142Y-123301428D01*
X105277142Y-123644285D01*
X105220000Y-123758571D01*
X105162857Y-123815714D01*
X105048571Y-123872857D01*
X104877142Y-123872857D01*
X105791428Y-123872857D02*
X105791428Y-123072857D01*
X105791428Y-123187142D02*
X105848571Y-123130000D01*
X105962857Y-123072857D01*
X106134285Y-123072857D01*
X106248571Y-123130000D01*
X106305714Y-123244285D01*
X106305714Y-123872857D01*
X106305714Y-123244285D02*
X106362857Y-123130000D01*
X106477142Y-123072857D01*
X106648571Y-123072857D01*
X106762857Y-123130000D01*
X106820000Y-123244285D01*
X106820000Y-123872857D01*
X107391428Y-123872857D02*
X107391428Y-122672857D01*
X107391428Y-123130000D02*
X107505714Y-123072857D01*
X107734285Y-123072857D01*
X107848571Y-123130000D01*
X107905714Y-123187142D01*
X107962857Y-123301428D01*
X107962857Y-123644285D01*
X107905714Y-123758571D01*
X107848571Y-123815714D01*
X107734285Y-123872857D01*
X107505714Y-123872857D01*
X107391428Y-123815714D01*
X108477142Y-123872857D02*
X108477142Y-123072857D01*
X108477142Y-123301428D02*
X108534285Y-123187142D01*
X108591428Y-123130000D01*
X108705714Y-123072857D01*
X108820000Y-123072857D01*
X109677142Y-123815714D02*
X109562857Y-123872857D01*
X109334285Y-123872857D01*
X109220000Y-123815714D01*
X109162857Y-123701428D01*
X109162857Y-123244285D01*
X109220000Y-123130000D01*
X109334285Y-123072857D01*
X109562857Y-123072857D01*
X109677142Y-123130000D01*
X109734285Y-123244285D01*
X109734285Y-123358571D01*
X109162857Y-123472857D01*
X110248571Y-123872857D02*
X110248571Y-123072857D01*
X110248571Y-123301428D02*
X110305714Y-123187142D01*
X110362857Y-123130000D01*
X110477142Y-123072857D01*
X110591428Y-123072857D01*
X111162857Y-123872857D02*
X111048571Y-123815714D01*
X110991428Y-123758571D01*
X110934285Y-123644285D01*
X110934285Y-123301428D01*
X110991428Y-123187142D01*
X111048571Y-123130000D01*
X111162857Y-123072857D01*
X111334285Y-123072857D01*
X111448571Y-123130000D01*
X111505714Y-123187142D01*
X111562857Y-123301428D01*
X111562857Y-123644285D01*
X111505714Y-123758571D01*
X111448571Y-123815714D01*
X111334285Y-123872857D01*
X111162857Y-123872857D01*
X106295714Y-121122857D02*
X106295714Y-122322857D01*
X106295714Y-121180000D02*
X106410000Y-121122857D01*
X106638571Y-121122857D01*
X106752857Y-121180000D01*
X106810000Y-121237142D01*
X106867142Y-121351428D01*
X106867142Y-121694285D01*
X106810000Y-121808571D01*
X106752857Y-121865714D01*
X106638571Y-121922857D01*
X106410000Y-121922857D01*
X106295714Y-121865714D01*
X107381428Y-121922857D02*
X107381428Y-121122857D01*
X107381428Y-120722857D02*
X107324285Y-120780000D01*
X107381428Y-120837142D01*
X107438571Y-120780000D01*
X107381428Y-120722857D01*
X107381428Y-120837142D01*
X108467142Y-121122857D02*
X108467142Y-121922857D01*
X108181428Y-120665714D02*
X107895714Y-121522857D01*
X108638571Y-121522857D01*
D11*
X101420000Y-121630000D02*
X105420000Y-121630000D01*
X109430000Y-121650000D02*
X113430000Y-121650000D01*
X105420000Y-121630000D02*
G75*
G02*
X109420000Y-121630000I2000000J0D01*
G01*
D12*
%TO.C,G\u002A\u002A\u002A*%
G36*
X98680824Y-115003176D02*
G01*
X98598647Y-115003176D01*
X98553633Y-115004505D01*
X98523785Y-115007931D01*
X98516471Y-115011252D01*
X98524504Y-115027487D01*
X98544220Y-115056801D01*
X98548013Y-115061991D01*
X98580096Y-115129429D01*
X98587277Y-115206961D01*
X98569186Y-115287620D01*
X98561025Y-115306706D01*
X98517489Y-115378222D01*
X98460567Y-115430900D01*
X98384828Y-115468615D01*
X98301862Y-115491747D01*
X98242074Y-115506733D01*
X98190858Y-115523399D01*
X98157685Y-115538579D01*
X98154047Y-115541160D01*
X98133997Y-115560817D01*
X98137110Y-115576852D01*
X98149268Y-115590075D01*
X98161092Y-115600627D01*
X98176242Y-115609895D01*
X98199382Y-115619441D01*
X98235176Y-115630825D01*
X98288285Y-115645609D01*
X98363374Y-115665354D01*
X98410669Y-115677587D01*
X98486186Y-115699934D01*
X98541062Y-115723899D01*
X98584426Y-115753679D01*
X98593556Y-115761633D01*
X98646918Y-115826936D01*
X98673238Y-115898665D01*
X98673406Y-115972633D01*
X98648313Y-116044651D01*
X98598850Y-116110531D01*
X98525908Y-116166086D01*
X98505117Y-116177362D01*
X98461023Y-116197918D01*
X98420844Y-116211029D01*
X98375080Y-116218567D01*
X98314233Y-116222404D01*
X98270315Y-116223628D01*
X98201096Y-116223875D01*
X98138502Y-116221864D01*
X98091623Y-116217989D01*
X98075706Y-116215174D01*
X97987810Y-116181971D01*
X97911193Y-116133430D01*
X97853386Y-116074846D01*
X97835228Y-116046065D01*
X97818976Y-115991572D01*
X97816833Y-115952491D01*
X97999801Y-115952491D01*
X98018405Y-115997217D01*
X98057694Y-116032721D01*
X98083352Y-116044480D01*
X98138230Y-116055874D01*
X98209898Y-116061050D01*
X98286244Y-116060067D01*
X98355157Y-116052986D01*
X98396941Y-116042919D01*
X98438345Y-116019854D01*
X98468999Y-115988921D01*
X98470758Y-115986013D01*
X98483818Y-115955863D01*
X98479363Y-115930464D01*
X98465861Y-115907591D01*
X98420570Y-115863133D01*
X98352374Y-115834138D01*
X98259869Y-115820104D01*
X98217016Y-115818579D01*
X98131550Y-115823317D01*
X98069765Y-115840626D01*
X98027494Y-115872238D01*
X98006164Y-115906215D01*
X97999801Y-115952491D01*
X97816833Y-115952491D01*
X97815300Y-115924564D01*
X97824097Y-115859583D01*
X97836809Y-115824628D01*
X97865802Y-115786247D01*
X97908482Y-115748750D01*
X97954841Y-115719457D01*
X97994874Y-115705686D01*
X97999793Y-115705412D01*
X98016424Y-115703201D01*
X98014735Y-115692692D01*
X97993206Y-115668065D01*
X97988854Y-115663506D01*
X97955776Y-115612645D01*
X97951818Y-115561816D01*
X97976349Y-115513813D01*
X98028734Y-115471429D01*
X98032932Y-115469023D01*
X98046795Y-115458316D01*
X98045380Y-115445271D01*
X98025706Y-115423918D01*
X97998440Y-115399943D01*
X97936940Y-115329709D01*
X97900955Y-115250091D01*
X97892860Y-115188887D01*
X98070485Y-115188887D01*
X98087904Y-115245673D01*
X98100181Y-115263877D01*
X98152903Y-115310972D01*
X98214982Y-115329818D01*
X98286825Y-115320501D01*
X98315783Y-115310008D01*
X98366675Y-115273971D01*
X98397101Y-115221290D01*
X98403434Y-115160009D01*
X98396922Y-115130119D01*
X98364520Y-115075090D01*
X98313908Y-115038735D01*
X98252148Y-115023786D01*
X98186301Y-115032972D01*
X98166425Y-115041022D01*
X98111633Y-115080212D01*
X98079024Y-115131617D01*
X98070485Y-115188887D01*
X97892860Y-115188887D01*
X97889856Y-115166176D01*
X97903011Y-115083054D01*
X97939791Y-115005809D01*
X97999567Y-114939531D01*
X98060414Y-114899405D01*
X98088344Y-114885795D01*
X98115032Y-114875753D01*
X98145706Y-114868633D01*
X98185591Y-114863792D01*
X98239916Y-114860584D01*
X98313907Y-114858364D01*
X98407659Y-114856576D01*
X98680824Y-114851917D01*
X98680824Y-115003176D01*
G37*
X98680824Y-115003176D02*
X98598647Y-115003176D01*
X98553633Y-115004505D01*
X98523785Y-115007931D01*
X98516471Y-115011252D01*
X98524504Y-115027487D01*
X98544220Y-115056801D01*
X98548013Y-115061991D01*
X98580096Y-115129429D01*
X98587277Y-115206961D01*
X98569186Y-115287620D01*
X98561025Y-115306706D01*
X98517489Y-115378222D01*
X98460567Y-115430900D01*
X98384828Y-115468615D01*
X98301862Y-115491747D01*
X98242074Y-115506733D01*
X98190858Y-115523399D01*
X98157685Y-115538579D01*
X98154047Y-115541160D01*
X98133997Y-115560817D01*
X98137110Y-115576852D01*
X98149268Y-115590075D01*
X98161092Y-115600627D01*
X98176242Y-115609895D01*
X98199382Y-115619441D01*
X98235176Y-115630825D01*
X98288285Y-115645609D01*
X98363374Y-115665354D01*
X98410669Y-115677587D01*
X98486186Y-115699934D01*
X98541062Y-115723899D01*
X98584426Y-115753679D01*
X98593556Y-115761633D01*
X98646918Y-115826936D01*
X98673238Y-115898665D01*
X98673406Y-115972633D01*
X98648313Y-116044651D01*
X98598850Y-116110531D01*
X98525908Y-116166086D01*
X98505117Y-116177362D01*
X98461023Y-116197918D01*
X98420844Y-116211029D01*
X98375080Y-116218567D01*
X98314233Y-116222404D01*
X98270315Y-116223628D01*
X98201096Y-116223875D01*
X98138502Y-116221864D01*
X98091623Y-116217989D01*
X98075706Y-116215174D01*
X97987810Y-116181971D01*
X97911193Y-116133430D01*
X97853386Y-116074846D01*
X97835228Y-116046065D01*
X97818976Y-115991572D01*
X97816833Y-115952491D01*
X97999801Y-115952491D01*
X98018405Y-115997217D01*
X98057694Y-116032721D01*
X98083352Y-116044480D01*
X98138230Y-116055874D01*
X98209898Y-116061050D01*
X98286244Y-116060067D01*
X98355157Y-116052986D01*
X98396941Y-116042919D01*
X98438345Y-116019854D01*
X98468999Y-115988921D01*
X98470758Y-115986013D01*
X98483818Y-115955863D01*
X98479363Y-115930464D01*
X98465861Y-115907591D01*
X98420570Y-115863133D01*
X98352374Y-115834138D01*
X98259869Y-115820104D01*
X98217016Y-115818579D01*
X98131550Y-115823317D01*
X98069765Y-115840626D01*
X98027494Y-115872238D01*
X98006164Y-115906215D01*
X97999801Y-115952491D01*
X97816833Y-115952491D01*
X97815300Y-115924564D01*
X97824097Y-115859583D01*
X97836809Y-115824628D01*
X97865802Y-115786247D01*
X97908482Y-115748750D01*
X97954841Y-115719457D01*
X97994874Y-115705686D01*
X97999793Y-115705412D01*
X98016424Y-115703201D01*
X98014735Y-115692692D01*
X97993206Y-115668065D01*
X97988854Y-115663506D01*
X97955776Y-115612645D01*
X97951818Y-115561816D01*
X97976349Y-115513813D01*
X98028734Y-115471429D01*
X98032932Y-115469023D01*
X98046795Y-115458316D01*
X98045380Y-115445271D01*
X98025706Y-115423918D01*
X97998440Y-115399943D01*
X97936940Y-115329709D01*
X97900955Y-115250091D01*
X97892860Y-115188887D01*
X98070485Y-115188887D01*
X98087904Y-115245673D01*
X98100181Y-115263877D01*
X98152903Y-115310972D01*
X98214982Y-115329818D01*
X98286825Y-115320501D01*
X98315783Y-115310008D01*
X98366675Y-115273971D01*
X98397101Y-115221290D01*
X98403434Y-115160009D01*
X98396922Y-115130119D01*
X98364520Y-115075090D01*
X98313908Y-115038735D01*
X98252148Y-115023786D01*
X98186301Y-115032972D01*
X98166425Y-115041022D01*
X98111633Y-115080212D01*
X98079024Y-115131617D01*
X98070485Y-115188887D01*
X97892860Y-115188887D01*
X97889856Y-115166176D01*
X97903011Y-115083054D01*
X97939791Y-115005809D01*
X97999567Y-114939531D01*
X98060414Y-114899405D01*
X98088344Y-114885795D01*
X98115032Y-114875753D01*
X98145706Y-114868633D01*
X98185591Y-114863792D01*
X98239916Y-114860584D01*
X98313907Y-114858364D01*
X98407659Y-114856576D01*
X98680824Y-114851917D01*
X98680824Y-115003176D01*
G36*
X109462558Y-114851058D02*
G01*
X109467958Y-114851298D01*
X109575091Y-114856301D01*
X109602393Y-114918533D01*
X109619166Y-114955484D01*
X109645529Y-115012080D01*
X109678074Y-115081060D01*
X109713392Y-115155163D01*
X109718921Y-115166694D01*
X109754782Y-115240378D01*
X109780430Y-115289889D01*
X109797915Y-115318306D01*
X109809288Y-115328705D01*
X109816599Y-115324163D01*
X109819333Y-115317376D01*
X109829755Y-115291026D01*
X109850312Y-115243997D01*
X109878200Y-115182550D01*
X109910615Y-115112942D01*
X109916588Y-115100294D01*
X109949390Y-115030224D01*
X109978062Y-114967539D01*
X109999842Y-114918384D01*
X110011966Y-114888901D01*
X110012924Y-114886112D01*
X110020986Y-114869439D01*
X110036585Y-114859720D01*
X110066614Y-114855119D01*
X110117961Y-114853798D01*
X110134242Y-114853765D01*
X110187542Y-114854789D01*
X110226866Y-114857497D01*
X110244879Y-114861340D01*
X110245294Y-114862058D01*
X110243628Y-114867303D01*
X110238111Y-114880494D01*
X110227969Y-114903291D01*
X110212425Y-114937353D01*
X110190704Y-114984341D01*
X110162031Y-115045912D01*
X110125629Y-115123729D01*
X110080723Y-115219449D01*
X110026538Y-115334733D01*
X109962297Y-115471241D01*
X109887226Y-115630632D01*
X109800548Y-115814566D01*
X109753399Y-115914588D01*
X109609009Y-116220882D01*
X109500106Y-116225297D01*
X109444327Y-116227048D01*
X109412640Y-116225646D01*
X109399298Y-116219589D01*
X109398555Y-116207375D01*
X109400839Y-116199349D01*
X109410243Y-116176268D01*
X109430263Y-116131337D01*
X109458571Y-116069640D01*
X109492840Y-115996262D01*
X109522555Y-115933464D01*
X109561563Y-115851495D01*
X109598230Y-115774446D01*
X109629730Y-115708258D01*
X109653234Y-115658873D01*
X109663553Y-115637194D01*
X109681022Y-115598453D01*
X109691310Y-115571685D01*
X109692471Y-115566448D01*
X109686066Y-115550899D01*
X109668033Y-115512295D01*
X109640141Y-115454291D01*
X109604162Y-115380541D01*
X109561864Y-115294701D01*
X109520492Y-115211401D01*
X109474337Y-115117965D01*
X109433336Y-115033360D01*
X109399193Y-114961233D01*
X109373610Y-114905229D01*
X109358290Y-114868995D01*
X109354669Y-114856324D01*
X109371520Y-114852055D01*
X109410158Y-114850181D01*
X109462558Y-114851058D01*
G37*
X109462558Y-114851058D02*
X109467958Y-114851298D01*
X109575091Y-114856301D01*
X109602393Y-114918533D01*
X109619166Y-114955484D01*
X109645529Y-115012080D01*
X109678074Y-115081060D01*
X109713392Y-115155163D01*
X109718921Y-115166694D01*
X109754782Y-115240378D01*
X109780430Y-115289889D01*
X109797915Y-115318306D01*
X109809288Y-115328705D01*
X109816599Y-115324163D01*
X109819333Y-115317376D01*
X109829755Y-115291026D01*
X109850312Y-115243997D01*
X109878200Y-115182550D01*
X109910615Y-115112942D01*
X109916588Y-115100294D01*
X109949390Y-115030224D01*
X109978062Y-114967539D01*
X109999842Y-114918384D01*
X110011966Y-114888901D01*
X110012924Y-114886112D01*
X110020986Y-114869439D01*
X110036585Y-114859720D01*
X110066614Y-114855119D01*
X110117961Y-114853798D01*
X110134242Y-114853765D01*
X110187542Y-114854789D01*
X110226866Y-114857497D01*
X110244879Y-114861340D01*
X110245294Y-114862058D01*
X110243628Y-114867303D01*
X110238111Y-114880494D01*
X110227969Y-114903291D01*
X110212425Y-114937353D01*
X110190704Y-114984341D01*
X110162031Y-115045912D01*
X110125629Y-115123729D01*
X110080723Y-115219449D01*
X110026538Y-115334733D01*
X109962297Y-115471241D01*
X109887226Y-115630632D01*
X109800548Y-115814566D01*
X109753399Y-115914588D01*
X109609009Y-116220882D01*
X109500106Y-116225297D01*
X109444327Y-116227048D01*
X109412640Y-116225646D01*
X109399298Y-116219589D01*
X109398555Y-116207375D01*
X109400839Y-116199349D01*
X109410243Y-116176268D01*
X109430263Y-116131337D01*
X109458571Y-116069640D01*
X109492840Y-115996262D01*
X109522555Y-115933464D01*
X109561563Y-115851495D01*
X109598230Y-115774446D01*
X109629730Y-115708258D01*
X109653234Y-115658873D01*
X109663553Y-115637194D01*
X109681022Y-115598453D01*
X109691310Y-115571685D01*
X109692471Y-115566448D01*
X109686066Y-115550899D01*
X109668033Y-115512295D01*
X109640141Y-115454291D01*
X109604162Y-115380541D01*
X109561864Y-115294701D01*
X109520492Y-115211401D01*
X109474337Y-115117965D01*
X109433336Y-115033360D01*
X109399193Y-114961233D01*
X109373610Y-114905229D01*
X109358290Y-114868995D01*
X109354669Y-114856324D01*
X109371520Y-114852055D01*
X109410158Y-114850181D01*
X109462558Y-114851058D01*
G36*
X99766896Y-114687543D02*
G01*
X99770048Y-114726078D01*
X99769616Y-114761890D01*
X99765676Y-114846294D01*
X100056870Y-114854864D01*
X100052406Y-114940226D01*
X100047941Y-115025588D01*
X99913471Y-115027774D01*
X99853696Y-115029672D01*
X99806685Y-115032918D01*
X99779354Y-115036951D01*
X99775265Y-115038979D01*
X99774017Y-115056226D01*
X99772946Y-115098187D01*
X99772128Y-115159695D01*
X99771637Y-115235582D01*
X99771530Y-115294529D01*
X99771792Y-115386534D01*
X99772925Y-115453440D01*
X99775446Y-115500032D01*
X99779871Y-115531092D01*
X99786717Y-115551402D01*
X99796501Y-115565745D01*
X99801412Y-115570941D01*
X99843878Y-115593923D01*
X99903260Y-115600012D01*
X99971836Y-115589220D01*
X100023426Y-115570613D01*
X100062840Y-115553296D01*
X100089459Y-115542660D01*
X100095109Y-115541059D01*
X100097856Y-115554640D01*
X100098534Y-115590060D01*
X100097213Y-115634304D01*
X100093618Y-115686254D01*
X100086596Y-115717031D01*
X100072427Y-115735342D01*
X100047941Y-115749624D01*
X100010610Y-115761307D01*
X99955154Y-115771014D01*
X99893332Y-115776707D01*
X99891059Y-115776815D01*
X99826601Y-115778020D01*
X99780276Y-115773309D01*
X99740609Y-115760792D01*
X99712640Y-115747407D01*
X99667461Y-115720843D01*
X99632305Y-115691154D01*
X99605942Y-115654368D01*
X99587141Y-115606514D01*
X99574673Y-115543620D01*
X99567307Y-115461714D01*
X99563813Y-115356826D01*
X99563004Y-115264252D01*
X99562353Y-115024798D01*
X99501293Y-115030621D01*
X99458114Y-115032741D01*
X99432120Y-115027795D01*
X99424156Y-115013556D01*
X99435068Y-114987796D01*
X99465702Y-114948287D01*
X99516904Y-114892804D01*
X99576758Y-114831890D01*
X99634884Y-114774859D01*
X99686146Y-114726936D01*
X99726737Y-114691493D01*
X99752849Y-114671903D01*
X99760306Y-114669298D01*
X99766896Y-114687543D01*
G37*
X99766896Y-114687543D02*
X99770048Y-114726078D01*
X99769616Y-114761890D01*
X99765676Y-114846294D01*
X100056870Y-114854864D01*
X100052406Y-114940226D01*
X100047941Y-115025588D01*
X99913471Y-115027774D01*
X99853696Y-115029672D01*
X99806685Y-115032918D01*
X99779354Y-115036951D01*
X99775265Y-115038979D01*
X99774017Y-115056226D01*
X99772946Y-115098187D01*
X99772128Y-115159695D01*
X99771637Y-115235582D01*
X99771530Y-115294529D01*
X99771792Y-115386534D01*
X99772925Y-115453440D01*
X99775446Y-115500032D01*
X99779871Y-115531092D01*
X99786717Y-115551402D01*
X99796501Y-115565745D01*
X99801412Y-115570941D01*
X99843878Y-115593923D01*
X99903260Y-115600012D01*
X99971836Y-115589220D01*
X100023426Y-115570613D01*
X100062840Y-115553296D01*
X100089459Y-115542660D01*
X100095109Y-115541059D01*
X100097856Y-115554640D01*
X100098534Y-115590060D01*
X100097213Y-115634304D01*
X100093618Y-115686254D01*
X100086596Y-115717031D01*
X100072427Y-115735342D01*
X100047941Y-115749624D01*
X100010610Y-115761307D01*
X99955154Y-115771014D01*
X99893332Y-115776707D01*
X99891059Y-115776815D01*
X99826601Y-115778020D01*
X99780276Y-115773309D01*
X99740609Y-115760792D01*
X99712640Y-115747407D01*
X99667461Y-115720843D01*
X99632305Y-115691154D01*
X99605942Y-115654368D01*
X99587141Y-115606514D01*
X99574673Y-115543620D01*
X99567307Y-115461714D01*
X99563813Y-115356826D01*
X99563004Y-115264252D01*
X99562353Y-115024798D01*
X99501293Y-115030621D01*
X99458114Y-115032741D01*
X99432120Y-115027795D01*
X99424156Y-115013556D01*
X99435068Y-114987796D01*
X99465702Y-114948287D01*
X99516904Y-114892804D01*
X99576758Y-114831890D01*
X99634884Y-114774859D01*
X99686146Y-114726936D01*
X99726737Y-114691493D01*
X99752849Y-114671903D01*
X99760306Y-114669298D01*
X99766896Y-114687543D01*
G36*
X100747056Y-114852333D02*
G01*
X100796388Y-114874264D01*
X100840024Y-114906652D01*
X100883523Y-114951010D01*
X100898580Y-114970422D01*
X100943638Y-115034532D01*
X100949505Y-115332619D01*
X100951742Y-115434776D01*
X100954126Y-115510810D01*
X100957044Y-115564478D01*
X100960882Y-115599538D01*
X100966028Y-115619749D01*
X100972868Y-115628868D01*
X100980185Y-115630706D01*
X101011322Y-115622462D01*
X101036242Y-115608822D01*
X101061510Y-115594104D01*
X101074008Y-115598238D01*
X101076605Y-115625135D01*
X101073997Y-115660334D01*
X101066494Y-115701817D01*
X101048305Y-115727770D01*
X101010625Y-115750757D01*
X101010623Y-115750758D01*
X100943872Y-115774300D01*
X100876674Y-115780171D01*
X100817850Y-115768556D01*
X100781876Y-115745940D01*
X100747698Y-115711762D01*
X100674231Y-115745747D01*
X100592743Y-115771755D01*
X100508094Y-115778838D01*
X100430808Y-115766618D01*
X100402887Y-115755544D01*
X100345959Y-115711588D01*
X100307678Y-115647888D01*
X100291371Y-115570358D01*
X100291023Y-115556671D01*
X100294613Y-115526406D01*
X100488706Y-115526406D01*
X100500867Y-115580886D01*
X100533609Y-115618903D01*
X100581320Y-115638380D01*
X100638388Y-115637238D01*
X100699202Y-115613399D01*
X100708307Y-115607732D01*
X100725229Y-115594037D01*
X100735481Y-115575487D01*
X100740705Y-115544993D01*
X100742543Y-115495465D01*
X100742706Y-115459201D01*
X100742706Y-115333208D01*
X100683693Y-115354029D01*
X100597615Y-115389285D01*
X100538468Y-115425847D01*
X100503327Y-115466299D01*
X100489269Y-115513228D01*
X100488706Y-115526406D01*
X100294613Y-115526406D01*
X100299314Y-115486781D01*
X100325909Y-115427098D01*
X100373389Y-115375159D01*
X100444335Y-115328504D01*
X100541329Y-115284669D01*
X100598063Y-115263850D01*
X100735236Y-115216255D01*
X100739821Y-115154711D01*
X100732873Y-115095729D01*
X100704855Y-115052989D01*
X100659990Y-115026814D01*
X100602498Y-115017528D01*
X100536599Y-115025452D01*
X100466515Y-115050910D01*
X100396467Y-115094225D01*
X100359655Y-115125615D01*
X100330092Y-115149906D01*
X100310113Y-115159334D01*
X100306380Y-115157622D01*
X100304321Y-115137408D01*
X100305009Y-115096238D01*
X100308290Y-115042896D01*
X100308431Y-115041146D01*
X100313787Y-114985839D01*
X100321595Y-114951062D01*
X100336209Y-114927522D01*
X100361984Y-114905926D01*
X100376647Y-114895575D01*
X100458998Y-114854709D01*
X100554468Y-114833560D01*
X100653630Y-114832609D01*
X100747056Y-114852333D01*
G37*
X100747056Y-114852333D02*
X100796388Y-114874264D01*
X100840024Y-114906652D01*
X100883523Y-114951010D01*
X100898580Y-114970422D01*
X100943638Y-115034532D01*
X100949505Y-115332619D01*
X100951742Y-115434776D01*
X100954126Y-115510810D01*
X100957044Y-115564478D01*
X100960882Y-115599538D01*
X100966028Y-115619749D01*
X100972868Y-115628868D01*
X100980185Y-115630706D01*
X101011322Y-115622462D01*
X101036242Y-115608822D01*
X101061510Y-115594104D01*
X101074008Y-115598238D01*
X101076605Y-115625135D01*
X101073997Y-115660334D01*
X101066494Y-115701817D01*
X101048305Y-115727770D01*
X101010625Y-115750757D01*
X101010623Y-115750758D01*
X100943872Y-115774300D01*
X100876674Y-115780171D01*
X100817850Y-115768556D01*
X100781876Y-115745940D01*
X100747698Y-115711762D01*
X100674231Y-115745747D01*
X100592743Y-115771755D01*
X100508094Y-115778838D01*
X100430808Y-115766618D01*
X100402887Y-115755544D01*
X100345959Y-115711588D01*
X100307678Y-115647888D01*
X100291371Y-115570358D01*
X100291023Y-115556671D01*
X100294613Y-115526406D01*
X100488706Y-115526406D01*
X100500867Y-115580886D01*
X100533609Y-115618903D01*
X100581320Y-115638380D01*
X100638388Y-115637238D01*
X100699202Y-115613399D01*
X100708307Y-115607732D01*
X100725229Y-115594037D01*
X100735481Y-115575487D01*
X100740705Y-115544993D01*
X100742543Y-115495465D01*
X100742706Y-115459201D01*
X100742706Y-115333208D01*
X100683693Y-115354029D01*
X100597615Y-115389285D01*
X100538468Y-115425847D01*
X100503327Y-115466299D01*
X100489269Y-115513228D01*
X100488706Y-115526406D01*
X100294613Y-115526406D01*
X100299314Y-115486781D01*
X100325909Y-115427098D01*
X100373389Y-115375159D01*
X100444335Y-115328504D01*
X100541329Y-115284669D01*
X100598063Y-115263850D01*
X100735236Y-115216255D01*
X100739821Y-115154711D01*
X100732873Y-115095729D01*
X100704855Y-115052989D01*
X100659990Y-115026814D01*
X100602498Y-115017528D01*
X100536599Y-115025452D01*
X100466515Y-115050910D01*
X100396467Y-115094225D01*
X100359655Y-115125615D01*
X100330092Y-115149906D01*
X100310113Y-115159334D01*
X100306380Y-115157622D01*
X100304321Y-115137408D01*
X100305009Y-115096238D01*
X100308290Y-115042896D01*
X100308431Y-115041146D01*
X100313787Y-114985839D01*
X100321595Y-114951062D01*
X100336209Y-114927522D01*
X100361984Y-114905926D01*
X100376647Y-114895575D01*
X100458998Y-114854709D01*
X100554468Y-114833560D01*
X100653630Y-114832609D01*
X100747056Y-114852333D01*
G36*
X103417081Y-114858397D02*
G01*
X103428869Y-114865757D01*
X103428272Y-114871749D01*
X103418892Y-114894196D01*
X103401096Y-114935642D01*
X103378477Y-114987726D01*
X103374992Y-114995706D01*
X103351466Y-115049772D01*
X103318810Y-115125140D01*
X103279680Y-115215651D01*
X103236733Y-115315148D01*
X103192624Y-115417472D01*
X103150011Y-115516464D01*
X103111549Y-115605968D01*
X103080135Y-115679265D01*
X103056438Y-115731843D01*
X103038203Y-115762263D01*
X103020517Y-115776391D01*
X102998469Y-115780095D01*
X102995699Y-115780118D01*
X102963117Y-115773178D01*
X102941041Y-115747150D01*
X102933727Y-115731559D01*
X102922434Y-115705576D01*
X102900783Y-115656250D01*
X102870526Y-115587554D01*
X102833415Y-115503464D01*
X102791204Y-115407954D01*
X102745646Y-115304998D01*
X102737702Y-115287059D01*
X102692553Y-115185049D01*
X102651178Y-115091448D01*
X102615175Y-115009875D01*
X102586138Y-114943954D01*
X102565667Y-114897305D01*
X102555356Y-114873551D01*
X102554606Y-114871749D01*
X102557141Y-114861672D01*
X102577977Y-114856558D01*
X102621625Y-114855739D01*
X102655336Y-114856808D01*
X102763813Y-114861235D01*
X102877332Y-115118474D01*
X102913275Y-115198232D01*
X102945607Y-115266794D01*
X102972313Y-115320144D01*
X102991381Y-115354267D01*
X103000796Y-115365148D01*
X103000983Y-115365004D01*
X103009785Y-115348357D01*
X103027985Y-115308735D01*
X103053541Y-115250766D01*
X103084407Y-115179080D01*
X103114574Y-115107765D01*
X103218035Y-114861235D01*
X103326940Y-114856808D01*
X103384608Y-114855635D01*
X103417081Y-114858397D01*
G37*
X103417081Y-114858397D02*
X103428869Y-114865757D01*
X103428272Y-114871749D01*
X103418892Y-114894196D01*
X103401096Y-114935642D01*
X103378477Y-114987726D01*
X103374992Y-114995706D01*
X103351466Y-115049772D01*
X103318810Y-115125140D01*
X103279680Y-115215651D01*
X103236733Y-115315148D01*
X103192624Y-115417472D01*
X103150011Y-115516464D01*
X103111549Y-115605968D01*
X103080135Y-115679265D01*
X103056438Y-115731843D01*
X103038203Y-115762263D01*
X103020517Y-115776391D01*
X102998469Y-115780095D01*
X102995699Y-115780118D01*
X102963117Y-115773178D01*
X102941041Y-115747150D01*
X102933727Y-115731559D01*
X102922434Y-115705576D01*
X102900783Y-115656250D01*
X102870526Y-115587554D01*
X102833415Y-115503464D01*
X102791204Y-115407954D01*
X102745646Y-115304998D01*
X102737702Y-115287059D01*
X102692553Y-115185049D01*
X102651178Y-115091448D01*
X102615175Y-115009875D01*
X102586138Y-114943954D01*
X102565667Y-114897305D01*
X102555356Y-114873551D01*
X102554606Y-114871749D01*
X102557141Y-114861672D01*
X102577977Y-114856558D01*
X102621625Y-114855739D01*
X102655336Y-114856808D01*
X102763813Y-114861235D01*
X102877332Y-115118474D01*
X102913275Y-115198232D01*
X102945607Y-115266794D01*
X102972313Y-115320144D01*
X102991381Y-115354267D01*
X103000796Y-115365148D01*
X103000983Y-115365004D01*
X103009785Y-115348357D01*
X103027985Y-115308735D01*
X103053541Y-115250766D01*
X103084407Y-115179080D01*
X103114574Y-115107765D01*
X103218035Y-114861235D01*
X103326940Y-114856808D01*
X103384608Y-114855635D01*
X103417081Y-114858397D01*
G36*
X105948956Y-114844157D02*
G01*
X106045748Y-114880524D01*
X106126142Y-114940528D01*
X106188465Y-115022546D01*
X106231047Y-115124956D01*
X106251216Y-115234372D01*
X106260321Y-115331882D01*
X105624561Y-115331882D01*
X105633596Y-115387561D01*
X105659331Y-115462539D01*
X105707039Y-115521759D01*
X105772627Y-115564074D01*
X105852001Y-115588338D01*
X105941069Y-115593403D01*
X106035736Y-115578124D01*
X106131910Y-115541354D01*
X106149559Y-115532094D01*
X106190053Y-115511295D01*
X106220195Y-115498355D01*
X106228713Y-115496235D01*
X106235193Y-115509801D01*
X106238484Y-115545191D01*
X106238037Y-115589618D01*
X106233588Y-115683000D01*
X106144662Y-115727416D01*
X106097024Y-115749309D01*
X106054060Y-115763053D01*
X106005439Y-115770795D01*
X105940833Y-115774679D01*
X105913074Y-115775511D01*
X105846398Y-115775874D01*
X105787373Y-115773767D01*
X105744930Y-115769610D01*
X105732962Y-115766977D01*
X105632930Y-115718980D01*
X105547920Y-115645445D01*
X105478742Y-115547122D01*
X105463647Y-115517997D01*
X105445688Y-115476008D01*
X105434730Y-115434129D01*
X105429160Y-115382773D01*
X105427366Y-115312355D01*
X105427328Y-115302000D01*
X105428148Y-115231551D01*
X105430934Y-115196816D01*
X105628471Y-115196816D01*
X105643167Y-115203585D01*
X105686381Y-115208492D01*
X105756801Y-115211444D01*
X105845403Y-115212353D01*
X106062334Y-115212353D01*
X106052512Y-115171265D01*
X106035971Y-115119240D01*
X106010399Y-115079392D01*
X105980022Y-115048249D01*
X105950061Y-115025734D01*
X105915195Y-115014606D01*
X105863824Y-115011437D01*
X105855385Y-115011431D01*
X105776399Y-115020312D01*
X105717083Y-115048441D01*
X105671935Y-115098956D01*
X105657492Y-115124393D01*
X105639437Y-115163181D01*
X105629282Y-115191581D01*
X105628471Y-115196816D01*
X105430934Y-115196816D01*
X105432186Y-115181212D01*
X105441253Y-115141246D01*
X105457164Y-115101914D01*
X105469050Y-115077882D01*
X105533454Y-114977283D01*
X105610382Y-114903610D01*
X105700757Y-114856249D01*
X105805498Y-114834590D01*
X105837440Y-114833049D01*
X105948956Y-114844157D01*
G37*
X105948956Y-114844157D02*
X106045748Y-114880524D01*
X106126142Y-114940528D01*
X106188465Y-115022546D01*
X106231047Y-115124956D01*
X106251216Y-115234372D01*
X106260321Y-115331882D01*
X105624561Y-115331882D01*
X105633596Y-115387561D01*
X105659331Y-115462539D01*
X105707039Y-115521759D01*
X105772627Y-115564074D01*
X105852001Y-115588338D01*
X105941069Y-115593403D01*
X106035736Y-115578124D01*
X106131910Y-115541354D01*
X106149559Y-115532094D01*
X106190053Y-115511295D01*
X106220195Y-115498355D01*
X106228713Y-115496235D01*
X106235193Y-115509801D01*
X106238484Y-115545191D01*
X106238037Y-115589618D01*
X106233588Y-115683000D01*
X106144662Y-115727416D01*
X106097024Y-115749309D01*
X106054060Y-115763053D01*
X106005439Y-115770795D01*
X105940833Y-115774679D01*
X105913074Y-115775511D01*
X105846398Y-115775874D01*
X105787373Y-115773767D01*
X105744930Y-115769610D01*
X105732962Y-115766977D01*
X105632930Y-115718980D01*
X105547920Y-115645445D01*
X105478742Y-115547122D01*
X105463647Y-115517997D01*
X105445688Y-115476008D01*
X105434730Y-115434129D01*
X105429160Y-115382773D01*
X105427366Y-115312355D01*
X105427328Y-115302000D01*
X105428148Y-115231551D01*
X105430934Y-115196816D01*
X105628471Y-115196816D01*
X105643167Y-115203585D01*
X105686381Y-115208492D01*
X105756801Y-115211444D01*
X105845403Y-115212353D01*
X106062334Y-115212353D01*
X106052512Y-115171265D01*
X106035971Y-115119240D01*
X106010399Y-115079392D01*
X105980022Y-115048249D01*
X105950061Y-115025734D01*
X105915195Y-115014606D01*
X105863824Y-115011437D01*
X105855385Y-115011431D01*
X105776399Y-115020312D01*
X105717083Y-115048441D01*
X105671935Y-115098956D01*
X105657492Y-115124393D01*
X105639437Y-115163181D01*
X105629282Y-115191581D01*
X105628471Y-115196816D01*
X105430934Y-115196816D01*
X105432186Y-115181212D01*
X105441253Y-115141246D01*
X105457164Y-115101914D01*
X105469050Y-115077882D01*
X105533454Y-114977283D01*
X105610382Y-114903610D01*
X105700757Y-114856249D01*
X105805498Y-114834590D01*
X105837440Y-114833049D01*
X105948956Y-114844157D01*
G36*
X107099982Y-114852147D02*
G01*
X107205888Y-114880378D01*
X107303455Y-114930773D01*
X107388277Y-115002536D01*
X107455949Y-115094875D01*
X107468494Y-115118673D01*
X107486549Y-115161051D01*
X107497287Y-115204334D01*
X107502399Y-115258469D01*
X107503588Y-115324993D01*
X107502831Y-115391221D01*
X107498996Y-115437557D01*
X107489736Y-115473985D01*
X107472704Y-115510485D01*
X107451294Y-115547472D01*
X107380952Y-115639019D01*
X107293507Y-115710157D01*
X107194339Y-115756542D01*
X107190847Y-115757626D01*
X107112229Y-115772972D01*
X107019082Y-115778243D01*
X106924992Y-115773480D01*
X106843549Y-115758727D01*
X106836013Y-115756517D01*
X106766575Y-115723473D01*
X106695385Y-115669970D01*
X106630714Y-115603699D01*
X106580834Y-115532351D01*
X106568463Y-115507742D01*
X106546713Y-115447811D01*
X106535881Y-115384559D01*
X106533340Y-115316941D01*
X106536055Y-115286872D01*
X106737024Y-115286872D01*
X106739201Y-115380737D01*
X106761703Y-115455663D01*
X106805769Y-115515705D01*
X106807485Y-115517364D01*
X106881377Y-115568245D01*
X106968295Y-115594607D01*
X107062464Y-115595158D01*
X107110919Y-115585225D01*
X107191157Y-115548687D01*
X107252192Y-115490802D01*
X107291516Y-115415006D01*
X107306622Y-115324736D01*
X107306709Y-115316941D01*
X107296648Y-115230641D01*
X107264151Y-115159206D01*
X107217305Y-115104980D01*
X107162424Y-115063858D01*
X107100006Y-115041004D01*
X107020584Y-115033149D01*
X107008962Y-115033059D01*
X106915729Y-115045459D01*
X106840070Y-115081579D01*
X106783723Y-115139795D01*
X106748426Y-115218486D01*
X106737024Y-115286872D01*
X106536055Y-115286872D01*
X106543383Y-115205726D01*
X106575327Y-115111155D01*
X106631895Y-115026954D01*
X106681051Y-114976729D01*
X106776270Y-114908369D01*
X106880768Y-114865348D01*
X106990140Y-114846872D01*
X107099982Y-114852147D01*
G37*
X107099982Y-114852147D02*
X107205888Y-114880378D01*
X107303455Y-114930773D01*
X107388277Y-115002536D01*
X107455949Y-115094875D01*
X107468494Y-115118673D01*
X107486549Y-115161051D01*
X107497287Y-115204334D01*
X107502399Y-115258469D01*
X107503588Y-115324993D01*
X107502831Y-115391221D01*
X107498996Y-115437557D01*
X107489736Y-115473985D01*
X107472704Y-115510485D01*
X107451294Y-115547472D01*
X107380952Y-115639019D01*
X107293507Y-115710157D01*
X107194339Y-115756542D01*
X107190847Y-115757626D01*
X107112229Y-115772972D01*
X107019082Y-115778243D01*
X106924992Y-115773480D01*
X106843549Y-115758727D01*
X106836013Y-115756517D01*
X106766575Y-115723473D01*
X106695385Y-115669970D01*
X106630714Y-115603699D01*
X106580834Y-115532351D01*
X106568463Y-115507742D01*
X106546713Y-115447811D01*
X106535881Y-115384559D01*
X106533340Y-115316941D01*
X106536055Y-115286872D01*
X106737024Y-115286872D01*
X106739201Y-115380737D01*
X106761703Y-115455663D01*
X106805769Y-115515705D01*
X106807485Y-115517364D01*
X106881377Y-115568245D01*
X106968295Y-115594607D01*
X107062464Y-115595158D01*
X107110919Y-115585225D01*
X107191157Y-115548687D01*
X107252192Y-115490802D01*
X107291516Y-115415006D01*
X107306622Y-115324736D01*
X107306709Y-115316941D01*
X107296648Y-115230641D01*
X107264151Y-115159206D01*
X107217305Y-115104980D01*
X107162424Y-115063858D01*
X107100006Y-115041004D01*
X107020584Y-115033149D01*
X107008962Y-115033059D01*
X106915729Y-115045459D01*
X106840070Y-115081579D01*
X106783723Y-115139795D01*
X106748426Y-115218486D01*
X106737024Y-115286872D01*
X106536055Y-115286872D01*
X106543383Y-115205726D01*
X106575327Y-115111155D01*
X106631895Y-115026954D01*
X106681051Y-114976729D01*
X106776270Y-114908369D01*
X106880768Y-114865348D01*
X106990140Y-114846872D01*
X107099982Y-114852147D01*
G36*
X108937238Y-114847717D02*
G01*
X109003094Y-114869106D01*
X109094824Y-114905542D01*
X109094824Y-114999182D01*
X109092543Y-115050493D01*
X109086414Y-115083676D01*
X109079386Y-115092823D01*
X109058275Y-115086490D01*
X109020560Y-115070218D01*
X108990974Y-115055845D01*
X108917548Y-115025493D01*
X108849464Y-115009833D01*
X108791436Y-115008661D01*
X108748177Y-115021775D01*
X108724403Y-115048972D01*
X108721294Y-115067437D01*
X108730288Y-115100941D01*
X108759265Y-115135674D01*
X108811216Y-115174473D01*
X108873095Y-115211332D01*
X108978595Y-115279877D01*
X109057676Y-115352382D01*
X109109714Y-115427477D01*
X109134083Y-115503793D01*
X109130158Y-115579960D01*
X109097313Y-115654608D01*
X109084094Y-115673420D01*
X109044904Y-115712436D01*
X108995786Y-115745906D01*
X108984499Y-115751533D01*
X108917033Y-115771064D01*
X108832768Y-115779306D01*
X108742570Y-115776273D01*
X108657302Y-115761976D01*
X108621313Y-115751116D01*
X108575231Y-115733826D01*
X108540092Y-115719375D01*
X108527930Y-115713421D01*
X108521126Y-115696118D01*
X108515994Y-115659514D01*
X108512821Y-115612571D01*
X108511891Y-115564251D01*
X108513491Y-115523518D01*
X108517904Y-115499335D01*
X108521017Y-115496235D01*
X108537960Y-115504100D01*
X108568027Y-115523423D01*
X108573626Y-115527359D01*
X108626316Y-115557639D01*
X108689771Y-115583767D01*
X108753870Y-115602530D01*
X108808492Y-115610713D01*
X108831786Y-115609354D01*
X108881951Y-115590297D01*
X108917394Y-115559508D01*
X108930471Y-115524384D01*
X108919706Y-115493439D01*
X108886057Y-115458133D01*
X108827495Y-115416684D01*
X108768068Y-115381644D01*
X108661405Y-115313047D01*
X108584018Y-115242591D01*
X108535322Y-115169442D01*
X108514728Y-115092766D01*
X108518318Y-115027104D01*
X108545510Y-114956919D01*
X108595416Y-114901003D01*
X108663789Y-114860741D01*
X108746382Y-114837516D01*
X108838947Y-114832713D01*
X108937238Y-114847717D01*
G37*
X108937238Y-114847717D02*
X109003094Y-114869106D01*
X109094824Y-114905542D01*
X109094824Y-114999182D01*
X109092543Y-115050493D01*
X109086414Y-115083676D01*
X109079386Y-115092823D01*
X109058275Y-115086490D01*
X109020560Y-115070218D01*
X108990974Y-115055845D01*
X108917548Y-115025493D01*
X108849464Y-115009833D01*
X108791436Y-115008661D01*
X108748177Y-115021775D01*
X108724403Y-115048972D01*
X108721294Y-115067437D01*
X108730288Y-115100941D01*
X108759265Y-115135674D01*
X108811216Y-115174473D01*
X108873095Y-115211332D01*
X108978595Y-115279877D01*
X109057676Y-115352382D01*
X109109714Y-115427477D01*
X109134083Y-115503793D01*
X109130158Y-115579960D01*
X109097313Y-115654608D01*
X109084094Y-115673420D01*
X109044904Y-115712436D01*
X108995786Y-115745906D01*
X108984499Y-115751533D01*
X108917033Y-115771064D01*
X108832768Y-115779306D01*
X108742570Y-115776273D01*
X108657302Y-115761976D01*
X108621313Y-115751116D01*
X108575231Y-115733826D01*
X108540092Y-115719375D01*
X108527930Y-115713421D01*
X108521126Y-115696118D01*
X108515994Y-115659514D01*
X108512821Y-115612571D01*
X108511891Y-115564251D01*
X108513491Y-115523518D01*
X108517904Y-115499335D01*
X108521017Y-115496235D01*
X108537960Y-115504100D01*
X108568027Y-115523423D01*
X108573626Y-115527359D01*
X108626316Y-115557639D01*
X108689771Y-115583767D01*
X108753870Y-115602530D01*
X108808492Y-115610713D01*
X108831786Y-115609354D01*
X108881951Y-115590297D01*
X108917394Y-115559508D01*
X108930471Y-115524384D01*
X108919706Y-115493439D01*
X108886057Y-115458133D01*
X108827495Y-115416684D01*
X108768068Y-115381644D01*
X108661405Y-115313047D01*
X108584018Y-115242591D01*
X108535322Y-115169442D01*
X108514728Y-115092766D01*
X108518318Y-115027104D01*
X108545510Y-114956919D01*
X108595416Y-114901003D01*
X108663789Y-114860741D01*
X108746382Y-114837516D01*
X108838947Y-114832713D01*
X108937238Y-114847717D01*
G36*
X111885771Y-114757941D02*
G01*
X111890189Y-114853765D01*
X112174197Y-114853765D01*
X112169716Y-114939676D01*
X112165236Y-115025588D01*
X111888788Y-115025588D01*
X111888806Y-115273838D01*
X111889080Y-115366405D01*
X111890244Y-115434044D01*
X111892830Y-115481707D01*
X111897372Y-115514346D01*
X111904404Y-115536914D01*
X111914459Y-115554363D01*
X111919791Y-115561456D01*
X111962874Y-115592726D01*
X112024448Y-115600768D01*
X112104185Y-115585565D01*
X112142663Y-115572377D01*
X112217530Y-115543930D01*
X112217530Y-115732485D01*
X112147633Y-115756301D01*
X112080480Y-115771829D01*
X112003679Y-115778470D01*
X111928671Y-115776121D01*
X111866897Y-115764681D01*
X111851471Y-115758941D01*
X111794893Y-115721952D01*
X111744082Y-115668690D01*
X111710545Y-115611227D01*
X111710480Y-115611057D01*
X111705030Y-115581586D01*
X111700468Y-115527304D01*
X111697050Y-115453276D01*
X111695032Y-115364566D01*
X111694588Y-115295750D01*
X111694588Y-115022504D01*
X111621824Y-115029496D01*
X111572953Y-115030715D01*
X111543395Y-115024137D01*
X111538973Y-115020168D01*
X111545709Y-115004553D01*
X111571374Y-114972069D01*
X111612945Y-114926122D01*
X111667398Y-114870117D01*
X111705120Y-114832983D01*
X111881353Y-114662118D01*
X111885771Y-114757941D01*
G37*
X111885771Y-114757941D02*
X111890189Y-114853765D01*
X112174197Y-114853765D01*
X112169716Y-114939676D01*
X112165236Y-115025588D01*
X111888788Y-115025588D01*
X111888806Y-115273838D01*
X111889080Y-115366405D01*
X111890244Y-115434044D01*
X111892830Y-115481707D01*
X111897372Y-115514346D01*
X111904404Y-115536914D01*
X111914459Y-115554363D01*
X111919791Y-115561456D01*
X111962874Y-115592726D01*
X112024448Y-115600768D01*
X112104185Y-115585565D01*
X112142663Y-115572377D01*
X112217530Y-115543930D01*
X112217530Y-115732485D01*
X112147633Y-115756301D01*
X112080480Y-115771829D01*
X112003679Y-115778470D01*
X111928671Y-115776121D01*
X111866897Y-115764681D01*
X111851471Y-115758941D01*
X111794893Y-115721952D01*
X111744082Y-115668690D01*
X111710545Y-115611227D01*
X111710480Y-115611057D01*
X111705030Y-115581586D01*
X111700468Y-115527304D01*
X111697050Y-115453276D01*
X111695032Y-115364566D01*
X111694588Y-115295750D01*
X111694588Y-115022504D01*
X111621824Y-115029496D01*
X111572953Y-115030715D01*
X111543395Y-115024137D01*
X111538973Y-115020168D01*
X111545709Y-115004553D01*
X111571374Y-114972069D01*
X111612945Y-114926122D01*
X111667398Y-114870117D01*
X111705120Y-114832983D01*
X111881353Y-114662118D01*
X111885771Y-114757941D01*
G36*
X114089788Y-114837713D02*
G01*
X114151010Y-114848451D01*
X114175910Y-114856741D01*
X114264054Y-114910795D01*
X114335430Y-114987524D01*
X114387790Y-115083485D01*
X114418883Y-115195233D01*
X114424277Y-115236916D01*
X114433145Y-115331882D01*
X113787782Y-115331882D01*
X113808951Y-115402853D01*
X113846681Y-115479604D01*
X113906596Y-115541322D01*
X113982339Y-115581830D01*
X113998064Y-115586638D01*
X114069886Y-115594964D01*
X114154747Y-115587931D01*
X114241282Y-115567427D01*
X114318125Y-115535335D01*
X114322722Y-115532774D01*
X114362835Y-115511501D01*
X114392794Y-115498327D01*
X114401179Y-115496235D01*
X114407913Y-115509833D01*
X114411306Y-115545471D01*
X114410860Y-115589618D01*
X114406412Y-115683000D01*
X114317485Y-115727416D01*
X114269999Y-115749263D01*
X114227306Y-115762960D01*
X114179101Y-115770636D01*
X114115078Y-115774419D01*
X114085897Y-115775245D01*
X114016243Y-115775104D01*
X113951324Y-115771829D01*
X113901462Y-115766058D01*
X113887159Y-115762950D01*
X113827913Y-115734960D01*
X113764665Y-115686359D01*
X113704793Y-115624166D01*
X113655673Y-115555401D01*
X113641429Y-115529145D01*
X113621081Y-115484135D01*
X113608585Y-115443796D01*
X113602097Y-115398122D01*
X113599776Y-115337110D01*
X113599600Y-115302000D01*
X113601214Y-115225071D01*
X113606052Y-115177621D01*
X113805255Y-115177621D01*
X113808261Y-115194866D01*
X113827778Y-115205183D01*
X113867153Y-115210351D01*
X113929734Y-115212148D01*
X114018226Y-115212353D01*
X114235158Y-115212353D01*
X114225336Y-115171265D01*
X114195763Y-115096057D01*
X114148027Y-115044376D01*
X114080983Y-115015184D01*
X114046403Y-115009338D01*
X113965113Y-115012983D01*
X113897977Y-115042920D01*
X113845236Y-115099026D01*
X113835383Y-115115235D01*
X113815412Y-115151670D01*
X113805255Y-115177621D01*
X113606052Y-115177621D01*
X113606961Y-115168716D01*
X113618216Y-115123752D01*
X113631061Y-115092064D01*
X113692037Y-114991086D01*
X113769693Y-114914123D01*
X113862396Y-114862264D01*
X113968513Y-114836599D01*
X114017941Y-114833888D01*
X114089788Y-114837713D01*
G37*
X114089788Y-114837713D02*
X114151010Y-114848451D01*
X114175910Y-114856741D01*
X114264054Y-114910795D01*
X114335430Y-114987524D01*
X114387790Y-115083485D01*
X114418883Y-115195233D01*
X114424277Y-115236916D01*
X114433145Y-115331882D01*
X113787782Y-115331882D01*
X113808951Y-115402853D01*
X113846681Y-115479604D01*
X113906596Y-115541322D01*
X113982339Y-115581830D01*
X113998064Y-115586638D01*
X114069886Y-115594964D01*
X114154747Y-115587931D01*
X114241282Y-115567427D01*
X114318125Y-115535335D01*
X114322722Y-115532774D01*
X114362835Y-115511501D01*
X114392794Y-115498327D01*
X114401179Y-115496235D01*
X114407913Y-115509833D01*
X114411306Y-115545471D01*
X114410860Y-115589618D01*
X114406412Y-115683000D01*
X114317485Y-115727416D01*
X114269999Y-115749263D01*
X114227306Y-115762960D01*
X114179101Y-115770636D01*
X114115078Y-115774419D01*
X114085897Y-115775245D01*
X114016243Y-115775104D01*
X113951324Y-115771829D01*
X113901462Y-115766058D01*
X113887159Y-115762950D01*
X113827913Y-115734960D01*
X113764665Y-115686359D01*
X113704793Y-115624166D01*
X113655673Y-115555401D01*
X113641429Y-115529145D01*
X113621081Y-115484135D01*
X113608585Y-115443796D01*
X113602097Y-115398122D01*
X113599776Y-115337110D01*
X113599600Y-115302000D01*
X113601214Y-115225071D01*
X113606052Y-115177621D01*
X113805255Y-115177621D01*
X113808261Y-115194866D01*
X113827778Y-115205183D01*
X113867153Y-115210351D01*
X113929734Y-115212148D01*
X114018226Y-115212353D01*
X114235158Y-115212353D01*
X114225336Y-115171265D01*
X114195763Y-115096057D01*
X114148027Y-115044376D01*
X114080983Y-115015184D01*
X114046403Y-115009338D01*
X113965113Y-115012983D01*
X113897977Y-115042920D01*
X113845236Y-115099026D01*
X113835383Y-115115235D01*
X113815412Y-115151670D01*
X113805255Y-115177621D01*
X113606052Y-115177621D01*
X113606961Y-115168716D01*
X113618216Y-115123752D01*
X113631061Y-115092064D01*
X113692037Y-114991086D01*
X113769693Y-114914123D01*
X113862396Y-114862264D01*
X113968513Y-114836599D01*
X114017941Y-114833888D01*
X114089788Y-114837713D01*
G36*
X115129579Y-114845470D02*
G01*
X115202411Y-114867451D01*
X115295412Y-114902232D01*
X115295412Y-114997527D01*
X115293453Y-115046462D01*
X115288335Y-115080844D01*
X115281698Y-115092823D01*
X115261592Y-115086560D01*
X115224559Y-115070460D01*
X115194864Y-115056097D01*
X115109059Y-115020981D01*
X115035432Y-115007159D01*
X114977195Y-115015070D01*
X114959470Y-115024060D01*
X114928799Y-115052962D01*
X114923257Y-115084317D01*
X114943714Y-115119513D01*
X114991042Y-115159939D01*
X115066113Y-115206983D01*
X115078765Y-115214109D01*
X115139158Y-115252817D01*
X115203259Y-115301622D01*
X115245577Y-115339061D01*
X115289082Y-115384407D01*
X115314765Y-115421235D01*
X115328486Y-115459249D01*
X115333017Y-115483909D01*
X115332835Y-115571692D01*
X115305599Y-115647551D01*
X115252375Y-115709672D01*
X115174231Y-115756239D01*
X115172627Y-115756913D01*
X115105173Y-115774102D01*
X115020804Y-115779491D01*
X114929920Y-115773404D01*
X114842918Y-115756165D01*
X114809824Y-115745600D01*
X114720177Y-115712860D01*
X114715787Y-115604547D01*
X114714865Y-115552020D01*
X114716489Y-115513531D01*
X114720306Y-115496489D01*
X114720951Y-115496235D01*
X114738650Y-115503999D01*
X114768445Y-115522806D01*
X114770164Y-115524003D01*
X114805849Y-115544286D01*
X114857114Y-115568014D01*
X114899069Y-115584806D01*
X114982529Y-115607246D01*
X115048621Y-115606061D01*
X115098356Y-115581189D01*
X115107797Y-115571881D01*
X115127165Y-115543654D01*
X115129993Y-115516364D01*
X115114062Y-115486928D01*
X115077152Y-115452262D01*
X115017046Y-115409285D01*
X114967995Y-115377640D01*
X114878275Y-115318525D01*
X114812360Y-115267985D01*
X114766947Y-115222020D01*
X114738735Y-115176633D01*
X114724418Y-115127824D01*
X114720688Y-115078269D01*
X114727586Y-115004372D01*
X114752229Y-114947608D01*
X114799051Y-114900715D01*
X114848312Y-114869365D01*
X114929855Y-114839806D01*
X115025733Y-114831829D01*
X115129579Y-114845470D01*
G37*
X115129579Y-114845470D02*
X115202411Y-114867451D01*
X115295412Y-114902232D01*
X115295412Y-114997527D01*
X115293453Y-115046462D01*
X115288335Y-115080844D01*
X115281698Y-115092823D01*
X115261592Y-115086560D01*
X115224559Y-115070460D01*
X115194864Y-115056097D01*
X115109059Y-115020981D01*
X115035432Y-115007159D01*
X114977195Y-115015070D01*
X114959470Y-115024060D01*
X114928799Y-115052962D01*
X114923257Y-115084317D01*
X114943714Y-115119513D01*
X114991042Y-115159939D01*
X115066113Y-115206983D01*
X115078765Y-115214109D01*
X115139158Y-115252817D01*
X115203259Y-115301622D01*
X115245577Y-115339061D01*
X115289082Y-115384407D01*
X115314765Y-115421235D01*
X115328486Y-115459249D01*
X115333017Y-115483909D01*
X115332835Y-115571692D01*
X115305599Y-115647551D01*
X115252375Y-115709672D01*
X115174231Y-115756239D01*
X115172627Y-115756913D01*
X115105173Y-115774102D01*
X115020804Y-115779491D01*
X114929920Y-115773404D01*
X114842918Y-115756165D01*
X114809824Y-115745600D01*
X114720177Y-115712860D01*
X114715787Y-115604547D01*
X114714865Y-115552020D01*
X114716489Y-115513531D01*
X114720306Y-115496489D01*
X114720951Y-115496235D01*
X114738650Y-115503999D01*
X114768445Y-115522806D01*
X114770164Y-115524003D01*
X114805849Y-115544286D01*
X114857114Y-115568014D01*
X114899069Y-115584806D01*
X114982529Y-115607246D01*
X115048621Y-115606061D01*
X115098356Y-115581189D01*
X115107797Y-115571881D01*
X115127165Y-115543654D01*
X115129993Y-115516364D01*
X115114062Y-115486928D01*
X115077152Y-115452262D01*
X115017046Y-115409285D01*
X114967995Y-115377640D01*
X114878275Y-115318525D01*
X114812360Y-115267985D01*
X114766947Y-115222020D01*
X114738735Y-115176633D01*
X114724418Y-115127824D01*
X114720688Y-115078269D01*
X114727586Y-115004372D01*
X114752229Y-114947608D01*
X114799051Y-114900715D01*
X114848312Y-114869365D01*
X114929855Y-114839806D01*
X115025733Y-114831829D01*
X115129579Y-114845470D01*
G36*
X117716512Y-114836409D02*
G01*
X117797057Y-114857357D01*
X117814916Y-114865569D01*
X117896673Y-114923722D01*
X117963688Y-115003554D01*
X118012568Y-115099101D01*
X118039920Y-115204401D01*
X118044588Y-115269362D01*
X118044588Y-115331882D01*
X117413149Y-115331882D01*
X117421861Y-115385565D01*
X117437100Y-115433208D01*
X117463533Y-115481992D01*
X117469412Y-115490169D01*
X117517957Y-115541352D01*
X117574048Y-115573080D01*
X117645128Y-115588479D01*
X117709967Y-115591211D01*
X117777506Y-115588076D01*
X117833449Y-115576961D01*
X117893469Y-115554254D01*
X117917086Y-115543487D01*
X117966533Y-115520727D01*
X118004473Y-115503974D01*
X118023719Y-115496387D01*
X118024567Y-115496235D01*
X118027289Y-115509817D01*
X118027952Y-115545245D01*
X118026625Y-115589618D01*
X118022177Y-115683000D01*
X117933250Y-115727416D01*
X117885225Y-115749425D01*
X117841574Y-115763290D01*
X117791906Y-115771198D01*
X117725830Y-115775336D01*
X117701662Y-115776156D01*
X117599884Y-115775507D01*
X117526793Y-115766520D01*
X117502940Y-115759637D01*
X117408527Y-115709300D01*
X117330455Y-115636746D01*
X117270788Y-115546012D01*
X117231590Y-115441131D01*
X117214928Y-115326141D01*
X117221856Y-115212353D01*
X117415045Y-115212353D01*
X117632699Y-115212353D01*
X117719653Y-115211385D01*
X117787044Y-115208630D01*
X117831599Y-115204306D01*
X117850041Y-115198635D01*
X117850353Y-115197714D01*
X117841178Y-115158507D01*
X117818276Y-115110309D01*
X117788580Y-115065715D01*
X117763829Y-115040529D01*
X117715890Y-115019628D01*
X117653014Y-115010783D01*
X117587805Y-115014448D01*
X117532864Y-115031079D01*
X117530869Y-115032122D01*
X117488397Y-115067518D01*
X117450117Y-115121457D01*
X117425226Y-115178735D01*
X117415045Y-115212353D01*
X117221856Y-115212353D01*
X117221971Y-115210470D01*
X117252711Y-115093710D01*
X117304479Y-114997693D01*
X117378240Y-114921015D01*
X117454412Y-114872300D01*
X117534156Y-114844087D01*
X117625201Y-114832054D01*
X117716512Y-114836409D01*
G37*
X117716512Y-114836409D02*
X117797057Y-114857357D01*
X117814916Y-114865569D01*
X117896673Y-114923722D01*
X117963688Y-115003554D01*
X118012568Y-115099101D01*
X118039920Y-115204401D01*
X118044588Y-115269362D01*
X118044588Y-115331882D01*
X117413149Y-115331882D01*
X117421861Y-115385565D01*
X117437100Y-115433208D01*
X117463533Y-115481992D01*
X117469412Y-115490169D01*
X117517957Y-115541352D01*
X117574048Y-115573080D01*
X117645128Y-115588479D01*
X117709967Y-115591211D01*
X117777506Y-115588076D01*
X117833449Y-115576961D01*
X117893469Y-115554254D01*
X117917086Y-115543487D01*
X117966533Y-115520727D01*
X118004473Y-115503974D01*
X118023719Y-115496387D01*
X118024567Y-115496235D01*
X118027289Y-115509817D01*
X118027952Y-115545245D01*
X118026625Y-115589618D01*
X118022177Y-115683000D01*
X117933250Y-115727416D01*
X117885225Y-115749425D01*
X117841574Y-115763290D01*
X117791906Y-115771198D01*
X117725830Y-115775336D01*
X117701662Y-115776156D01*
X117599884Y-115775507D01*
X117526793Y-115766520D01*
X117502940Y-115759637D01*
X117408527Y-115709300D01*
X117330455Y-115636746D01*
X117270788Y-115546012D01*
X117231590Y-115441131D01*
X117214928Y-115326141D01*
X117221856Y-115212353D01*
X117415045Y-115212353D01*
X117632699Y-115212353D01*
X117719653Y-115211385D01*
X117787044Y-115208630D01*
X117831599Y-115204306D01*
X117850041Y-115198635D01*
X117850353Y-115197714D01*
X117841178Y-115158507D01*
X117818276Y-115110309D01*
X117788580Y-115065715D01*
X117763829Y-115040529D01*
X117715890Y-115019628D01*
X117653014Y-115010783D01*
X117587805Y-115014448D01*
X117532864Y-115031079D01*
X117530869Y-115032122D01*
X117488397Y-115067518D01*
X117450117Y-115121457D01*
X117425226Y-115178735D01*
X117415045Y-115212353D01*
X117221856Y-115212353D01*
X117221971Y-115210470D01*
X117252711Y-115093710D01*
X117304479Y-114997693D01*
X117378240Y-114921015D01*
X117454412Y-114872300D01*
X117534156Y-114844087D01*
X117625201Y-114832054D01*
X117716512Y-114836409D01*
G36*
X96973944Y-115074147D02*
G01*
X96977828Y-115765176D01*
X96727414Y-115763829D01*
X96639872Y-115762512D01*
X96559229Y-115759739D01*
X96491783Y-115755845D01*
X96443836Y-115751163D01*
X96426144Y-115747865D01*
X96337653Y-115707333D01*
X96259027Y-115641064D01*
X96193927Y-115552552D01*
X96167658Y-115501193D01*
X96143293Y-115419608D01*
X96133230Y-115323371D01*
X96134205Y-115300266D01*
X96335387Y-115300266D01*
X96341576Y-115396526D01*
X96362710Y-115471172D01*
X96401319Y-115526430D01*
X96459932Y-115564525D01*
X96541079Y-115587682D01*
X96647290Y-115598126D01*
X96674971Y-115598953D01*
X96768353Y-115600823D01*
X96768353Y-115034211D01*
X96704853Y-115017082D01*
X96608588Y-115004349D01*
X96521742Y-115018308D01*
X96447666Y-115056388D01*
X96389711Y-115116023D01*
X96351228Y-115194643D01*
X96335570Y-115289679D01*
X96335387Y-115300266D01*
X96134205Y-115300266D01*
X96137424Y-115224044D01*
X96155832Y-115133187D01*
X96169203Y-115097100D01*
X96211253Y-115026906D01*
X96271230Y-114957613D01*
X96339869Y-114898540D01*
X96404485Y-114860452D01*
X96460292Y-114844816D01*
X96533827Y-114835582D01*
X96613495Y-114833404D01*
X96687701Y-114838931D01*
X96711941Y-114843164D01*
X96767588Y-114854975D01*
X96771706Y-114619046D01*
X96775824Y-114383118D01*
X96970059Y-114383118D01*
X96973944Y-115074147D01*
G37*
X96973944Y-115074147D02*
X96977828Y-115765176D01*
X96727414Y-115763829D01*
X96639872Y-115762512D01*
X96559229Y-115759739D01*
X96491783Y-115755845D01*
X96443836Y-115751163D01*
X96426144Y-115747865D01*
X96337653Y-115707333D01*
X96259027Y-115641064D01*
X96193927Y-115552552D01*
X96167658Y-115501193D01*
X96143293Y-115419608D01*
X96133230Y-115323371D01*
X96134205Y-115300266D01*
X96335387Y-115300266D01*
X96341576Y-115396526D01*
X96362710Y-115471172D01*
X96401319Y-115526430D01*
X96459932Y-115564525D01*
X96541079Y-115587682D01*
X96647290Y-115598126D01*
X96674971Y-115598953D01*
X96768353Y-115600823D01*
X96768353Y-115034211D01*
X96704853Y-115017082D01*
X96608588Y-115004349D01*
X96521742Y-115018308D01*
X96447666Y-115056388D01*
X96389711Y-115116023D01*
X96351228Y-115194643D01*
X96335570Y-115289679D01*
X96335387Y-115300266D01*
X96134205Y-115300266D01*
X96137424Y-115224044D01*
X96155832Y-115133187D01*
X96169203Y-115097100D01*
X96211253Y-115026906D01*
X96271230Y-114957613D01*
X96339869Y-114898540D01*
X96404485Y-114860452D01*
X96460292Y-114844816D01*
X96533827Y-114835582D01*
X96613495Y-114833404D01*
X96687701Y-114838931D01*
X96711941Y-114843164D01*
X96767588Y-114854975D01*
X96771706Y-114619046D01*
X96775824Y-114383118D01*
X96970059Y-114383118D01*
X96973944Y-115074147D01*
G36*
X97545294Y-115765176D02*
G01*
X97351059Y-115765176D01*
X97351059Y-114853765D01*
X97545294Y-114853765D01*
X97545294Y-115765176D01*
G37*
X97545294Y-115765176D02*
X97351059Y-115765176D01*
X97351059Y-114853765D01*
X97545294Y-114853765D01*
X97545294Y-115765176D01*
G36*
X99144000Y-115765176D02*
G01*
X98949765Y-115765176D01*
X98949765Y-114853765D01*
X99144000Y-114853765D01*
X99144000Y-115765176D01*
G37*
X99144000Y-115765176D02*
X98949765Y-115765176D01*
X98949765Y-114853765D01*
X99144000Y-114853765D01*
X99144000Y-115765176D01*
G36*
X101564471Y-115765176D02*
G01*
X101370236Y-115765176D01*
X101370236Y-114375647D01*
X101564471Y-114375647D01*
X101564471Y-115765176D01*
G37*
X101564471Y-115765176D02*
X101370236Y-115765176D01*
X101370236Y-114375647D01*
X101564471Y-114375647D01*
X101564471Y-115765176D01*
G36*
X103902765Y-114861235D02*
G01*
X103906719Y-115313206D01*
X103910674Y-115765176D01*
X103701059Y-115765176D01*
X103701059Y-114852399D01*
X103902765Y-114861235D01*
G37*
X103902765Y-114861235D02*
X103906719Y-115313206D01*
X103910674Y-115765176D01*
X103701059Y-115765176D01*
X103701059Y-114852399D01*
X103902765Y-114861235D01*
G36*
X105090588Y-115765176D02*
G01*
X104840324Y-115764521D01*
X104720490Y-115762854D01*
X104629273Y-115758508D01*
X104565520Y-115751405D01*
X104533999Y-115743859D01*
X104440247Y-115695273D01*
X104363603Y-115624333D01*
X104306002Y-115534431D01*
X104269380Y-115428958D01*
X104255673Y-115311303D01*
X104256517Y-115282753D01*
X104458756Y-115282753D01*
X104460986Y-115371316D01*
X104479594Y-115452368D01*
X104509635Y-115510351D01*
X104542315Y-115545534D01*
X104583458Y-115570296D01*
X104638566Y-115586340D01*
X104713146Y-115595368D01*
X104795500Y-115598789D01*
X104896353Y-115600823D01*
X104896353Y-115034211D01*
X104832853Y-115017082D01*
X104745856Y-115005365D01*
X104661200Y-115015109D01*
X104585735Y-115044158D01*
X104526314Y-115090357D01*
X104503977Y-115120532D01*
X104473041Y-115196039D01*
X104458756Y-115282753D01*
X104256517Y-115282753D01*
X104257219Y-115259010D01*
X104278535Y-115140751D01*
X104322934Y-115038152D01*
X104387981Y-114953640D01*
X104471244Y-114889641D01*
X104570291Y-114848583D01*
X104682686Y-114832894D01*
X104684401Y-114832865D01*
X104746328Y-114833900D01*
X104805083Y-114838127D01*
X104840324Y-114843236D01*
X104896353Y-114855119D01*
X104896353Y-114375647D01*
X105090588Y-114375647D01*
X105090588Y-115765176D01*
G37*
X105090588Y-115765176D02*
X104840324Y-115764521D01*
X104720490Y-115762854D01*
X104629273Y-115758508D01*
X104565520Y-115751405D01*
X104533999Y-115743859D01*
X104440247Y-115695273D01*
X104363603Y-115624333D01*
X104306002Y-115534431D01*
X104269380Y-115428958D01*
X104255673Y-115311303D01*
X104256517Y-115282753D01*
X104458756Y-115282753D01*
X104460986Y-115371316D01*
X104479594Y-115452368D01*
X104509635Y-115510351D01*
X104542315Y-115545534D01*
X104583458Y-115570296D01*
X104638566Y-115586340D01*
X104713146Y-115595368D01*
X104795500Y-115598789D01*
X104896353Y-115600823D01*
X104896353Y-115034211D01*
X104832853Y-115017082D01*
X104745856Y-115005365D01*
X104661200Y-115015109D01*
X104585735Y-115044158D01*
X104526314Y-115090357D01*
X104503977Y-115120532D01*
X104473041Y-115196039D01*
X104458756Y-115282753D01*
X104256517Y-115282753D01*
X104257219Y-115259010D01*
X104278535Y-115140751D01*
X104322934Y-115038152D01*
X104387981Y-114953640D01*
X104471244Y-114889641D01*
X104570291Y-114848583D01*
X104682686Y-114832894D01*
X104684401Y-114832865D01*
X104746328Y-114833900D01*
X104805083Y-114838127D01*
X104840324Y-114843236D01*
X104896353Y-114855119D01*
X104896353Y-114375647D01*
X105090588Y-114375647D01*
X105090588Y-115765176D01*
G36*
X111087879Y-114858894D02*
G01*
X111116068Y-114873461D01*
X111166299Y-114910289D01*
X111212082Y-114955844D01*
X111228011Y-114976718D01*
X111268765Y-115038256D01*
X111278159Y-115765176D01*
X111082000Y-115765176D01*
X111082000Y-115468221D01*
X111081688Y-115353049D01*
X111080474Y-115263667D01*
X111077940Y-115195989D01*
X111073668Y-115145927D01*
X111067240Y-115109392D01*
X111058239Y-115082297D01*
X111046246Y-115060555D01*
X111039335Y-115050862D01*
X110998063Y-115019076D01*
X110940932Y-115004608D01*
X110876197Y-115007129D01*
X110812114Y-115026307D01*
X110756937Y-115061815D01*
X110756552Y-115062165D01*
X110708471Y-115106080D01*
X110708471Y-115765176D01*
X110499294Y-115765176D01*
X110499294Y-114853765D01*
X110708471Y-114853765D01*
X110708471Y-114948621D01*
X110742088Y-114917881D01*
X110820681Y-114864547D01*
X110908622Y-114836449D01*
X110999744Y-114834320D01*
X111087879Y-114858894D01*
G37*
X111087879Y-114858894D02*
X111116068Y-114873461D01*
X111166299Y-114910289D01*
X111212082Y-114955844D01*
X111228011Y-114976718D01*
X111268765Y-115038256D01*
X111278159Y-115765176D01*
X111082000Y-115765176D01*
X111082000Y-115468221D01*
X111081688Y-115353049D01*
X111080474Y-115263667D01*
X111077940Y-115195989D01*
X111073668Y-115145927D01*
X111067240Y-115109392D01*
X111058239Y-115082297D01*
X111046246Y-115060555D01*
X111039335Y-115050862D01*
X110998063Y-115019076D01*
X110940932Y-115004608D01*
X110876197Y-115007129D01*
X110812114Y-115026307D01*
X110756937Y-115061815D01*
X110756552Y-115062165D01*
X110708471Y-115106080D01*
X110708471Y-115765176D01*
X110499294Y-115765176D01*
X110499294Y-114853765D01*
X110708471Y-114853765D01*
X110708471Y-114948621D01*
X110742088Y-114917881D01*
X110820681Y-114864547D01*
X110908622Y-114836449D01*
X110999744Y-114834320D01*
X111087879Y-114858894D01*
G36*
X112680706Y-114665608D02*
G01*
X112683544Y-114764033D01*
X112686348Y-114835977D01*
X112689499Y-114884841D01*
X112693381Y-114914025D01*
X112698376Y-114926927D01*
X112704866Y-114926949D01*
X112709589Y-114922252D01*
X112764062Y-114877818D01*
X112836635Y-114848098D01*
X112918756Y-114834300D01*
X113001868Y-114837632D01*
X113077418Y-114859302D01*
X113094448Y-114867910D01*
X113138545Y-114895278D01*
X113173696Y-114924841D01*
X113200996Y-114960288D01*
X113221541Y-115005310D01*
X113236424Y-115063599D01*
X113246740Y-115138845D01*
X113253584Y-115234740D01*
X113258049Y-115354974D01*
X113259730Y-115425265D01*
X113266932Y-115765176D01*
X113054236Y-115765176D01*
X113054180Y-115440206D01*
X113053949Y-115332029D01*
X113053079Y-115249472D01*
X113051240Y-115188275D01*
X113048105Y-115144175D01*
X113043343Y-115112914D01*
X113036627Y-115090229D01*
X113027625Y-115071860D01*
X113025454Y-115068217D01*
X112981421Y-115021435D01*
X112924261Y-114998163D01*
X112859302Y-114998412D01*
X112791875Y-115022191D01*
X112729265Y-115067644D01*
X112680706Y-115113627D01*
X112680706Y-115765176D01*
X112471231Y-115765176D01*
X112475116Y-115074147D01*
X112479000Y-114383118D01*
X112673236Y-114383118D01*
X112680706Y-114665608D01*
G37*
X112680706Y-114665608D02*
X112683544Y-114764033D01*
X112686348Y-114835977D01*
X112689499Y-114884841D01*
X112693381Y-114914025D01*
X112698376Y-114926927D01*
X112704866Y-114926949D01*
X112709589Y-114922252D01*
X112764062Y-114877818D01*
X112836635Y-114848098D01*
X112918756Y-114834300D01*
X113001868Y-114837632D01*
X113077418Y-114859302D01*
X113094448Y-114867910D01*
X113138545Y-114895278D01*
X113173696Y-114924841D01*
X113200996Y-114960288D01*
X113221541Y-115005310D01*
X113236424Y-115063599D01*
X113246740Y-115138845D01*
X113253584Y-115234740D01*
X113258049Y-115354974D01*
X113259730Y-115425265D01*
X113266932Y-115765176D01*
X113054236Y-115765176D01*
X113054180Y-115440206D01*
X113053949Y-115332029D01*
X113053079Y-115249472D01*
X113051240Y-115188275D01*
X113048105Y-115144175D01*
X113043343Y-115112914D01*
X113036627Y-115090229D01*
X113027625Y-115071860D01*
X113025454Y-115068217D01*
X112981421Y-115021435D01*
X112924261Y-114998163D01*
X112859302Y-114998412D01*
X112791875Y-115022191D01*
X112729265Y-115067644D01*
X112680706Y-115113627D01*
X112680706Y-115765176D01*
X112471231Y-115765176D01*
X112475116Y-115074147D01*
X112479000Y-114383118D01*
X112673236Y-114383118D01*
X112680706Y-114665608D01*
G36*
X115859074Y-114850243D02*
G01*
X115871940Y-114852520D01*
X115873482Y-114868452D01*
X115874883Y-114910568D01*
X115876094Y-114975168D01*
X115877065Y-115058554D01*
X115877746Y-115157028D01*
X115878087Y-115266890D01*
X115878118Y-115311961D01*
X115878118Y-115765176D01*
X115683883Y-115765176D01*
X115683883Y-114856419D01*
X115774823Y-114851356D01*
X115823695Y-114849629D01*
X115859074Y-114850243D01*
G37*
X115859074Y-114850243D02*
X115871940Y-114852520D01*
X115873482Y-114868452D01*
X115874883Y-114910568D01*
X115876094Y-114975168D01*
X115877065Y-115058554D01*
X115877746Y-115157028D01*
X115878087Y-115266890D01*
X115878118Y-115311961D01*
X115878118Y-115765176D01*
X115683883Y-115765176D01*
X115683883Y-114856419D01*
X115774823Y-114851356D01*
X115823695Y-114849629D01*
X115859074Y-114850243D01*
G36*
X116772870Y-114850022D02*
G01*
X116853186Y-114851047D01*
X116915208Y-114852814D01*
X116955050Y-114855250D01*
X116968834Y-114858218D01*
X116961304Y-114876201D01*
X116941735Y-114910969D01*
X116918881Y-114947865D01*
X116889708Y-114993082D01*
X116848124Y-115057298D01*
X116798045Y-115134486D01*
X116743389Y-115218619D01*
X116688073Y-115303670D01*
X116636016Y-115383612D01*
X116591134Y-115452419D01*
X116557580Y-115503706D01*
X116508566Y-115578412D01*
X116742430Y-115585882D01*
X116976294Y-115593353D01*
X116980775Y-115679265D01*
X116985256Y-115765176D01*
X116572746Y-115765176D01*
X116446946Y-115764915D01*
X116348384Y-115764048D01*
X116274424Y-115762453D01*
X116222424Y-115760008D01*
X116189748Y-115756588D01*
X116173755Y-115752072D01*
X116171702Y-115746500D01*
X116182570Y-115729425D01*
X116207432Y-115690697D01*
X116244069Y-115633764D01*
X116290259Y-115562074D01*
X116343783Y-115479075D01*
X116402420Y-115388214D01*
X116405027Y-115384176D01*
X116626886Y-115040529D01*
X116401913Y-115036405D01*
X116176941Y-115032280D01*
X116176941Y-114854717D01*
X116572893Y-114850506D01*
X116678144Y-114849816D01*
X116772870Y-114850022D01*
G37*
X116772870Y-114850022D02*
X116853186Y-114851047D01*
X116915208Y-114852814D01*
X116955050Y-114855250D01*
X116968834Y-114858218D01*
X116961304Y-114876201D01*
X116941735Y-114910969D01*
X116918881Y-114947865D01*
X116889708Y-114993082D01*
X116848124Y-115057298D01*
X116798045Y-115134486D01*
X116743389Y-115218619D01*
X116688073Y-115303670D01*
X116636016Y-115383612D01*
X116591134Y-115452419D01*
X116557580Y-115503706D01*
X116508566Y-115578412D01*
X116742430Y-115585882D01*
X116976294Y-115593353D01*
X116980775Y-115679265D01*
X116985256Y-115765176D01*
X116572746Y-115765176D01*
X116446946Y-115764915D01*
X116348384Y-115764048D01*
X116274424Y-115762453D01*
X116222424Y-115760008D01*
X116189748Y-115756588D01*
X116173755Y-115752072D01*
X116171702Y-115746500D01*
X116182570Y-115729425D01*
X116207432Y-115690697D01*
X116244069Y-115633764D01*
X116290259Y-115562074D01*
X116343783Y-115479075D01*
X116402420Y-115388214D01*
X116405027Y-115384176D01*
X116626886Y-115040529D01*
X116401913Y-115036405D01*
X116176941Y-115032280D01*
X116176941Y-114854717D01*
X116572893Y-114850506D01*
X116678144Y-114849816D01*
X116772870Y-114850022D01*
G36*
X118903038Y-114839921D02*
G01*
X118914420Y-114844045D01*
X118965570Y-114867974D01*
X119012814Y-114896732D01*
X119022223Y-114903804D01*
X119066034Y-114938964D01*
X119026480Y-115004688D01*
X118994665Y-115057462D01*
X118973361Y-115088178D01*
X118956785Y-115099824D01*
X118939157Y-115095391D01*
X118914692Y-115077870D01*
X118902754Y-115068672D01*
X118835039Y-115031945D01*
X118768858Y-115024172D01*
X118707079Y-115044457D01*
X118652571Y-115091902D01*
X118610710Y-115160059D01*
X118600609Y-115185815D01*
X118593245Y-115216092D01*
X118588202Y-115255867D01*
X118585061Y-115310120D01*
X118583405Y-115383829D01*
X118582814Y-115481974D01*
X118582799Y-115492500D01*
X118582471Y-115765176D01*
X118388236Y-115765176D01*
X118388236Y-114853765D01*
X118582471Y-114853765D01*
X118582471Y-115020526D01*
X118658486Y-114937353D01*
X118723277Y-114875348D01*
X118782439Y-114839606D01*
X118840763Y-114828379D01*
X118903038Y-114839921D01*
G37*
X118903038Y-114839921D02*
X118914420Y-114844045D01*
X118965570Y-114867974D01*
X119012814Y-114896732D01*
X119022223Y-114903804D01*
X119066034Y-114938964D01*
X119026480Y-115004688D01*
X118994665Y-115057462D01*
X118973361Y-115088178D01*
X118956785Y-115099824D01*
X118939157Y-115095391D01*
X118914692Y-115077870D01*
X118902754Y-115068672D01*
X118835039Y-115031945D01*
X118768858Y-115024172D01*
X118707079Y-115044457D01*
X118652571Y-115091902D01*
X118610710Y-115160059D01*
X118600609Y-115185815D01*
X118593245Y-115216092D01*
X118588202Y-115255867D01*
X118585061Y-115310120D01*
X118583405Y-115383829D01*
X118582814Y-115481974D01*
X118582799Y-115492500D01*
X118582471Y-115765176D01*
X118388236Y-115765176D01*
X118388236Y-114853765D01*
X118582471Y-114853765D01*
X118582471Y-115020526D01*
X118658486Y-114937353D01*
X118723277Y-114875348D01*
X118782439Y-114839606D01*
X118840763Y-114828379D01*
X118903038Y-114839921D01*
G36*
X97520868Y-114496261D02*
G01*
X97551916Y-114532950D01*
X97560236Y-114578437D01*
X97551560Y-114621118D01*
X97530004Y-114660075D01*
X97502276Y-114685179D01*
X97486752Y-114689412D01*
X97460903Y-114694025D01*
X97453134Y-114696480D01*
X97425048Y-114695507D01*
X97403353Y-114687152D01*
X97357505Y-114648248D01*
X97336885Y-114599629D01*
X97342565Y-114547787D01*
X97372792Y-114501968D01*
X97420341Y-114471161D01*
X97471002Y-114469973D01*
X97520868Y-114496261D01*
G37*
X97520868Y-114496261D02*
X97551916Y-114532950D01*
X97560236Y-114578437D01*
X97551560Y-114621118D01*
X97530004Y-114660075D01*
X97502276Y-114685179D01*
X97486752Y-114689412D01*
X97460903Y-114694025D01*
X97453134Y-114696480D01*
X97425048Y-114695507D01*
X97403353Y-114687152D01*
X97357505Y-114648248D01*
X97336885Y-114599629D01*
X97342565Y-114547787D01*
X97372792Y-114501968D01*
X97420341Y-114471161D01*
X97471002Y-114469973D01*
X97520868Y-114496261D01*
G36*
X99079322Y-114472534D02*
G01*
X99118176Y-114496287D01*
X99145487Y-114535216D01*
X99157316Y-114582083D01*
X99149727Y-114629647D01*
X99133542Y-114656313D01*
X99091375Y-114687800D01*
X99042259Y-114697780D01*
X99002059Y-114686668D01*
X98957041Y-114646551D01*
X98936996Y-114598534D01*
X98940937Y-114549516D01*
X98967877Y-114506401D01*
X99016829Y-114476087D01*
X99032862Y-114471198D01*
X99079322Y-114472534D01*
G37*
X99079322Y-114472534D02*
X99118176Y-114496287D01*
X99145487Y-114535216D01*
X99157316Y-114582083D01*
X99149727Y-114629647D01*
X99133542Y-114656313D01*
X99091375Y-114687800D01*
X99042259Y-114697780D01*
X99002059Y-114686668D01*
X98957041Y-114646551D01*
X98936996Y-114598534D01*
X98940937Y-114549516D01*
X98967877Y-114506401D01*
X99016829Y-114476087D01*
X99032862Y-114471198D01*
X99079322Y-114472534D01*
G36*
X103869780Y-114492785D02*
G01*
X103909075Y-114537860D01*
X103910071Y-114539693D01*
X103919486Y-114584889D01*
X103905924Y-114630170D01*
X103875451Y-114668585D01*
X103834131Y-114693180D01*
X103788029Y-114697004D01*
X103775765Y-114693652D01*
X103727412Y-114664172D01*
X103697354Y-114621511D01*
X103688109Y-114573333D01*
X103702192Y-114527299D01*
X103715620Y-114510498D01*
X103765959Y-114478039D01*
X103819711Y-114472490D01*
X103869780Y-114492785D01*
G37*
X103869780Y-114492785D02*
X103909075Y-114537860D01*
X103910071Y-114539693D01*
X103919486Y-114584889D01*
X103905924Y-114630170D01*
X103875451Y-114668585D01*
X103834131Y-114693180D01*
X103788029Y-114697004D01*
X103775765Y-114693652D01*
X103727412Y-114664172D01*
X103697354Y-114621511D01*
X103688109Y-114573333D01*
X103702192Y-114527299D01*
X103715620Y-114510498D01*
X103765959Y-114478039D01*
X103819711Y-114472490D01*
X103869780Y-114492785D01*
G36*
X115826096Y-114478657D02*
G01*
X115865041Y-114512642D01*
X115889200Y-114558089D01*
X115893059Y-114584144D01*
X115884101Y-114623083D01*
X115862197Y-114660256D01*
X115834805Y-114684982D01*
X115819575Y-114689412D01*
X115793726Y-114694025D01*
X115785958Y-114696480D01*
X115757871Y-114695507D01*
X115736177Y-114687152D01*
X115689676Y-114648609D01*
X115669886Y-114597715D01*
X115668941Y-114581289D01*
X115681727Y-114535411D01*
X115713977Y-114494991D01*
X115756533Y-114469508D01*
X115781000Y-114465294D01*
X115826096Y-114478657D01*
G37*
X115826096Y-114478657D02*
X115865041Y-114512642D01*
X115889200Y-114558089D01*
X115893059Y-114584144D01*
X115884101Y-114623083D01*
X115862197Y-114660256D01*
X115834805Y-114684982D01*
X115819575Y-114689412D01*
X115793726Y-114694025D01*
X115785958Y-114696480D01*
X115757871Y-114695507D01*
X115736177Y-114687152D01*
X115689676Y-114648609D01*
X115669886Y-114597715D01*
X115668941Y-114581289D01*
X115681727Y-114535411D01*
X115713977Y-114494991D01*
X115756533Y-114469508D01*
X115781000Y-114465294D01*
X115826096Y-114478657D01*
G36*
X96943912Y-109269365D02*
G01*
X97717118Y-109273235D01*
X97721077Y-109718479D01*
X97722749Y-109853483D01*
X97725128Y-109965368D01*
X97728155Y-110052719D01*
X97731769Y-110114121D01*
X97735911Y-110148158D01*
X97739459Y-110154808D01*
X97776141Y-110138771D01*
X97834893Y-110120435D01*
X97908179Y-110101571D01*
X97988467Y-110083948D01*
X98068222Y-110069337D01*
X98139909Y-110059507D01*
X98149050Y-110058596D01*
X98368448Y-110051628D01*
X98578182Y-110072561D01*
X98777434Y-110121112D01*
X98965385Y-110196997D01*
X99141219Y-110299933D01*
X99304118Y-110429636D01*
X99352743Y-110476112D01*
X99481899Y-110622414D01*
X99587484Y-110781471D01*
X99672176Y-110957799D01*
X99722067Y-111099112D01*
X99735816Y-111145299D01*
X99746039Y-111185687D01*
X99753253Y-111225898D01*
X99757976Y-111271555D01*
X99760725Y-111328279D01*
X99762019Y-111401693D01*
X99762375Y-111497417D01*
X99762374Y-111536823D01*
X99761966Y-111645326D01*
X99760568Y-111729590D01*
X99757748Y-111795255D01*
X99753073Y-111847961D01*
X99746111Y-111893345D01*
X99736430Y-111937047D01*
X99729725Y-111962647D01*
X99668782Y-112136516D01*
X99582954Y-112307561D01*
X99476298Y-112470018D01*
X99352874Y-112618124D01*
X99216742Y-112746117D01*
X99133763Y-112808727D01*
X99003559Y-112885225D01*
X98851380Y-112952350D01*
X98684299Y-113007749D01*
X98509386Y-113049070D01*
X98337177Y-113073642D01*
X98297840Y-113075955D01*
X98231527Y-113078211D01*
X98141143Y-113080371D01*
X98029594Y-113082394D01*
X97899786Y-113084243D01*
X97754624Y-113085876D01*
X97597014Y-113087256D01*
X97429862Y-113088342D01*
X97256074Y-113089094D01*
X97182971Y-113089299D01*
X96170706Y-113091672D01*
X96170706Y-111311181D01*
X97724588Y-111311181D01*
X97724588Y-111977642D01*
X97885843Y-111968399D01*
X97956088Y-111963549D01*
X98018435Y-111957749D01*
X98064817Y-111951832D01*
X98083813Y-111947962D01*
X98147634Y-111915737D01*
X98205900Y-111864028D01*
X98247578Y-111802724D01*
X98248828Y-111800029D01*
X98266306Y-111746201D01*
X98275246Y-111676920D01*
X98277084Y-111614785D01*
X98270505Y-111507996D01*
X98248655Y-111423719D01*
X98209313Y-111357580D01*
X98150259Y-111305209D01*
X98106953Y-111279856D01*
X98066241Y-111262997D01*
X98022229Y-111255281D01*
X97963489Y-111255057D01*
X97942600Y-111256127D01*
X97879572Y-111262899D01*
X97820015Y-111274414D01*
X97780618Y-111286760D01*
X97724588Y-111311181D01*
X96170706Y-111311181D01*
X96170706Y-109265496D01*
X96943912Y-109269365D01*
G37*
X96943912Y-109269365D02*
X97717118Y-109273235D01*
X97721077Y-109718479D01*
X97722749Y-109853483D01*
X97725128Y-109965368D01*
X97728155Y-110052719D01*
X97731769Y-110114121D01*
X97735911Y-110148158D01*
X97739459Y-110154808D01*
X97776141Y-110138771D01*
X97834893Y-110120435D01*
X97908179Y-110101571D01*
X97988467Y-110083948D01*
X98068222Y-110069337D01*
X98139909Y-110059507D01*
X98149050Y-110058596D01*
X98368448Y-110051628D01*
X98578182Y-110072561D01*
X98777434Y-110121112D01*
X98965385Y-110196997D01*
X99141219Y-110299933D01*
X99304118Y-110429636D01*
X99352743Y-110476112D01*
X99481899Y-110622414D01*
X99587484Y-110781471D01*
X99672176Y-110957799D01*
X99722067Y-111099112D01*
X99735816Y-111145299D01*
X99746039Y-111185687D01*
X99753253Y-111225898D01*
X99757976Y-111271555D01*
X99760725Y-111328279D01*
X99762019Y-111401693D01*
X99762375Y-111497417D01*
X99762374Y-111536823D01*
X99761966Y-111645326D01*
X99760568Y-111729590D01*
X99757748Y-111795255D01*
X99753073Y-111847961D01*
X99746111Y-111893345D01*
X99736430Y-111937047D01*
X99729725Y-111962647D01*
X99668782Y-112136516D01*
X99582954Y-112307561D01*
X99476298Y-112470018D01*
X99352874Y-112618124D01*
X99216742Y-112746117D01*
X99133763Y-112808727D01*
X99003559Y-112885225D01*
X98851380Y-112952350D01*
X98684299Y-113007749D01*
X98509386Y-113049070D01*
X98337177Y-113073642D01*
X98297840Y-113075955D01*
X98231527Y-113078211D01*
X98141143Y-113080371D01*
X98029594Y-113082394D01*
X97899786Y-113084243D01*
X97754624Y-113085876D01*
X97597014Y-113087256D01*
X97429862Y-113088342D01*
X97256074Y-113089094D01*
X97182971Y-113089299D01*
X96170706Y-113091672D01*
X96170706Y-111311181D01*
X97724588Y-111311181D01*
X97724588Y-111977642D01*
X97885843Y-111968399D01*
X97956088Y-111963549D01*
X98018435Y-111957749D01*
X98064817Y-111951832D01*
X98083813Y-111947962D01*
X98147634Y-111915737D01*
X98205900Y-111864028D01*
X98247578Y-111802724D01*
X98248828Y-111800029D01*
X98266306Y-111746201D01*
X98275246Y-111676920D01*
X98277084Y-111614785D01*
X98270505Y-111507996D01*
X98248655Y-111423719D01*
X98209313Y-111357580D01*
X98150259Y-111305209D01*
X98106953Y-111279856D01*
X98066241Y-111262997D01*
X98022229Y-111255281D01*
X97963489Y-111255057D01*
X97942600Y-111256127D01*
X97879572Y-111262899D01*
X97820015Y-111274414D01*
X97780618Y-111286760D01*
X97724588Y-111311181D01*
X96170706Y-111311181D01*
X96170706Y-109265496D01*
X96943912Y-109269365D01*
G36*
X102306045Y-110072691D02*
G01*
X102548023Y-110073004D01*
X102761983Y-110073540D01*
X102948858Y-110074306D01*
X103109580Y-110075313D01*
X103245081Y-110076572D01*
X103356294Y-110078091D01*
X103444150Y-110079881D01*
X103509581Y-110081952D01*
X103553520Y-110084314D01*
X103576898Y-110086976D01*
X103581530Y-110089007D01*
X103574757Y-110109561D01*
X103556974Y-110147892D01*
X103531982Y-110195823D01*
X103531157Y-110197331D01*
X103512533Y-110231739D01*
X103481872Y-110288898D01*
X103441124Y-110365150D01*
X103392240Y-110456840D01*
X103337169Y-110560310D01*
X103277860Y-110671903D01*
X103219269Y-110782294D01*
X103158041Y-110897692D01*
X103099476Y-111007996D01*
X103045471Y-111109635D01*
X102997926Y-111199040D01*
X102958740Y-111272639D01*
X102929811Y-111326862D01*
X102913366Y-111357529D01*
X102888222Y-111404323D01*
X102853883Y-111468557D01*
X102815135Y-111541263D01*
X102781762Y-111604059D01*
X102737647Y-111687057D01*
X102688567Y-111779185D01*
X102641632Y-111867108D01*
X102615096Y-111916703D01*
X102583490Y-111975787D01*
X102557844Y-112023904D01*
X102540979Y-112055751D01*
X102535640Y-112066114D01*
X102549996Y-112066258D01*
X102590738Y-112066148D01*
X102654371Y-112065806D01*
X102737400Y-112065256D01*
X102836330Y-112064520D01*
X102947665Y-112063620D01*
X103024963Y-112062958D01*
X103144367Y-112062172D01*
X103255300Y-112061933D01*
X103353938Y-112062210D01*
X103436456Y-112062975D01*
X103499032Y-112064198D01*
X103537839Y-112065848D01*
X103548110Y-112067028D01*
X103581926Y-112075375D01*
X103577993Y-112579305D01*
X103574059Y-113083235D01*
X101964147Y-113087037D01*
X101701063Y-113087597D01*
X101466441Y-113087953D01*
X101258862Y-113088094D01*
X101076907Y-113088005D01*
X100919156Y-113087675D01*
X100784190Y-113087089D01*
X100670590Y-113086235D01*
X100576936Y-113085099D01*
X100501809Y-113083668D01*
X100443789Y-113081929D01*
X100401457Y-113079869D01*
X100373394Y-113077474D01*
X100358180Y-113074732D01*
X100354291Y-113072096D01*
X100361639Y-113047478D01*
X100379522Y-113012153D01*
X100382167Y-113007733D01*
X100394618Y-112985621D01*
X100419553Y-112939878D01*
X100455480Y-112873286D01*
X100500910Y-112788629D01*
X100554351Y-112688688D01*
X100614315Y-112576247D01*
X100679309Y-112454089D01*
X100747845Y-112324995D01*
X100750261Y-112320439D01*
X100837282Y-112156341D01*
X100911847Y-112015742D01*
X100975495Y-111895739D01*
X101029769Y-111793427D01*
X101076209Y-111705904D01*
X101116356Y-111630267D01*
X101151750Y-111563613D01*
X101183933Y-111503039D01*
X101214445Y-111445642D01*
X101244828Y-111388518D01*
X101273241Y-111335118D01*
X101308925Y-111268001D01*
X101345887Y-111198385D01*
X101377180Y-111139354D01*
X101382302Y-111129676D01*
X101427755Y-111043765D01*
X100488706Y-111043765D01*
X100488706Y-110072588D01*
X102035118Y-110072588D01*
X102306045Y-110072691D01*
G37*
X102306045Y-110072691D02*
X102548023Y-110073004D01*
X102761983Y-110073540D01*
X102948858Y-110074306D01*
X103109580Y-110075313D01*
X103245081Y-110076572D01*
X103356294Y-110078091D01*
X103444150Y-110079881D01*
X103509581Y-110081952D01*
X103553520Y-110084314D01*
X103576898Y-110086976D01*
X103581530Y-110089007D01*
X103574757Y-110109561D01*
X103556974Y-110147892D01*
X103531982Y-110195823D01*
X103531157Y-110197331D01*
X103512533Y-110231739D01*
X103481872Y-110288898D01*
X103441124Y-110365150D01*
X103392240Y-110456840D01*
X103337169Y-110560310D01*
X103277860Y-110671903D01*
X103219269Y-110782294D01*
X103158041Y-110897692D01*
X103099476Y-111007996D01*
X103045471Y-111109635D01*
X102997926Y-111199040D01*
X102958740Y-111272639D01*
X102929811Y-111326862D01*
X102913366Y-111357529D01*
X102888222Y-111404323D01*
X102853883Y-111468557D01*
X102815135Y-111541263D01*
X102781762Y-111604059D01*
X102737647Y-111687057D01*
X102688567Y-111779185D01*
X102641632Y-111867108D01*
X102615096Y-111916703D01*
X102583490Y-111975787D01*
X102557844Y-112023904D01*
X102540979Y-112055751D01*
X102535640Y-112066114D01*
X102549996Y-112066258D01*
X102590738Y-112066148D01*
X102654371Y-112065806D01*
X102737400Y-112065256D01*
X102836330Y-112064520D01*
X102947665Y-112063620D01*
X103024963Y-112062958D01*
X103144367Y-112062172D01*
X103255300Y-112061933D01*
X103353938Y-112062210D01*
X103436456Y-112062975D01*
X103499032Y-112064198D01*
X103537839Y-112065848D01*
X103548110Y-112067028D01*
X103581926Y-112075375D01*
X103577993Y-112579305D01*
X103574059Y-113083235D01*
X101964147Y-113087037D01*
X101701063Y-113087597D01*
X101466441Y-113087953D01*
X101258862Y-113088094D01*
X101076907Y-113088005D01*
X100919156Y-113087675D01*
X100784190Y-113087089D01*
X100670590Y-113086235D01*
X100576936Y-113085099D01*
X100501809Y-113083668D01*
X100443789Y-113081929D01*
X100401457Y-113079869D01*
X100373394Y-113077474D01*
X100358180Y-113074732D01*
X100354291Y-113072096D01*
X100361639Y-113047478D01*
X100379522Y-113012153D01*
X100382167Y-113007733D01*
X100394618Y-112985621D01*
X100419553Y-112939878D01*
X100455480Y-112873286D01*
X100500910Y-112788629D01*
X100554351Y-112688688D01*
X100614315Y-112576247D01*
X100679309Y-112454089D01*
X100747845Y-112324995D01*
X100750261Y-112320439D01*
X100837282Y-112156341D01*
X100911847Y-112015742D01*
X100975495Y-111895739D01*
X101029769Y-111793427D01*
X101076209Y-111705904D01*
X101116356Y-111630267D01*
X101151750Y-111563613D01*
X101183933Y-111503039D01*
X101214445Y-111445642D01*
X101244828Y-111388518D01*
X101273241Y-111335118D01*
X101308925Y-111268001D01*
X101345887Y-111198385D01*
X101377180Y-111139354D01*
X101382302Y-111129676D01*
X101427755Y-111043765D01*
X100488706Y-111043765D01*
X100488706Y-110072588D01*
X102035118Y-110072588D01*
X102306045Y-110072691D01*
G36*
X106019088Y-110072671D02*
G01*
X106254057Y-110072930D01*
X106461610Y-110073379D01*
X106642982Y-110074030D01*
X106799405Y-110074899D01*
X106932113Y-110076000D01*
X107042339Y-110077345D01*
X107131316Y-110078950D01*
X107200279Y-110080827D01*
X107250459Y-110082991D01*
X107283091Y-110085456D01*
X107299408Y-110088235D01*
X107301883Y-110090003D01*
X107295179Y-110109493D01*
X107276983Y-110149186D01*
X107250168Y-110203082D01*
X107221403Y-110258091D01*
X107180445Y-110334854D01*
X107136486Y-110417373D01*
X107096187Y-110493138D01*
X107077520Y-110528294D01*
X107041389Y-110596220D01*
X107003390Y-110667353D01*
X106970752Y-110728169D01*
X106965737Y-110737471D01*
X106945760Y-110774701D01*
X106914188Y-110833806D01*
X106873430Y-110910263D01*
X106825895Y-110999548D01*
X106773993Y-111097139D01*
X106721874Y-111195237D01*
X106668384Y-111295912D01*
X106617241Y-111392072D01*
X106570785Y-111479327D01*
X106531352Y-111553289D01*
X106501281Y-111609570D01*
X106483077Y-111643472D01*
X106458842Y-111688603D01*
X106425185Y-111751689D01*
X106386620Y-111824250D01*
X106348928Y-111895412D01*
X106258091Y-112067235D01*
X107294412Y-112067235D01*
X107294412Y-113083235D01*
X105684500Y-113087037D01*
X105397762Y-113087594D01*
X105140453Y-113087836D01*
X104912123Y-113087760D01*
X104712320Y-113087364D01*
X104540595Y-113086643D01*
X104396494Y-113085595D01*
X104279568Y-113084217D01*
X104189366Y-113082504D01*
X104125436Y-113080454D01*
X104087327Y-113078064D01*
X104074589Y-113075330D01*
X104074588Y-113075306D01*
X104081938Y-113051779D01*
X104095377Y-113026680D01*
X104106904Y-113006297D01*
X104130702Y-112962619D01*
X104165093Y-112898781D01*
X104208401Y-112817915D01*
X104258947Y-112723154D01*
X104315053Y-112617632D01*
X104375044Y-112504482D01*
X104381091Y-112493059D01*
X104443257Y-112375628D01*
X104503275Y-112262293D01*
X104559169Y-112156783D01*
X104608963Y-112062827D01*
X104650680Y-111984154D01*
X104682344Y-111924493D01*
X104701783Y-111887941D01*
X104734904Y-111825753D01*
X104775062Y-111750250D01*
X104815299Y-111674516D01*
X104828905Y-111648882D01*
X104890674Y-111532529D01*
X104941120Y-111437639D01*
X104982887Y-111359257D01*
X105018620Y-111292429D01*
X105050964Y-111232202D01*
X105082564Y-111173622D01*
X105086127Y-111167029D01*
X105152773Y-111043765D01*
X104209059Y-111043765D01*
X104209059Y-110072588D01*
X105755471Y-110072588D01*
X106019088Y-110072671D01*
G37*
X106019088Y-110072671D02*
X106254057Y-110072930D01*
X106461610Y-110073379D01*
X106642982Y-110074030D01*
X106799405Y-110074899D01*
X106932113Y-110076000D01*
X107042339Y-110077345D01*
X107131316Y-110078950D01*
X107200279Y-110080827D01*
X107250459Y-110082991D01*
X107283091Y-110085456D01*
X107299408Y-110088235D01*
X107301883Y-110090003D01*
X107295179Y-110109493D01*
X107276983Y-110149186D01*
X107250168Y-110203082D01*
X107221403Y-110258091D01*
X107180445Y-110334854D01*
X107136486Y-110417373D01*
X107096187Y-110493138D01*
X107077520Y-110528294D01*
X107041389Y-110596220D01*
X107003390Y-110667353D01*
X106970752Y-110728169D01*
X106965737Y-110737471D01*
X106945760Y-110774701D01*
X106914188Y-110833806D01*
X106873430Y-110910263D01*
X106825895Y-110999548D01*
X106773993Y-111097139D01*
X106721874Y-111195237D01*
X106668384Y-111295912D01*
X106617241Y-111392072D01*
X106570785Y-111479327D01*
X106531352Y-111553289D01*
X106501281Y-111609570D01*
X106483077Y-111643472D01*
X106458842Y-111688603D01*
X106425185Y-111751689D01*
X106386620Y-111824250D01*
X106348928Y-111895412D01*
X106258091Y-112067235D01*
X107294412Y-112067235D01*
X107294412Y-113083235D01*
X105684500Y-113087037D01*
X105397762Y-113087594D01*
X105140453Y-113087836D01*
X104912123Y-113087760D01*
X104712320Y-113087364D01*
X104540595Y-113086643D01*
X104396494Y-113085595D01*
X104279568Y-113084217D01*
X104189366Y-113082504D01*
X104125436Y-113080454D01*
X104087327Y-113078064D01*
X104074589Y-113075330D01*
X104074588Y-113075306D01*
X104081938Y-113051779D01*
X104095377Y-113026680D01*
X104106904Y-113006297D01*
X104130702Y-112962619D01*
X104165093Y-112898781D01*
X104208401Y-112817915D01*
X104258947Y-112723154D01*
X104315053Y-112617632D01*
X104375044Y-112504482D01*
X104381091Y-112493059D01*
X104443257Y-112375628D01*
X104503275Y-112262293D01*
X104559169Y-112156783D01*
X104608963Y-112062827D01*
X104650680Y-111984154D01*
X104682344Y-111924493D01*
X104701783Y-111887941D01*
X104734904Y-111825753D01*
X104775062Y-111750250D01*
X104815299Y-111674516D01*
X104828905Y-111648882D01*
X104890674Y-111532529D01*
X104941120Y-111437639D01*
X104982887Y-111359257D01*
X105018620Y-111292429D01*
X105050964Y-111232202D01*
X105082564Y-111173622D01*
X105086127Y-111167029D01*
X105152773Y-111043765D01*
X104209059Y-111043765D01*
X104209059Y-110072588D01*
X105755471Y-110072588D01*
X106019088Y-110072671D01*
G36*
X109696028Y-110072631D02*
G01*
X109900159Y-110072755D01*
X110093727Y-110072955D01*
X110274770Y-110073224D01*
X110441327Y-110073558D01*
X110591435Y-110073951D01*
X110723134Y-110074396D01*
X110834462Y-110074888D01*
X110923458Y-110075422D01*
X110988160Y-110075992D01*
X111026606Y-110076591D01*
X111037177Y-110077119D01*
X111030418Y-110090918D01*
X111011270Y-110127863D01*
X110981424Y-110184746D01*
X110942573Y-110258357D01*
X110896408Y-110345487D01*
X110844620Y-110442925D01*
X110818623Y-110491737D01*
X110684922Y-110742667D01*
X110564802Y-110968232D01*
X110457745Y-111169415D01*
X110363230Y-111347197D01*
X110280740Y-111502561D01*
X110209755Y-111636489D01*
X110149756Y-111749963D01*
X110100223Y-111843964D01*
X110060638Y-111919474D01*
X110030482Y-111977477D01*
X110009235Y-112018953D01*
X109996378Y-112044885D01*
X109991393Y-112056254D01*
X109991291Y-112056803D01*
X110005661Y-112059255D01*
X110046496Y-112061502D01*
X110110377Y-112063475D01*
X110193886Y-112065102D01*
X110293606Y-112066316D01*
X110406118Y-112067046D01*
X110503026Y-112067235D01*
X111014765Y-112067235D01*
X111014765Y-113083235D01*
X109404853Y-113087037D01*
X109188248Y-113087457D01*
X108980211Y-113087682D01*
X108782668Y-113087718D01*
X108597546Y-113087573D01*
X108426773Y-113087256D01*
X108272276Y-113086773D01*
X108135982Y-113086133D01*
X108019817Y-113085342D01*
X107925709Y-113084408D01*
X107855585Y-113083338D01*
X107811372Y-113082141D01*
X107794997Y-113080824D01*
X107794941Y-113080740D01*
X107801668Y-113065143D01*
X107820486Y-113027185D01*
X107849356Y-112970836D01*
X107886235Y-112900063D01*
X107929082Y-112818836D01*
X107946754Y-112785585D01*
X107995376Y-112694285D01*
X108042746Y-112605334D01*
X108085811Y-112524461D01*
X108121522Y-112457395D01*
X108146827Y-112409867D01*
X108150263Y-112403412D01*
X108185340Y-112337694D01*
X108223545Y-112266378D01*
X108250284Y-112216647D01*
X108275829Y-112168961D01*
X108310901Y-112103086D01*
X108351115Y-112027279D01*
X108392084Y-111949796D01*
X108397129Y-111940235D01*
X108432461Y-111873343D01*
X108478457Y-111786397D01*
X108531760Y-111685731D01*
X108589014Y-111577683D01*
X108646865Y-111468587D01*
X108682009Y-111402353D01*
X108868369Y-111051235D01*
X108398890Y-111047290D01*
X107929412Y-111043345D01*
X107929412Y-110072588D01*
X109483294Y-110072588D01*
X109696028Y-110072631D01*
G37*
X109696028Y-110072631D02*
X109900159Y-110072755D01*
X110093727Y-110072955D01*
X110274770Y-110073224D01*
X110441327Y-110073558D01*
X110591435Y-110073951D01*
X110723134Y-110074396D01*
X110834462Y-110074888D01*
X110923458Y-110075422D01*
X110988160Y-110075992D01*
X111026606Y-110076591D01*
X111037177Y-110077119D01*
X111030418Y-110090918D01*
X111011270Y-110127863D01*
X110981424Y-110184746D01*
X110942573Y-110258357D01*
X110896408Y-110345487D01*
X110844620Y-110442925D01*
X110818623Y-110491737D01*
X110684922Y-110742667D01*
X110564802Y-110968232D01*
X110457745Y-111169415D01*
X110363230Y-111347197D01*
X110280740Y-111502561D01*
X110209755Y-111636489D01*
X110149756Y-111749963D01*
X110100223Y-111843964D01*
X110060638Y-111919474D01*
X110030482Y-111977477D01*
X110009235Y-112018953D01*
X109996378Y-112044885D01*
X109991393Y-112056254D01*
X109991291Y-112056803D01*
X110005661Y-112059255D01*
X110046496Y-112061502D01*
X110110377Y-112063475D01*
X110193886Y-112065102D01*
X110293606Y-112066316D01*
X110406118Y-112067046D01*
X110503026Y-112067235D01*
X111014765Y-112067235D01*
X111014765Y-113083235D01*
X109404853Y-113087037D01*
X109188248Y-113087457D01*
X108980211Y-113087682D01*
X108782668Y-113087718D01*
X108597546Y-113087573D01*
X108426773Y-113087256D01*
X108272276Y-113086773D01*
X108135982Y-113086133D01*
X108019817Y-113085342D01*
X107925709Y-113084408D01*
X107855585Y-113083338D01*
X107811372Y-113082141D01*
X107794997Y-113080824D01*
X107794941Y-113080740D01*
X107801668Y-113065143D01*
X107820486Y-113027185D01*
X107849356Y-112970836D01*
X107886235Y-112900063D01*
X107929082Y-112818836D01*
X107946754Y-112785585D01*
X107995376Y-112694285D01*
X108042746Y-112605334D01*
X108085811Y-112524461D01*
X108121522Y-112457395D01*
X108146827Y-112409867D01*
X108150263Y-112403412D01*
X108185340Y-112337694D01*
X108223545Y-112266378D01*
X108250284Y-112216647D01*
X108275829Y-112168961D01*
X108310901Y-112103086D01*
X108351115Y-112027279D01*
X108392084Y-111949796D01*
X108397129Y-111940235D01*
X108432461Y-111873343D01*
X108478457Y-111786397D01*
X108531760Y-111685731D01*
X108589014Y-111577683D01*
X108646865Y-111468587D01*
X108682009Y-111402353D01*
X108868369Y-111051235D01*
X108398890Y-111047290D01*
X107929412Y-111043345D01*
X107929412Y-110072588D01*
X109483294Y-110072588D01*
X109696028Y-110072631D01*
G36*
X112527559Y-109269365D02*
G01*
X113300765Y-109273235D01*
X113304723Y-109718142D01*
X113305946Y-109845086D01*
X113307239Y-109945180D01*
X113308812Y-110021455D01*
X113310875Y-110076942D01*
X113313639Y-110114672D01*
X113317313Y-110137678D01*
X113322107Y-110148991D01*
X113328232Y-110151641D01*
X113334606Y-110149367D01*
X113380596Y-110130887D01*
X113448184Y-110110991D01*
X113529266Y-110091556D01*
X113615740Y-110074459D01*
X113699502Y-110061575D01*
X113727883Y-110058283D01*
X113864977Y-110051401D01*
X114012832Y-110056548D01*
X114158918Y-110072751D01*
X114290709Y-110099036D01*
X114306606Y-110103271D01*
X114482907Y-110166397D01*
X114653793Y-110255475D01*
X114813330Y-110366582D01*
X114955586Y-110495793D01*
X115032814Y-110583661D01*
X115150489Y-110751250D01*
X115241025Y-110926900D01*
X115305263Y-111113097D01*
X115344045Y-111312323D01*
X115358214Y-111527066D01*
X115358308Y-111544294D01*
X115346819Y-111757450D01*
X115311009Y-111955180D01*
X115249800Y-112140835D01*
X115162115Y-112317767D01*
X115060474Y-112471237D01*
X114927027Y-112628135D01*
X114776957Y-112761235D01*
X114609618Y-112870863D01*
X114424361Y-112957345D01*
X114220538Y-113021005D01*
X113997501Y-113062168D01*
X113855468Y-113076116D01*
X113805360Y-113078533D01*
X113728611Y-113080829D01*
X113628461Y-113082963D01*
X113508152Y-113084898D01*
X113370925Y-113086592D01*
X113220020Y-113088006D01*
X113058680Y-113089100D01*
X112890144Y-113089836D01*
X112717654Y-113090172D01*
X112706853Y-113090178D01*
X111754353Y-113090706D01*
X111754353Y-111311181D01*
X113308236Y-111311181D01*
X113308236Y-111977817D01*
X113480664Y-111967648D01*
X113572393Y-111960483D01*
X113639706Y-111950848D01*
X113688030Y-111937817D01*
X113708517Y-111928849D01*
X113751018Y-111898706D01*
X113793749Y-111855964D01*
X113808765Y-111836765D01*
X113828608Y-111807163D01*
X113841521Y-111780777D01*
X113848991Y-111750148D01*
X113852501Y-111707817D01*
X113853535Y-111646324D01*
X113853588Y-111611529D01*
X113853177Y-111539363D01*
X113850942Y-111489586D01*
X113845379Y-111454707D01*
X113834984Y-111427235D01*
X113818254Y-111399678D01*
X113808143Y-111385090D01*
X113768693Y-111339111D01*
X113722122Y-111298464D01*
X113703555Y-111286130D01*
X113666966Y-111267825D01*
X113630310Y-111258230D01*
X113582905Y-111255527D01*
X113532353Y-111256998D01*
X113468231Y-111262959D01*
X113407844Y-111273621D01*
X113364265Y-111286673D01*
X113308236Y-111311181D01*
X111754353Y-111311181D01*
X111754353Y-109265496D01*
X112527559Y-109269365D01*
G37*
X112527559Y-109269365D02*
X113300765Y-109273235D01*
X113304723Y-109718142D01*
X113305946Y-109845086D01*
X113307239Y-109945180D01*
X113308812Y-110021455D01*
X113310875Y-110076942D01*
X113313639Y-110114672D01*
X113317313Y-110137678D01*
X113322107Y-110148991D01*
X113328232Y-110151641D01*
X113334606Y-110149367D01*
X113380596Y-110130887D01*
X113448184Y-110110991D01*
X113529266Y-110091556D01*
X113615740Y-110074459D01*
X113699502Y-110061575D01*
X113727883Y-110058283D01*
X113864977Y-110051401D01*
X114012832Y-110056548D01*
X114158918Y-110072751D01*
X114290709Y-110099036D01*
X114306606Y-110103271D01*
X114482907Y-110166397D01*
X114653793Y-110255475D01*
X114813330Y-110366582D01*
X114955586Y-110495793D01*
X115032814Y-110583661D01*
X115150489Y-110751250D01*
X115241025Y-110926900D01*
X115305263Y-111113097D01*
X115344045Y-111312323D01*
X115358214Y-111527066D01*
X115358308Y-111544294D01*
X115346819Y-111757450D01*
X115311009Y-111955180D01*
X115249800Y-112140835D01*
X115162115Y-112317767D01*
X115060474Y-112471237D01*
X114927027Y-112628135D01*
X114776957Y-112761235D01*
X114609618Y-112870863D01*
X114424361Y-112957345D01*
X114220538Y-113021005D01*
X113997501Y-113062168D01*
X113855468Y-113076116D01*
X113805360Y-113078533D01*
X113728611Y-113080829D01*
X113628461Y-113082963D01*
X113508152Y-113084898D01*
X113370925Y-113086592D01*
X113220020Y-113088006D01*
X113058680Y-113089100D01*
X112890144Y-113089836D01*
X112717654Y-113090172D01*
X112706853Y-113090178D01*
X111754353Y-113090706D01*
X111754353Y-111311181D01*
X113308236Y-111311181D01*
X113308236Y-111977817D01*
X113480664Y-111967648D01*
X113572393Y-111960483D01*
X113639706Y-111950848D01*
X113688030Y-111937817D01*
X113708517Y-111928849D01*
X113751018Y-111898706D01*
X113793749Y-111855964D01*
X113808765Y-111836765D01*
X113828608Y-111807163D01*
X113841521Y-111780777D01*
X113848991Y-111750148D01*
X113852501Y-111707817D01*
X113853535Y-111646324D01*
X113853588Y-111611529D01*
X113853177Y-111539363D01*
X113850942Y-111489586D01*
X113845379Y-111454707D01*
X113834984Y-111427235D01*
X113818254Y-111399678D01*
X113808143Y-111385090D01*
X113768693Y-111339111D01*
X113722122Y-111298464D01*
X113703555Y-111286130D01*
X113666966Y-111267825D01*
X113630310Y-111258230D01*
X113582905Y-111255527D01*
X113532353Y-111256998D01*
X113468231Y-111262959D01*
X113407844Y-111273621D01*
X113364265Y-111286673D01*
X113308236Y-111311181D01*
X111754353Y-111311181D01*
X111754353Y-109265496D01*
X112527559Y-109269365D01*
G36*
X117894410Y-110072729D02*
G01*
X118144255Y-110073151D01*
X118367865Y-110073847D01*
X118564810Y-110074816D01*
X118734657Y-110076052D01*
X118876973Y-110077551D01*
X118991327Y-110079310D01*
X119077287Y-110081323D01*
X119134419Y-110083588D01*
X119162293Y-110086100D01*
X119165177Y-110087282D01*
X119158289Y-110104032D01*
X119138542Y-110144441D01*
X119107304Y-110205891D01*
X119065946Y-110285767D01*
X119015840Y-110381450D01*
X118958355Y-110490323D01*
X118894863Y-110609769D01*
X118826734Y-110737172D01*
X118755338Y-110869914D01*
X118754245Y-110871941D01*
X118723454Y-110929249D01*
X118685915Y-110999450D01*
X118648852Y-111069024D01*
X118642428Y-111081118D01*
X118548422Y-111258181D01*
X118467400Y-111410754D01*
X118398346Y-111540744D01*
X118340244Y-111650062D01*
X118292077Y-111740614D01*
X118252828Y-111814311D01*
X118221481Y-111873061D01*
X118197020Y-111918772D01*
X118178428Y-111953353D01*
X118164688Y-111978713D01*
X118154785Y-111996761D01*
X118154766Y-111996795D01*
X118134272Y-112034381D01*
X118121458Y-112059020D01*
X118119291Y-112064030D01*
X118133666Y-112064778D01*
X118174530Y-112065464D01*
X118238489Y-112066068D01*
X118322151Y-112066567D01*
X118422122Y-112066942D01*
X118535010Y-112067171D01*
X118638497Y-112067235D01*
X119157706Y-112067235D01*
X119157706Y-113083235D01*
X117547794Y-113087037D01*
X117272624Y-113087554D01*
X117021414Y-113087751D01*
X116794769Y-113087632D01*
X116593294Y-113087201D01*
X116417596Y-113086463D01*
X116268279Y-113085420D01*
X116145948Y-113084079D01*
X116051210Y-113082441D01*
X115984670Y-113080512D01*
X115946933Y-113078295D01*
X115937883Y-113076368D01*
X115944827Y-113059848D01*
X115965041Y-113018803D01*
X115997594Y-112955004D01*
X116041559Y-112870220D01*
X116096005Y-112766219D01*
X116160004Y-112644772D01*
X116232625Y-112507648D01*
X116312941Y-112356617D01*
X116400022Y-112193448D01*
X116479581Y-112044823D01*
X116503557Y-111999933D01*
X116539181Y-111933014D01*
X116584124Y-111848452D01*
X116636059Y-111750630D01*
X116692658Y-111643934D01*
X116751591Y-111532748D01*
X116779112Y-111480794D01*
X117010568Y-111043765D01*
X116072353Y-111043765D01*
X116072353Y-110072588D01*
X117618765Y-110072588D01*
X117894410Y-110072729D01*
G37*
X117894410Y-110072729D02*
X118144255Y-110073151D01*
X118367865Y-110073847D01*
X118564810Y-110074816D01*
X118734657Y-110076052D01*
X118876973Y-110077551D01*
X118991327Y-110079310D01*
X119077287Y-110081323D01*
X119134419Y-110083588D01*
X119162293Y-110086100D01*
X119165177Y-110087282D01*
X119158289Y-110104032D01*
X119138542Y-110144441D01*
X119107304Y-110205891D01*
X119065946Y-110285767D01*
X119015840Y-110381450D01*
X118958355Y-110490323D01*
X118894863Y-110609769D01*
X118826734Y-110737172D01*
X118755338Y-110869914D01*
X118754245Y-110871941D01*
X118723454Y-110929249D01*
X118685915Y-110999450D01*
X118648852Y-111069024D01*
X118642428Y-111081118D01*
X118548422Y-111258181D01*
X118467400Y-111410754D01*
X118398346Y-111540744D01*
X118340244Y-111650062D01*
X118292077Y-111740614D01*
X118252828Y-111814311D01*
X118221481Y-111873061D01*
X118197020Y-111918772D01*
X118178428Y-111953353D01*
X118164688Y-111978713D01*
X118154785Y-111996761D01*
X118154766Y-111996795D01*
X118134272Y-112034381D01*
X118121458Y-112059020D01*
X118119291Y-112064030D01*
X118133666Y-112064778D01*
X118174530Y-112065464D01*
X118238489Y-112066068D01*
X118322151Y-112066567D01*
X118422122Y-112066942D01*
X118535010Y-112067171D01*
X118638497Y-112067235D01*
X119157706Y-112067235D01*
X119157706Y-113083235D01*
X117547794Y-113087037D01*
X117272624Y-113087554D01*
X117021414Y-113087751D01*
X116794769Y-113087632D01*
X116593294Y-113087201D01*
X116417596Y-113086463D01*
X116268279Y-113085420D01*
X116145948Y-113084079D01*
X116051210Y-113082441D01*
X115984670Y-113080512D01*
X115946933Y-113078295D01*
X115937883Y-113076368D01*
X115944827Y-113059848D01*
X115965041Y-113018803D01*
X115997594Y-112955004D01*
X116041559Y-112870220D01*
X116096005Y-112766219D01*
X116160004Y-112644772D01*
X116232625Y-112507648D01*
X116312941Y-112356617D01*
X116400022Y-112193448D01*
X116479581Y-112044823D01*
X116503557Y-111999933D01*
X116539181Y-111933014D01*
X116584124Y-111848452D01*
X116636059Y-111750630D01*
X116692658Y-111643934D01*
X116751591Y-111532748D01*
X116779112Y-111480794D01*
X117010568Y-111043765D01*
X116072353Y-111043765D01*
X116072353Y-110072588D01*
X117618765Y-110072588D01*
X117894410Y-110072729D01*
D13*
%TO.C,J6*%
X205590000Y-87530000D02*
X205590000Y-84870000D01*
X157270000Y-87530000D02*
X205590000Y-87530000D01*
X157270000Y-84870000D02*
X205590000Y-84870000D01*
X157270000Y-87530000D02*
X157270000Y-84870000D01*
X156000000Y-87530000D02*
X154670000Y-87530000D01*
X154670000Y-87530000D02*
X154670000Y-86200000D01*
X211900000Y-88850000D02*
X211900000Y-45400000D01*
X148350000Y-45400000D02*
X148350000Y-88850000D01*
X148350000Y-88850000D02*
X211900000Y-88850000D01*
%TO.C,RV1*%
X88330000Y-69120000D02*
X88330000Y-64454000D01*
X88330000Y-60545000D02*
X88330000Y-57530000D01*
X100670000Y-69120000D02*
X100670000Y-64454000D01*
X100670000Y-60545000D02*
X100670000Y-57530000D01*
X88330000Y-69120000D02*
X91129000Y-69120000D01*
X92871000Y-69120000D02*
X93630000Y-69120000D01*
X95371000Y-69120000D02*
X96130000Y-69120000D01*
X97870000Y-69120000D02*
X100670000Y-69120000D01*
X88330000Y-57530000D02*
X100670000Y-57530000D01*
%TO.C,RV4*%
X88330000Y-94120000D02*
X88330000Y-89454000D01*
X88330000Y-85545000D02*
X88330000Y-82530000D01*
X100670000Y-94120000D02*
X100670000Y-89454000D01*
X100670000Y-85545000D02*
X100670000Y-82530000D01*
X88330000Y-94120000D02*
X91129000Y-94120000D01*
X92871000Y-94120000D02*
X93630000Y-94120000D01*
X95371000Y-94120000D02*
X96130000Y-94120000D01*
X97870000Y-94120000D02*
X100670000Y-94120000D01*
X88330000Y-82530000D02*
X100670000Y-82530000D01*
%TO.C,RV3*%
X113330000Y-94120000D02*
X113330000Y-89454000D01*
X113330000Y-85545000D02*
X113330000Y-82530000D01*
X125670000Y-94120000D02*
X125670000Y-89454000D01*
X125670000Y-85545000D02*
X125670000Y-82530000D01*
X113330000Y-94120000D02*
X116129000Y-94120000D01*
X117871000Y-94120000D02*
X118630000Y-94120000D01*
X120371000Y-94120000D02*
X121130000Y-94120000D01*
X122870000Y-94120000D02*
X125670000Y-94120000D01*
X113330000Y-82530000D02*
X125670000Y-82530000D01*
%TO.C,RV2*%
X113330000Y-69120000D02*
X113330000Y-64454000D01*
X113330000Y-60545000D02*
X113330000Y-57530000D01*
X125670000Y-69120000D02*
X125670000Y-64454000D01*
X125670000Y-60545000D02*
X125670000Y-57530000D01*
X113330000Y-69120000D02*
X116129000Y-69120000D01*
X117871000Y-69120000D02*
X118630000Y-69120000D01*
X120371000Y-69120000D02*
X121130000Y-69120000D01*
X122870000Y-69120000D02*
X125670000Y-69120000D01*
X113330000Y-57530000D02*
X125670000Y-57530000D01*
%TO.C,SW3*%
X154600000Y-90350000D02*
X154600000Y-93070000D01*
X154600000Y-99930000D02*
X154600000Y-102650000D01*
X142300000Y-98070000D02*
X142300000Y-94930000D01*
X142300000Y-102650000D02*
X142300000Y-99930000D01*
X153129050Y-96540000D02*
G75*
G03*
X153129050Y-96540000I-4579050J0D01*
G01*
X142300000Y-93070000D02*
X142300000Y-90350000D01*
X154600000Y-102650000D02*
X142300000Y-102650000D01*
X154600000Y-94930000D02*
X154600000Y-98070000D01*
X142300000Y-90350000D02*
X154600000Y-90350000D01*
%TO.C,SW2*%
X173550000Y-110700000D02*
X173550000Y-117300000D01*
X176650000Y-120450000D02*
X183300000Y-120450000D01*
X186400000Y-117350000D02*
X186400000Y-110700000D01*
X183300000Y-107600000D02*
X176650000Y-107600000D01*
X173550000Y-110700000D02*
G75*
G02*
X176650000Y-107600000I3100000J0D01*
G01*
X183300000Y-107600000D02*
G75*
G02*
X186400000Y-110700000I0J-3100000D01*
G01*
X186400000Y-117350000D02*
G75*
G02*
X183300000Y-120450000I-3100000J0D01*
G01*
X176650000Y-120450000D02*
G75*
G02*
X173550000Y-117350000I0J3100000D01*
G01*
%TO.C,SW1*%
X217400000Y-90350000D02*
X217400000Y-93070000D01*
X217400000Y-99930000D02*
X217400000Y-102650000D01*
X205100000Y-98070000D02*
X205100000Y-94930000D01*
X205100000Y-102650000D02*
X205100000Y-99930000D01*
X215929050Y-96540000D02*
G75*
G03*
X215929050Y-96540000I-4579050J0D01*
G01*
X205100000Y-93070000D02*
X205100000Y-90350000D01*
X217400000Y-102650000D02*
X205100000Y-102650000D01*
X217400000Y-94930000D02*
X217400000Y-98070000D01*
X205100000Y-90350000D02*
X217400000Y-90350000D01*
%TO.C,SW5*%
X196400000Y-90350000D02*
X196400000Y-93070000D01*
X196400000Y-99930000D02*
X196400000Y-102650000D01*
X184100000Y-98070000D02*
X184100000Y-94930000D01*
X184100000Y-102650000D02*
X184100000Y-99930000D01*
X194929050Y-96540000D02*
G75*
G03*
X194929050Y-96540000I-4579050J0D01*
G01*
X184100000Y-93070000D02*
X184100000Y-90350000D01*
X196400000Y-102650000D02*
X184100000Y-102650000D01*
X196400000Y-94930000D02*
X196400000Y-98070000D01*
X184100000Y-90350000D02*
X196400000Y-90350000D01*
%TO.C,SW4*%
X175400000Y-90350000D02*
X175400000Y-93070000D01*
X175400000Y-99930000D02*
X175400000Y-102650000D01*
X163100000Y-98070000D02*
X163100000Y-94930000D01*
X163100000Y-102650000D02*
X163100000Y-99930000D01*
X173929050Y-96540000D02*
G75*
G03*
X173929050Y-96540000I-4579050J0D01*
G01*
X163100000Y-93070000D02*
X163100000Y-90350000D01*
X175400000Y-102650000D02*
X163100000Y-102650000D01*
X175400000Y-94930000D02*
X175400000Y-98070000D01*
X163100000Y-90350000D02*
X175400000Y-90350000D01*
%TO.C,J6*%
D14*
X180666666Y-82252380D02*
X180666666Y-82966666D01*
X180619047Y-83109523D01*
X180523809Y-83204761D01*
X180380952Y-83252380D01*
X180285714Y-83252380D01*
X181571428Y-82252380D02*
X181380952Y-82252380D01*
X181285714Y-82300000D01*
X181238095Y-82347619D01*
X181142857Y-82490476D01*
X181095238Y-82680952D01*
X181095238Y-83061904D01*
X181142857Y-83157142D01*
X181190476Y-83204761D01*
X181285714Y-83252380D01*
X181476190Y-83252380D01*
X181571428Y-83204761D01*
X181619047Y-83157142D01*
X181666666Y-83061904D01*
X181666666Y-82823809D01*
X181619047Y-82728571D01*
X181571428Y-82680952D01*
X181476190Y-82633333D01*
X181285714Y-82633333D01*
X181190476Y-82680952D01*
X181142857Y-82728571D01*
X181095238Y-82823809D01*
X174404761Y-79052380D02*
X174404761Y-78052380D01*
X174976190Y-79052380D01*
X174976190Y-78052380D01*
X175452380Y-79052380D02*
X175452380Y-78052380D01*
X175452380Y-78528571D02*
X176023809Y-78528571D01*
X176023809Y-79052380D02*
X176023809Y-78052380D01*
X176500000Y-79052380D02*
X176500000Y-78052380D01*
X176738095Y-78052380D01*
X176880952Y-78100000D01*
X176976190Y-78195238D01*
X177023809Y-78290476D01*
X177071428Y-78480952D01*
X177071428Y-78623809D01*
X177023809Y-78814285D01*
X176976190Y-78909523D01*
X176880952Y-79004761D01*
X176738095Y-79052380D01*
X176500000Y-79052380D01*
X177500000Y-78671428D02*
X178261904Y-78671428D01*
X178690476Y-78147619D02*
X178738095Y-78100000D01*
X178833333Y-78052380D01*
X179071428Y-78052380D01*
X179166666Y-78100000D01*
X179214285Y-78147619D01*
X179261904Y-78242857D01*
X179261904Y-78338095D01*
X179214285Y-78480952D01*
X178642857Y-79052380D01*
X179261904Y-79052380D01*
X179690476Y-78957142D02*
X179738095Y-79004761D01*
X179690476Y-79052380D01*
X179642857Y-79004761D01*
X179690476Y-78957142D01*
X179690476Y-79052380D01*
X180119047Y-78147619D02*
X180166666Y-78100000D01*
X180261904Y-78052380D01*
X180500000Y-78052380D01*
X180595238Y-78100000D01*
X180642857Y-78147619D01*
X180690476Y-78242857D01*
X180690476Y-78338095D01*
X180642857Y-78480952D01*
X180071428Y-79052380D01*
X180690476Y-79052380D01*
X181023809Y-78052380D02*
X181642857Y-78052380D01*
X181309523Y-78433333D01*
X181452380Y-78433333D01*
X181547619Y-78480952D01*
X181595238Y-78528571D01*
X181642857Y-78623809D01*
X181642857Y-78861904D01*
X181595238Y-78957142D01*
X181547619Y-79004761D01*
X181452380Y-79052380D01*
X181166666Y-79052380D01*
X181071428Y-79004761D01*
X181023809Y-78957142D01*
X182071428Y-78671428D02*
X182833333Y-78671428D01*
X183833333Y-79052380D02*
X183261904Y-79052380D01*
X183547619Y-79052380D02*
X183547619Y-78052380D01*
X183452380Y-78195238D01*
X183357142Y-78290476D01*
X183261904Y-78338095D01*
X184214285Y-78147619D02*
X184261904Y-78100000D01*
X184357142Y-78052380D01*
X184595238Y-78052380D01*
X184690476Y-78100000D01*
X184738095Y-78147619D01*
X184785714Y-78242857D01*
X184785714Y-78338095D01*
X184738095Y-78480952D01*
X184166666Y-79052380D01*
X184785714Y-79052380D01*
X185357142Y-78480952D02*
X185261904Y-78433333D01*
X185214285Y-78385714D01*
X185166666Y-78290476D01*
X185166666Y-78242857D01*
X185214285Y-78147619D01*
X185261904Y-78100000D01*
X185357142Y-78052380D01*
X185547619Y-78052380D01*
X185642857Y-78100000D01*
X185690476Y-78147619D01*
X185738095Y-78242857D01*
X185738095Y-78290476D01*
X185690476Y-78385714D01*
X185642857Y-78433333D01*
X185547619Y-78480952D01*
X185357142Y-78480952D01*
X185261904Y-78528571D01*
X185214285Y-78576190D01*
X185166666Y-78671428D01*
X185166666Y-78861904D01*
X185214285Y-78957142D01*
X185261904Y-79004761D01*
X185357142Y-79052380D01*
X185547619Y-79052380D01*
X185642857Y-79004761D01*
X185690476Y-78957142D01*
X185738095Y-78861904D01*
X185738095Y-78671428D01*
X185690476Y-78576190D01*
X185642857Y-78528571D01*
X185547619Y-78480952D01*
X186071428Y-78052380D02*
X186690476Y-78052380D01*
X186357142Y-78433333D01*
X186500000Y-78433333D01*
X186595238Y-78480952D01*
X186642857Y-78528571D01*
X186690476Y-78623809D01*
X186690476Y-78861904D01*
X186642857Y-78957142D01*
X186595238Y-79004761D01*
X186500000Y-79052380D01*
X186214285Y-79052380D01*
X186119047Y-79004761D01*
X186071428Y-78957142D01*
X187071428Y-78147619D02*
X187119047Y-78100000D01*
X187214285Y-78052380D01*
X187452380Y-78052380D01*
X187547619Y-78100000D01*
X187595238Y-78147619D01*
X187642857Y-78242857D01*
X187642857Y-78338095D01*
X187595238Y-78480952D01*
X187023809Y-79052380D01*
X187642857Y-79052380D01*
X188071428Y-78052380D02*
X188071428Y-78861904D01*
X188119047Y-78957142D01*
X188166666Y-79004761D01*
X188261904Y-79052380D01*
X188452380Y-79052380D01*
X188547619Y-79004761D01*
X188595238Y-78957142D01*
X188642857Y-78861904D01*
X188642857Y-78052380D01*
X189690476Y-78957142D02*
X189642857Y-79004761D01*
X189500000Y-79052380D01*
X189404761Y-79052380D01*
X189261904Y-79004761D01*
X189166666Y-78909523D01*
X189119047Y-78814285D01*
X189071428Y-78623809D01*
X189071428Y-78480952D01*
X189119047Y-78290476D01*
X189166666Y-78195238D01*
X189261904Y-78100000D01*
X189404761Y-78052380D01*
X189500000Y-78052380D01*
X189642857Y-78100000D01*
X189690476Y-78147619D01*
X190452380Y-78528571D02*
X190595238Y-78576190D01*
X190642857Y-78623809D01*
X190690476Y-78719047D01*
X190690476Y-78861904D01*
X190642857Y-78957142D01*
X190595238Y-79004761D01*
X190500000Y-79052380D01*
X190119047Y-79052380D01*
X190119047Y-78052380D01*
X190452380Y-78052380D01*
X190547619Y-78100000D01*
X190595238Y-78147619D01*
X190642857Y-78242857D01*
X190642857Y-78338095D01*
X190595238Y-78433333D01*
X190547619Y-78480952D01*
X190452380Y-78528571D01*
X190119047Y-78528571D01*
X191023809Y-78052380D02*
X191642857Y-78052380D01*
X191309523Y-78433333D01*
X191452380Y-78433333D01*
X191547619Y-78480952D01*
X191595238Y-78528571D01*
X191642857Y-78623809D01*
X191642857Y-78861904D01*
X191595238Y-78957142D01*
X191547619Y-79004761D01*
X191452380Y-79052380D01*
X191166666Y-79052380D01*
X191071428Y-79004761D01*
X191023809Y-78957142D01*
%TO.C,RV1*%
X86952380Y-64870238D02*
X86476190Y-65203571D01*
X86952380Y-65441666D02*
X85952380Y-65441666D01*
X85952380Y-65060714D01*
X86000000Y-64965476D01*
X86047619Y-64917857D01*
X86142857Y-64870238D01*
X86285714Y-64870238D01*
X86380952Y-64917857D01*
X86428571Y-64965476D01*
X86476190Y-65060714D01*
X86476190Y-65441666D01*
X85952380Y-64584523D02*
X86952380Y-64251190D01*
X85952380Y-63917857D01*
X86952380Y-63060714D02*
X86952380Y-63632142D01*
X86952380Y-63346428D02*
X85952380Y-63346428D01*
X86095238Y-63441666D01*
X86190476Y-63536904D01*
X86238095Y-63632142D01*
%TO.C,RV4*%
X86952380Y-89870238D02*
X86476190Y-90203571D01*
X86952380Y-90441666D02*
X85952380Y-90441666D01*
X85952380Y-90060714D01*
X86000000Y-89965476D01*
X86047619Y-89917857D01*
X86142857Y-89870238D01*
X86285714Y-89870238D01*
X86380952Y-89917857D01*
X86428571Y-89965476D01*
X86476190Y-90060714D01*
X86476190Y-90441666D01*
X85952380Y-89584523D02*
X86952380Y-89251190D01*
X85952380Y-88917857D01*
X86285714Y-88155952D02*
X86952380Y-88155952D01*
X85904761Y-88394047D02*
X86619047Y-88632142D01*
X86619047Y-88013095D01*
%TO.C,RV3*%
X111952380Y-89870238D02*
X111476190Y-90203571D01*
X111952380Y-90441666D02*
X110952380Y-90441666D01*
X110952380Y-90060714D01*
X111000000Y-89965476D01*
X111047619Y-89917857D01*
X111142857Y-89870238D01*
X111285714Y-89870238D01*
X111380952Y-89917857D01*
X111428571Y-89965476D01*
X111476190Y-90060714D01*
X111476190Y-90441666D01*
X110952380Y-89584523D02*
X111952380Y-89251190D01*
X110952380Y-88917857D01*
X110952380Y-88679761D02*
X110952380Y-88060714D01*
X111333333Y-88394047D01*
X111333333Y-88251190D01*
X111380952Y-88155952D01*
X111428571Y-88108333D01*
X111523809Y-88060714D01*
X111761904Y-88060714D01*
X111857142Y-88108333D01*
X111904761Y-88155952D01*
X111952380Y-88251190D01*
X111952380Y-88536904D01*
X111904761Y-88632142D01*
X111857142Y-88679761D01*
%TO.C,RV2*%
X111952380Y-64870238D02*
X111476190Y-65203571D01*
X111952380Y-65441666D02*
X110952380Y-65441666D01*
X110952380Y-65060714D01*
X111000000Y-64965476D01*
X111047619Y-64917857D01*
X111142857Y-64870238D01*
X111285714Y-64870238D01*
X111380952Y-64917857D01*
X111428571Y-64965476D01*
X111476190Y-65060714D01*
X111476190Y-65441666D01*
X110952380Y-64584523D02*
X111952380Y-64251190D01*
X110952380Y-63917857D01*
X111047619Y-63632142D02*
X111000000Y-63584523D01*
X110952380Y-63489285D01*
X110952380Y-63251190D01*
X111000000Y-63155952D01*
X111047619Y-63108333D01*
X111142857Y-63060714D01*
X111238095Y-63060714D01*
X111380952Y-63108333D01*
X111952380Y-63679761D01*
X111952380Y-63060714D01*
%TO.C,*%
%TO.C,SW3*%
X147129523Y-103858571D02*
X147272380Y-103906190D01*
X147320000Y-103953809D01*
X147367619Y-104049047D01*
X147367619Y-104191904D01*
X147320000Y-104287142D01*
X147272380Y-104334761D01*
X147177142Y-104382380D01*
X146796190Y-104382380D01*
X146796190Y-103382380D01*
X147129523Y-103382380D01*
X147224761Y-103430000D01*
X147272380Y-103477619D01*
X147320000Y-103572857D01*
X147320000Y-103668095D01*
X147272380Y-103763333D01*
X147224761Y-103810952D01*
X147129523Y-103858571D01*
X146796190Y-103858571D01*
X147653333Y-103382380D02*
X148224761Y-103382380D01*
X147939047Y-104382380D02*
X147939047Y-103382380D01*
X148558095Y-104382380D02*
X148558095Y-103382380D01*
X149129523Y-104382380D01*
X149129523Y-103382380D01*
X149367619Y-104477619D02*
X150129523Y-104477619D01*
X150891428Y-104382380D02*
X150320000Y-104382380D01*
X150605714Y-104382380D02*
X150605714Y-103382380D01*
X150510476Y-103525238D01*
X150415238Y-103620476D01*
X150320000Y-103668095D01*
%TO.C,SW2*%
X179066666Y-106404761D02*
X179209523Y-106452380D01*
X179447619Y-106452380D01*
X179542857Y-106404761D01*
X179590476Y-106357142D01*
X179638095Y-106261904D01*
X179638095Y-106166666D01*
X179590476Y-106071428D01*
X179542857Y-106023809D01*
X179447619Y-105976190D01*
X179257142Y-105928571D01*
X179161904Y-105880952D01*
X179114285Y-105833333D01*
X179066666Y-105738095D01*
X179066666Y-105642857D01*
X179114285Y-105547619D01*
X179161904Y-105500000D01*
X179257142Y-105452380D01*
X179495238Y-105452380D01*
X179638095Y-105500000D01*
X179971428Y-105452380D02*
X180209523Y-106452380D01*
X180400000Y-105738095D01*
X180590476Y-106452380D01*
X180828571Y-105452380D01*
X181161904Y-105547619D02*
X181209523Y-105500000D01*
X181304761Y-105452380D01*
X181542857Y-105452380D01*
X181638095Y-105500000D01*
X181685714Y-105547619D01*
X181733333Y-105642857D01*
X181733333Y-105738095D01*
X181685714Y-105880952D01*
X181114285Y-106452380D01*
X181733333Y-106452380D01*
X178242857Y-122328571D02*
X178385714Y-122376190D01*
X178433333Y-122423809D01*
X178480952Y-122519047D01*
X178480952Y-122661904D01*
X178433333Y-122757142D01*
X178385714Y-122804761D01*
X178290476Y-122852380D01*
X177909523Y-122852380D01*
X177909523Y-121852380D01*
X178242857Y-121852380D01*
X178338095Y-121900000D01*
X178385714Y-121947619D01*
X178433333Y-122042857D01*
X178433333Y-122138095D01*
X178385714Y-122233333D01*
X178338095Y-122280952D01*
X178242857Y-122328571D01*
X177909523Y-122328571D01*
X178766666Y-121852380D02*
X179338095Y-121852380D01*
X179052380Y-122852380D02*
X179052380Y-121852380D01*
X179671428Y-122852380D02*
X179671428Y-121852380D01*
X180242857Y-122852380D01*
X180242857Y-121852380D01*
X180480952Y-122947619D02*
X181242857Y-122947619D01*
X181480952Y-122852380D02*
X181480952Y-121852380D01*
X181480952Y-122233333D02*
X181576190Y-122185714D01*
X181766666Y-122185714D01*
X181861904Y-122233333D01*
X181909523Y-122280952D01*
X181957142Y-122376190D01*
X181957142Y-122661904D01*
X181909523Y-122757142D01*
X181861904Y-122804761D01*
X181766666Y-122852380D01*
X181576190Y-122852380D01*
X181480952Y-122804761D01*
X182385714Y-122852380D02*
X182385714Y-122185714D01*
X182385714Y-121852380D02*
X182338095Y-121900000D01*
X182385714Y-121947619D01*
X182433333Y-121900000D01*
X182385714Y-121852380D01*
X182385714Y-121947619D01*
X183290476Y-122185714D02*
X183290476Y-122995238D01*
X183242857Y-123090476D01*
X183195238Y-123138095D01*
X183100000Y-123185714D01*
X182957142Y-123185714D01*
X182861904Y-123138095D01*
X183290476Y-122804761D02*
X183195238Y-122852380D01*
X183004761Y-122852380D01*
X182909523Y-122804761D01*
X182861904Y-122757142D01*
X182814285Y-122661904D01*
X182814285Y-122376190D01*
X182861904Y-122280952D01*
X182909523Y-122233333D01*
X183004761Y-122185714D01*
X183195238Y-122185714D01*
X183290476Y-122233333D01*
%TO.C,SW1*%
X210120000Y-103858571D02*
X210262857Y-103906190D01*
X210310476Y-103953809D01*
X210358095Y-104049047D01*
X210358095Y-104191904D01*
X210310476Y-104287142D01*
X210262857Y-104334761D01*
X210167619Y-104382380D01*
X209786666Y-104382380D01*
X209786666Y-103382380D01*
X210120000Y-103382380D01*
X210215238Y-103430000D01*
X210262857Y-103477619D01*
X210310476Y-103572857D01*
X210310476Y-103668095D01*
X210262857Y-103763333D01*
X210215238Y-103810952D01*
X210120000Y-103858571D01*
X209786666Y-103858571D01*
X210643809Y-103382380D02*
X211215238Y-103382380D01*
X210929523Y-104382380D02*
X210929523Y-103382380D01*
X211548571Y-104382380D02*
X211548571Y-103382380D01*
X212120000Y-104382380D01*
X212120000Y-103382380D01*
X212358095Y-104477619D02*
X213120000Y-104477619D01*
X213215238Y-103715714D02*
X213596190Y-103715714D01*
X213358095Y-104382380D02*
X213358095Y-103525238D01*
X213405714Y-103430000D01*
X213500952Y-103382380D01*
X213596190Y-103382380D01*
%TO.C,SW5*%
X188929523Y-103858571D02*
X189072380Y-103906190D01*
X189120000Y-103953809D01*
X189167619Y-104049047D01*
X189167619Y-104191904D01*
X189120000Y-104287142D01*
X189072380Y-104334761D01*
X188977142Y-104382380D01*
X188596190Y-104382380D01*
X188596190Y-103382380D01*
X188929523Y-103382380D01*
X189024761Y-103430000D01*
X189072380Y-103477619D01*
X189120000Y-103572857D01*
X189120000Y-103668095D01*
X189072380Y-103763333D01*
X189024761Y-103810952D01*
X188929523Y-103858571D01*
X188596190Y-103858571D01*
X189453333Y-103382380D02*
X190024761Y-103382380D01*
X189739047Y-104382380D02*
X189739047Y-103382380D01*
X190358095Y-104382380D02*
X190358095Y-103382380D01*
X190929523Y-104382380D01*
X190929523Y-103382380D01*
X191167619Y-104477619D02*
X191929523Y-104477619D01*
X192072380Y-103382380D02*
X192691428Y-103382380D01*
X192358095Y-103763333D01*
X192500952Y-103763333D01*
X192596190Y-103810952D01*
X192643809Y-103858571D01*
X192691428Y-103953809D01*
X192691428Y-104191904D01*
X192643809Y-104287142D01*
X192596190Y-104334761D01*
X192500952Y-104382380D01*
X192215238Y-104382380D01*
X192120000Y-104334761D01*
X192072380Y-104287142D01*
%TO.C,SW4*%
X167929523Y-103858571D02*
X168072380Y-103906190D01*
X168120000Y-103953809D01*
X168167619Y-104049047D01*
X168167619Y-104191904D01*
X168120000Y-104287142D01*
X168072380Y-104334761D01*
X167977142Y-104382380D01*
X167596190Y-104382380D01*
X167596190Y-103382380D01*
X167929523Y-103382380D01*
X168024761Y-103430000D01*
X168072380Y-103477619D01*
X168120000Y-103572857D01*
X168120000Y-103668095D01*
X168072380Y-103763333D01*
X168024761Y-103810952D01*
X167929523Y-103858571D01*
X167596190Y-103858571D01*
X168453333Y-103382380D02*
X169024761Y-103382380D01*
X168739047Y-104382380D02*
X168739047Y-103382380D01*
X169358095Y-104382380D02*
X169358095Y-103382380D01*
X169929523Y-104382380D01*
X169929523Y-103382380D01*
X170167619Y-104477619D02*
X170929523Y-104477619D01*
X171120000Y-103477619D02*
X171167619Y-103430000D01*
X171262857Y-103382380D01*
X171500952Y-103382380D01*
X171596190Y-103430000D01*
X171643809Y-103477619D01*
X171691428Y-103572857D01*
X171691428Y-103668095D01*
X171643809Y-103810952D01*
X171072380Y-104382380D01*
X171691428Y-104382380D01*
%TD*%
M02*
