M48
; DRILL file {KiCad 5.1.6-c6e7f7d~87~ubuntu18.04.1} date Tue Mar 30 09:23:09 2021
; FORMAT={-:-/ absolute / inch / decimal}
; #@! TF.CreationDate,2021-03-30T09:23:09+02:00
; #@! TF.GenerationSoftware,Kicad,Pcbnew,5.1.6-c6e7f7d~87~ubuntu18.04.1
; #@! TF.FileFunction,NonPlated,1,2,NPTH
FMAT,2
INCH
T1C0.0433
T2C0.0454
T3C0.0591
T4C0.0787
T5C0.0984
T6C0.1063
%
G90
G05
T1
X6.9094Y-4.6654
T2
X8.5276Y-2.1339
X3.2756Y-5.0079
X8.3228Y-4.9921
T3
X6.9134Y-4.315
X7.2598Y-4.6614
T4
X4.5177Y-2.4606
X4.8917Y-2.4606
X4.5177Y-3.4449
X4.8917Y-3.4449
X3.5335Y-3.4449
X3.9075Y-3.4449
X3.5335Y-2.4606
X3.9075Y-2.4606
T5
X8.197Y-3.3738
X8.1978Y-1.9134
X5.9858Y-1.9134
X5.9852Y-3.374
T6
X5.2165Y-4.1929
X3.2874Y-1.9094
X8.5236Y-1.9094
X5.2165Y-1.9094
X3.2874Y-4.1929
X8.5236Y-4.9803
T0
M30
