M48
; DRILL file {KiCad 5.1.6-c6e7f7d~87~ubuntu18.04.1} date Thu Mar 25 20:54:49 2021
; FORMAT={-:-/ absolute / inch / decimal}
; #@! TF.CreationDate,2021-03-25T20:54:49+01:00
; #@! TF.GenerationSoftware,Kicad,Pcbnew,5.1.6-c6e7f7d~87~ubuntu18.04.1
; #@! TF.FileFunction,Plated,1,2,PTH
FMAT,2
INCH
T1C0.0157
T2C0.0394
T3C0.0512
%
G90
G05
T1
X3.7965Y-2.1831
X3.937Y-3.0866
X4.0937Y-2.6701
X5.3783Y-3.0886
X5.5197Y-3.3386
X5.7165Y-3.3465
X5.7524Y-2.9209
X6.1728Y-3.2319
T2
X3.622Y-2.7559
X3.7205Y-2.7559
X3.8189Y-2.7559
X3.622Y-3.7402
X3.7205Y-3.7402
X3.8189Y-3.7402
X4.6063Y-3.7402
X4.7047Y-3.7402
X4.8031Y-3.7402
X5.1665Y-2.1012
X5.1665Y-2.2012
X5.1665Y-2.3012
X5.1665Y-2.4012
X5.1665Y-2.5012
X5.1665Y-2.6012
X5.1665Y-2.7012
X5.1665Y-2.8012
X5.1665Y-2.9012
X5.1665Y-3.0012
X5.1665Y-3.1012
X5.1665Y-3.2012
X5.1665Y-3.3012
X5.1665Y-3.4012
X5.1665Y-3.5012
X5.1665Y-3.6012
X5.1665Y-3.7012
X5.1665Y-3.8012
X5.1665Y-3.9012
X5.1665Y-4.0012
X5.2665Y-2.1012
X5.2665Y-2.2012
X5.2665Y-2.3012
X5.2665Y-2.4012
X5.2665Y-2.5012
X5.2665Y-2.6012
X5.2665Y-2.7012
X5.2665Y-2.8012
X5.2665Y-2.9012
X5.2665Y-3.0012
X5.2665Y-3.1012
X5.2665Y-3.2012
X5.2665Y-3.3012
X5.2665Y-3.4012
X5.2665Y-3.5012
X5.2665Y-3.6012
X5.2665Y-3.7012
X5.2665Y-3.8012
X5.2665Y-3.9012
X5.2665Y-4.0012
X4.6063Y-2.7559
X4.7047Y-2.7559
X4.8031Y-2.7559
X6.1417Y-3.3937
X6.2417Y-3.3937
X6.3417Y-3.3937
X6.4417Y-3.3937
X6.5417Y-3.3937
X6.6417Y-3.3937
X6.7417Y-3.3937
X6.8417Y-3.3937
X6.9417Y-3.3937
X7.0417Y-3.3937
X7.1417Y-3.3937
X7.2417Y-3.3937
X7.3417Y-3.3937
X7.4417Y-3.3937
X7.5417Y-3.3937
X7.6417Y-3.3937
X7.7417Y-3.3937
X7.8417Y-3.3937
X7.9417Y-3.3937
X8.0417Y-3.3937
X4.0937Y-2.0157
X4.1937Y-2.0157
X4.2937Y-2.0157
X4.3937Y-2.0157
T3
X5.5984Y-3.7008
X5.5984Y-3.8976
X6.0906Y-3.7008
X6.0906Y-3.8976
X6.9866Y-4.4882
X7.0866Y-4.4882
X8.0709Y-3.7008
X8.0709Y-3.8976
X8.563Y-3.7008
X8.563Y-3.8976
X7.2441Y-3.7008
X7.2441Y-3.8976
X7.7362Y-3.7008
X7.7362Y-3.8976
X6.4173Y-3.7008
X6.4173Y-3.8976
X6.9094Y-3.7008
X6.9094Y-3.8976
T2
G00X7.0276Y-1.937
M15
G01X6.9882Y-1.937
M16
G05
G00X7.0276Y-2.1535
M15
G01X6.9882Y-2.1535
M16
G05
G00X7.1063Y-1.8425
M15
G01X7.0669Y-1.8425
M16
G05
G00X7.6181Y-1.937
M15
G01X7.5787Y-1.937
M16
G05
G00X7.6181Y-2.1535
M15
G01X7.5787Y-2.1535
M16
G05
G00X7.6969Y-1.8425
M15
G01X7.6575Y-1.8425
M16
G05
G00X6.437Y-1.937
M15
G01X6.3976Y-1.937
M16
G05
G00X6.437Y-2.1535
M15
G01X6.3976Y-2.1535
M16
G05
G00X6.5157Y-1.8425
M15
G01X6.4764Y-1.8425
M16
G05
T0
M30
