%TF.GenerationSoftware,KiCad,Pcbnew,5.1.6-c6e7f7d~87~ubuntu18.04.1*%
%TF.CreationDate,2021-03-25T20:54:19+01:00*%
%TF.ProjectId,bz-hat,627a2d68-6174-42e6-9b69-6361645f7063,rev?*%
%TF.SameCoordinates,Original*%
%TF.FileFunction,Legend,Bot*%
%TF.FilePolarity,Positive*%
%FSLAX46Y46*%
G04 Gerber Fmt 4.6, Leading zero omitted, Abs format (unit mm)*
G04 Created by KiCad (PCBNEW 5.1.6-c6e7f7d~87~ubuntu18.04.1) date 2021-03-25 20:54:19*
%MOMM*%
%LPD*%
G01*
G04 APERTURE LIST*
%ADD10C,0.120000*%
%ADD11C,0.100000*%
%ADD12C,0.203200*%
%ADD13C,0.150000*%
G04 APERTURE END LIST*
D10*
%TO.C,C14*%
X163110000Y-81237221D02*
X163110000Y-81562779D01*
X162090000Y-81237221D02*
X162090000Y-81562779D01*
%TO.C,U3*%
X106800000Y-81635000D02*
X103350000Y-81635000D01*
X106800000Y-81635000D02*
X108750000Y-81635000D01*
X106800000Y-72765000D02*
X104850000Y-72765000D01*
X106800000Y-72765000D02*
X108750000Y-72765000D01*
%TO.C,U1*%
X102565000Y-58800000D02*
X102565000Y-55350000D01*
X102565000Y-58800000D02*
X102565000Y-60750000D01*
X111435000Y-58800000D02*
X111435000Y-56850000D01*
X111435000Y-58800000D02*
X111435000Y-60750000D01*
%TO.C,C20*%
X113135000Y-78400000D02*
X113135000Y-82310000D01*
X113135000Y-82310000D02*
X111265000Y-82310000D01*
X111265000Y-82310000D02*
X111265000Y-78400000D01*
%TO.C,C19*%
X150090000Y-77837221D02*
X150090000Y-78162779D01*
X151110000Y-77837221D02*
X151110000Y-78162779D01*
%TO.C,C18*%
X106400000Y-65135000D02*
X102490000Y-65135000D01*
X102490000Y-65135000D02*
X102490000Y-63265000D01*
X102490000Y-63265000D02*
X106400000Y-63265000D01*
%TO.C,C13*%
X164090000Y-74397936D02*
X164090000Y-75602064D01*
X165910000Y-74397936D02*
X165910000Y-75602064D01*
%TO.C,J4*%
X129900000Y-102960000D02*
X135100000Y-102960000D01*
X129900000Y-54640000D02*
X129900000Y-102960000D01*
X135100000Y-52040000D02*
X135100000Y-102960000D01*
X129900000Y-54640000D02*
X132500000Y-54640000D01*
X132500000Y-54640000D02*
X132500000Y-52040000D01*
X132500000Y-52040000D02*
X135100000Y-52040000D01*
X129900000Y-53370000D02*
X129900000Y-52040000D01*
X129900000Y-52040000D02*
X131230000Y-52040000D01*
%TO.C,J3*%
X175980000Y-45480000D02*
X175680000Y-45480000D01*
X175680000Y-45480000D02*
X175680000Y-59720000D01*
X175680000Y-59720000D02*
X184120000Y-59720000D01*
X184120000Y-59720000D02*
X184120000Y-45490000D01*
D11*
X184120000Y-45480000D02*
X182220000Y-45480000D01*
D10*
X182210000Y-45480000D02*
X175980000Y-45480000D01*
%TO.C,J2*%
X190980000Y-45480000D02*
X190680000Y-45480000D01*
X190680000Y-45480000D02*
X190680000Y-59720000D01*
X190680000Y-59720000D02*
X199120000Y-59720000D01*
X199120000Y-59720000D02*
X199120000Y-45490000D01*
D11*
X199120000Y-45480000D02*
X197220000Y-45480000D01*
D10*
X197210000Y-45480000D02*
X190980000Y-45480000D01*
%TO.C,J1*%
X160980000Y-45480000D02*
X160680000Y-45480000D01*
X160680000Y-45480000D02*
X160680000Y-59720000D01*
X160680000Y-59720000D02*
X169120000Y-59720000D01*
X169120000Y-59720000D02*
X169120000Y-45490000D01*
D11*
X169120000Y-45480000D02*
X167220000Y-45480000D01*
D10*
X167210000Y-45480000D02*
X160980000Y-45480000D01*
%TO.C,C15*%
X151665000Y-72660000D02*
X151665000Y-68750000D01*
X153535000Y-72660000D02*
X151665000Y-72660000D01*
X153535000Y-68750000D02*
X153535000Y-72660000D01*
%TO.C,C11*%
X163840000Y-80065000D02*
X167750000Y-80065000D01*
X163840000Y-81935000D02*
X163840000Y-80065000D01*
X167750000Y-81935000D02*
X163840000Y-81935000D01*
%TO.C,C1*%
X155962779Y-53110000D02*
X155637221Y-53110000D01*
X155962779Y-52090000D02*
X155637221Y-52090000D01*
%TO.C,R4*%
X202803922Y-60890000D02*
X203321078Y-60890000D01*
X202803922Y-62310000D02*
X203321078Y-62310000D01*
%TO.C,C9*%
X165465000Y-72110000D02*
X165465000Y-68200000D01*
X167335000Y-72110000D02*
X165465000Y-72110000D01*
X167335000Y-68200000D02*
X167335000Y-72110000D01*
%TO.C,C16*%
X152290000Y-78150279D02*
X152290000Y-77824721D01*
X153310000Y-78150279D02*
X153310000Y-77824721D01*
%TO.C,R7*%
X197121078Y-64510000D02*
X196603922Y-64510000D01*
X197121078Y-63090000D02*
X196603922Y-63090000D01*
%TO.C,R6*%
X159003922Y-62690000D02*
X159521078Y-62690000D01*
X159003922Y-64110000D02*
X159521078Y-64110000D01*
D11*
%TO.C,U2*%
X162156000Y-69520000D02*
G75*
G03*
X162156000Y-69520000I-381000J0D01*
G01*
D12*
X156000000Y-79700000D02*
X156000000Y-69500000D01*
X161200000Y-79700000D02*
X156000000Y-79700000D01*
X161200000Y-70210380D02*
X161200000Y-79700000D01*
X160489630Y-69500000D02*
X161200000Y-70210380D01*
X156000000Y-69500000D02*
X160489630Y-69500000D01*
D10*
%TO.C,J5*%
X102650000Y-49870000D02*
X102650000Y-51200000D01*
X103980000Y-49870000D02*
X102650000Y-49870000D01*
X105250000Y-49870000D02*
X105250000Y-52530000D01*
X105250000Y-52530000D02*
X112930000Y-52530000D01*
X105250000Y-49870000D02*
X112930000Y-49870000D01*
X112930000Y-49870000D02*
X112930000Y-52530000D01*
%TO.C,R1*%
X157710000Y-49278922D02*
X157710000Y-49796078D01*
X156290000Y-49278922D02*
X156290000Y-49796078D01*
%TO.C,R9*%
X175058578Y-62110000D02*
X174541422Y-62110000D01*
X175058578Y-60690000D02*
X174541422Y-60690000D01*
%TO.C,C2*%
X159562779Y-61910000D02*
X159237221Y-61910000D01*
X159562779Y-60890000D02*
X159237221Y-60890000D01*
%TO.C,R10*%
X183141422Y-60690000D02*
X183658578Y-60690000D01*
X183141422Y-62110000D02*
X183658578Y-62110000D01*
%TO.C,C10*%
X168535000Y-72740000D02*
X168535000Y-76650000D01*
X166665000Y-72740000D02*
X168535000Y-72740000D01*
X166665000Y-76650000D02*
X166665000Y-72740000D01*
%TO.C,R5*%
X155541422Y-54090000D02*
X156058578Y-54090000D01*
X155541422Y-55510000D02*
X156058578Y-55510000D01*
%TO.C,C6*%
X189441250Y-70443750D02*
X188653750Y-70443750D01*
X189047500Y-70837500D02*
X189047500Y-70050000D01*
X184854437Y-69810000D02*
X183790000Y-68745563D01*
X189545563Y-69810000D02*
X190610000Y-68745563D01*
X189545563Y-69810000D02*
X188260000Y-69810000D01*
X184854437Y-69810000D02*
X186140000Y-69810000D01*
X183790000Y-68745563D02*
X183790000Y-62990000D01*
X190610000Y-68745563D02*
X190610000Y-62990000D01*
X190610000Y-62990000D02*
X188260000Y-62990000D01*
X183790000Y-62990000D02*
X186140000Y-62990000D01*
%TO.C,C3*%
X194940000Y-65465000D02*
X198850000Y-65465000D01*
X194940000Y-67335000D02*
X194940000Y-65465000D01*
X198850000Y-67335000D02*
X194940000Y-67335000D01*
%TO.C,C7*%
X152940000Y-57065000D02*
X156850000Y-57065000D01*
X152940000Y-58935000D02*
X152940000Y-57065000D01*
X156850000Y-58935000D02*
X152940000Y-58935000D01*
%TO.C,C17*%
X150710000Y-70437221D02*
X150710000Y-70762779D01*
X149690000Y-70437221D02*
X149690000Y-70762779D01*
%TO.C,R3*%
X197058578Y-62110000D02*
X196541422Y-62110000D01*
X197058578Y-60690000D02*
X196541422Y-60690000D01*
%TO.C,C8*%
X161940000Y-63265000D02*
X165850000Y-63265000D01*
X161940000Y-65135000D02*
X161940000Y-63265000D01*
X165850000Y-65135000D02*
X161940000Y-65135000D01*
%TO.C,C5*%
X180841250Y-70443750D02*
X180053750Y-70443750D01*
X180447500Y-70837500D02*
X180447500Y-70050000D01*
X176254437Y-69810000D02*
X175190000Y-68745563D01*
X180945563Y-69810000D02*
X182010000Y-68745563D01*
X180945563Y-69810000D02*
X179660000Y-69810000D01*
X176254437Y-69810000D02*
X177540000Y-69810000D01*
X175190000Y-68745563D02*
X175190000Y-62990000D01*
X182010000Y-68745563D02*
X182010000Y-62990000D01*
X182010000Y-62990000D02*
X179660000Y-62990000D01*
X175190000Y-62990000D02*
X177540000Y-62990000D01*
%TO.C,R2*%
X164921078Y-62310000D02*
X164403922Y-62310000D01*
X164921078Y-60890000D02*
X164403922Y-60890000D01*
%TO.C,C12*%
X163690000Y-70162779D02*
X163690000Y-69837221D01*
X164710000Y-70162779D02*
X164710000Y-69837221D01*
%TO.C,R8*%
X202803922Y-63290000D02*
X203321078Y-63290000D01*
X202803922Y-64710000D02*
X203321078Y-64710000D01*
%TO.C,C4*%
X204960000Y-67335000D02*
X201050000Y-67335000D01*
X204960000Y-65465000D02*
X204960000Y-67335000D01*
X201050000Y-65465000D02*
X204960000Y-65465000D01*
%TO.C,C14*%
D13*
X160602857Y-81827142D02*
X160650476Y-81874761D01*
X160793333Y-81922380D01*
X160888571Y-81922380D01*
X161031428Y-81874761D01*
X161126666Y-81779523D01*
X161174285Y-81684285D01*
X161221904Y-81493809D01*
X161221904Y-81350952D01*
X161174285Y-81160476D01*
X161126666Y-81065238D01*
X161031428Y-80970000D01*
X160888571Y-80922380D01*
X160793333Y-80922380D01*
X160650476Y-80970000D01*
X160602857Y-81017619D01*
X159650476Y-81922380D02*
X160221904Y-81922380D01*
X159936190Y-81922380D02*
X159936190Y-80922380D01*
X160031428Y-81065238D01*
X160126666Y-81160476D01*
X160221904Y-81208095D01*
X158793333Y-81255714D02*
X158793333Y-81922380D01*
X159031428Y-80874761D02*
X159269523Y-81589047D01*
X158650476Y-81589047D01*
%TO.C,U3*%
X107561904Y-81932380D02*
X107561904Y-82741904D01*
X107514285Y-82837142D01*
X107466666Y-82884761D01*
X107371428Y-82932380D01*
X107180952Y-82932380D01*
X107085714Y-82884761D01*
X107038095Y-82837142D01*
X106990476Y-82741904D01*
X106990476Y-81932380D01*
X106609523Y-81932380D02*
X105990476Y-81932380D01*
X106323809Y-82313333D01*
X106180952Y-82313333D01*
X106085714Y-82360952D01*
X106038095Y-82408571D01*
X105990476Y-82503809D01*
X105990476Y-82741904D01*
X106038095Y-82837142D01*
X106085714Y-82884761D01*
X106180952Y-82932380D01*
X106466666Y-82932380D01*
X106561904Y-82884761D01*
X106609523Y-82837142D01*
%TO.C,U1*%
X101961904Y-58102380D02*
X101961904Y-58911904D01*
X101914285Y-59007142D01*
X101866666Y-59054761D01*
X101771428Y-59102380D01*
X101580952Y-59102380D01*
X101485714Y-59054761D01*
X101438095Y-59007142D01*
X101390476Y-58911904D01*
X101390476Y-58102380D01*
X100390476Y-59102380D02*
X100961904Y-59102380D01*
X100676190Y-59102380D02*
X100676190Y-58102380D01*
X100771428Y-58245238D01*
X100866666Y-58340476D01*
X100961904Y-58388095D01*
%TO.C,C20*%
X115692857Y-80227142D02*
X115740476Y-80274761D01*
X115883333Y-80322380D01*
X115978571Y-80322380D01*
X116121428Y-80274761D01*
X116216666Y-80179523D01*
X116264285Y-80084285D01*
X116311904Y-79893809D01*
X116311904Y-79750952D01*
X116264285Y-79560476D01*
X116216666Y-79465238D01*
X116121428Y-79370000D01*
X115978571Y-79322380D01*
X115883333Y-79322380D01*
X115740476Y-79370000D01*
X115692857Y-79417619D01*
X115311904Y-79417619D02*
X115264285Y-79370000D01*
X115169047Y-79322380D01*
X114930952Y-79322380D01*
X114835714Y-79370000D01*
X114788095Y-79417619D01*
X114740476Y-79512857D01*
X114740476Y-79608095D01*
X114788095Y-79750952D01*
X115359523Y-80322380D01*
X114740476Y-80322380D01*
X114121428Y-79322380D02*
X114026190Y-79322380D01*
X113930952Y-79370000D01*
X113883333Y-79417619D01*
X113835714Y-79512857D01*
X113788095Y-79703333D01*
X113788095Y-79941428D01*
X113835714Y-80131904D01*
X113883333Y-80227142D01*
X113930952Y-80274761D01*
X114026190Y-80322380D01*
X114121428Y-80322380D01*
X114216666Y-80274761D01*
X114264285Y-80227142D01*
X114311904Y-80131904D01*
X114359523Y-79941428D01*
X114359523Y-79703333D01*
X114311904Y-79512857D01*
X114264285Y-79417619D01*
X114216666Y-79370000D01*
X114121428Y-79322380D01*
%TO.C,C19*%
X148842857Y-78517142D02*
X148890476Y-78564761D01*
X149033333Y-78612380D01*
X149128571Y-78612380D01*
X149271428Y-78564761D01*
X149366666Y-78469523D01*
X149414285Y-78374285D01*
X149461904Y-78183809D01*
X149461904Y-78040952D01*
X149414285Y-77850476D01*
X149366666Y-77755238D01*
X149271428Y-77660000D01*
X149128571Y-77612380D01*
X149033333Y-77612380D01*
X148890476Y-77660000D01*
X148842857Y-77707619D01*
X147890476Y-78612380D02*
X148461904Y-78612380D01*
X148176190Y-78612380D02*
X148176190Y-77612380D01*
X148271428Y-77755238D01*
X148366666Y-77850476D01*
X148461904Y-77898095D01*
X147414285Y-78612380D02*
X147223809Y-78612380D01*
X147128571Y-78564761D01*
X147080952Y-78517142D01*
X146985714Y-78374285D01*
X146938095Y-78183809D01*
X146938095Y-77802857D01*
X146985714Y-77707619D01*
X147033333Y-77660000D01*
X147128571Y-77612380D01*
X147319047Y-77612380D01*
X147414285Y-77660000D01*
X147461904Y-77707619D01*
X147509523Y-77802857D01*
X147509523Y-78040952D01*
X147461904Y-78136190D01*
X147414285Y-78183809D01*
X147319047Y-78231428D01*
X147128571Y-78231428D01*
X147033333Y-78183809D01*
X146985714Y-78136190D01*
X146938095Y-78040952D01*
%TO.C,C18*%
X105442857Y-66307142D02*
X105490476Y-66354761D01*
X105633333Y-66402380D01*
X105728571Y-66402380D01*
X105871428Y-66354761D01*
X105966666Y-66259523D01*
X106014285Y-66164285D01*
X106061904Y-65973809D01*
X106061904Y-65830952D01*
X106014285Y-65640476D01*
X105966666Y-65545238D01*
X105871428Y-65450000D01*
X105728571Y-65402380D01*
X105633333Y-65402380D01*
X105490476Y-65450000D01*
X105442857Y-65497619D01*
X104490476Y-66402380D02*
X105061904Y-66402380D01*
X104776190Y-66402380D02*
X104776190Y-65402380D01*
X104871428Y-65545238D01*
X104966666Y-65640476D01*
X105061904Y-65688095D01*
X103919047Y-65830952D02*
X104014285Y-65783333D01*
X104061904Y-65735714D01*
X104109523Y-65640476D01*
X104109523Y-65592857D01*
X104061904Y-65497619D01*
X104014285Y-65450000D01*
X103919047Y-65402380D01*
X103728571Y-65402380D01*
X103633333Y-65450000D01*
X103585714Y-65497619D01*
X103538095Y-65592857D01*
X103538095Y-65640476D01*
X103585714Y-65735714D01*
X103633333Y-65783333D01*
X103728571Y-65830952D01*
X103919047Y-65830952D01*
X104014285Y-65878571D01*
X104061904Y-65926190D01*
X104109523Y-66021428D01*
X104109523Y-66211904D01*
X104061904Y-66307142D01*
X104014285Y-66354761D01*
X103919047Y-66402380D01*
X103728571Y-66402380D01*
X103633333Y-66354761D01*
X103585714Y-66307142D01*
X103538095Y-66211904D01*
X103538095Y-66021428D01*
X103585714Y-65926190D01*
X103633333Y-65878571D01*
X103728571Y-65830952D01*
%TO.C,C13*%
X165842857Y-78557142D02*
X165890476Y-78604761D01*
X166033333Y-78652380D01*
X166128571Y-78652380D01*
X166271428Y-78604761D01*
X166366666Y-78509523D01*
X166414285Y-78414285D01*
X166461904Y-78223809D01*
X166461904Y-78080952D01*
X166414285Y-77890476D01*
X166366666Y-77795238D01*
X166271428Y-77700000D01*
X166128571Y-77652380D01*
X166033333Y-77652380D01*
X165890476Y-77700000D01*
X165842857Y-77747619D01*
X164890476Y-78652380D02*
X165461904Y-78652380D01*
X165176190Y-78652380D02*
X165176190Y-77652380D01*
X165271428Y-77795238D01*
X165366666Y-77890476D01*
X165461904Y-77938095D01*
X164557142Y-77652380D02*
X163938095Y-77652380D01*
X164271428Y-78033333D01*
X164128571Y-78033333D01*
X164033333Y-78080952D01*
X163985714Y-78128571D01*
X163938095Y-78223809D01*
X163938095Y-78461904D01*
X163985714Y-78557142D01*
X164033333Y-78604761D01*
X164128571Y-78652380D01*
X164414285Y-78652380D01*
X164509523Y-78604761D01*
X164557142Y-78557142D01*
%TO.C,J4*%
X128793333Y-52742380D02*
X128793333Y-53456666D01*
X128840952Y-53599523D01*
X128936190Y-53694761D01*
X129079047Y-53742380D01*
X129174285Y-53742380D01*
X127888571Y-53075714D02*
X127888571Y-53742380D01*
X128126666Y-52694761D02*
X128364761Y-53409047D01*
X127745714Y-53409047D01*
X128352380Y-69932857D02*
X127876190Y-69599523D01*
X128352380Y-69361428D02*
X127352380Y-69361428D01*
X127352380Y-69742380D01*
X127400000Y-69837619D01*
X127447619Y-69885238D01*
X127542857Y-69932857D01*
X127685714Y-69932857D01*
X127780952Y-69885238D01*
X127828571Y-69837619D01*
X127876190Y-69742380D01*
X127876190Y-69361428D01*
X128352380Y-70790000D02*
X127828571Y-70790000D01*
X127733333Y-70742380D01*
X127685714Y-70647142D01*
X127685714Y-70456666D01*
X127733333Y-70361428D01*
X128304761Y-70790000D02*
X128352380Y-70694761D01*
X128352380Y-70456666D01*
X128304761Y-70361428D01*
X128209523Y-70313809D01*
X128114285Y-70313809D01*
X128019047Y-70361428D01*
X127971428Y-70456666D01*
X127971428Y-70694761D01*
X127923809Y-70790000D01*
X128304761Y-71218571D02*
X128352380Y-71313809D01*
X128352380Y-71504285D01*
X128304761Y-71599523D01*
X128209523Y-71647142D01*
X128161904Y-71647142D01*
X128066666Y-71599523D01*
X128019047Y-71504285D01*
X128019047Y-71361428D01*
X127971428Y-71266190D01*
X127876190Y-71218571D01*
X127828571Y-71218571D01*
X127733333Y-71266190D01*
X127685714Y-71361428D01*
X127685714Y-71504285D01*
X127733333Y-71599523D01*
X127685714Y-72075714D02*
X128685714Y-72075714D01*
X127733333Y-72075714D02*
X127685714Y-72170952D01*
X127685714Y-72361428D01*
X127733333Y-72456666D01*
X127780952Y-72504285D01*
X127876190Y-72551904D01*
X128161904Y-72551904D01*
X128257142Y-72504285D01*
X128304761Y-72456666D01*
X128352380Y-72361428D01*
X128352380Y-72170952D01*
X128304761Y-72075714D01*
X128352380Y-72980476D02*
X127352380Y-72980476D01*
X127733333Y-72980476D02*
X127685714Y-73075714D01*
X127685714Y-73266190D01*
X127733333Y-73361428D01*
X127780952Y-73409047D01*
X127876190Y-73456666D01*
X128161904Y-73456666D01*
X128257142Y-73409047D01*
X128304761Y-73361428D01*
X128352380Y-73266190D01*
X128352380Y-73075714D01*
X128304761Y-72980476D01*
X128304761Y-74266190D02*
X128352380Y-74170952D01*
X128352380Y-73980476D01*
X128304761Y-73885238D01*
X128209523Y-73837619D01*
X127828571Y-73837619D01*
X127733333Y-73885238D01*
X127685714Y-73980476D01*
X127685714Y-74170952D01*
X127733333Y-74266190D01*
X127828571Y-74313809D01*
X127923809Y-74313809D01*
X128019047Y-73837619D01*
X128352380Y-74742380D02*
X127685714Y-74742380D01*
X127876190Y-74742380D02*
X127780952Y-74790000D01*
X127733333Y-74837619D01*
X127685714Y-74932857D01*
X127685714Y-75028095D01*
X128352380Y-75361428D02*
X127685714Y-75361428D01*
X127876190Y-75361428D02*
X127780952Y-75409047D01*
X127733333Y-75456666D01*
X127685714Y-75551904D01*
X127685714Y-75647142D01*
X127685714Y-75885238D02*
X128352380Y-76123333D01*
X127685714Y-76361428D02*
X128352380Y-76123333D01*
X128590476Y-76028095D01*
X128638095Y-75980476D01*
X128685714Y-75885238D01*
X128447619Y-76504285D02*
X128447619Y-77266190D01*
X128352380Y-77504285D02*
X127352380Y-77504285D01*
X127352380Y-77885238D01*
X127400000Y-77980476D01*
X127447619Y-78028095D01*
X127542857Y-78075714D01*
X127685714Y-78075714D01*
X127780952Y-78028095D01*
X127828571Y-77980476D01*
X127876190Y-77885238D01*
X127876190Y-77504285D01*
X128352380Y-78504285D02*
X127685714Y-78504285D01*
X127352380Y-78504285D02*
X127400000Y-78456666D01*
X127447619Y-78504285D01*
X127400000Y-78551904D01*
X127352380Y-78504285D01*
X127447619Y-78504285D01*
X128447619Y-78742380D02*
X128447619Y-79504285D01*
X127685714Y-80170952D02*
X128352380Y-80170952D01*
X127304761Y-79932857D02*
X128019047Y-79694761D01*
X128019047Y-80313809D01*
%TO.C,J3*%
X174052380Y-52026666D02*
X174766666Y-52026666D01*
X174909523Y-51979047D01*
X175004761Y-51883809D01*
X175052380Y-51740952D01*
X175052380Y-51645714D01*
X174052380Y-52407619D02*
X174052380Y-53026666D01*
X174433333Y-52693333D01*
X174433333Y-52836190D01*
X174480952Y-52931428D01*
X174528571Y-52979047D01*
X174623809Y-53026666D01*
X174861904Y-53026666D01*
X174957142Y-52979047D01*
X175004761Y-52931428D01*
X175052380Y-52836190D01*
X175052380Y-52550476D01*
X175004761Y-52455238D01*
X174957142Y-52407619D01*
X186222380Y-47778095D02*
X185222380Y-47778095D01*
X185698571Y-47778095D02*
X185698571Y-48349523D01*
X186222380Y-48349523D02*
X185222380Y-48349523D01*
X186174761Y-49206666D02*
X186222380Y-49111428D01*
X186222380Y-48920952D01*
X186174761Y-48825714D01*
X186079523Y-48778095D01*
X185698571Y-48778095D01*
X185603333Y-48825714D01*
X185555714Y-48920952D01*
X185555714Y-49111428D01*
X185603333Y-49206666D01*
X185698571Y-49254285D01*
X185793809Y-49254285D01*
X185889047Y-48778095D01*
X186222380Y-50111428D02*
X185698571Y-50111428D01*
X185603333Y-50063809D01*
X185555714Y-49968571D01*
X185555714Y-49778095D01*
X185603333Y-49682857D01*
X186174761Y-50111428D02*
X186222380Y-50016190D01*
X186222380Y-49778095D01*
X186174761Y-49682857D01*
X186079523Y-49635238D01*
X185984285Y-49635238D01*
X185889047Y-49682857D01*
X185841428Y-49778095D01*
X185841428Y-50016190D01*
X185793809Y-50111428D01*
X186222380Y-51016190D02*
X185222380Y-51016190D01*
X186174761Y-51016190D02*
X186222380Y-50920952D01*
X186222380Y-50730476D01*
X186174761Y-50635238D01*
X186127142Y-50587619D01*
X186031904Y-50540000D01*
X185746190Y-50540000D01*
X185650952Y-50587619D01*
X185603333Y-50635238D01*
X185555714Y-50730476D01*
X185555714Y-50920952D01*
X185603333Y-51016190D01*
X185555714Y-51492380D02*
X186555714Y-51492380D01*
X185603333Y-51492380D02*
X185555714Y-51587619D01*
X185555714Y-51778095D01*
X185603333Y-51873333D01*
X185650952Y-51920952D01*
X185746190Y-51968571D01*
X186031904Y-51968571D01*
X186127142Y-51920952D01*
X186174761Y-51873333D01*
X186222380Y-51778095D01*
X186222380Y-51587619D01*
X186174761Y-51492380D01*
X186222380Y-52397142D02*
X185222380Y-52397142D01*
X186222380Y-52825714D02*
X185698571Y-52825714D01*
X185603333Y-52778095D01*
X185555714Y-52682857D01*
X185555714Y-52540000D01*
X185603333Y-52444761D01*
X185650952Y-52397142D01*
X186222380Y-53444761D02*
X186174761Y-53349523D01*
X186127142Y-53301904D01*
X186031904Y-53254285D01*
X185746190Y-53254285D01*
X185650952Y-53301904D01*
X185603333Y-53349523D01*
X185555714Y-53444761D01*
X185555714Y-53587619D01*
X185603333Y-53682857D01*
X185650952Y-53730476D01*
X185746190Y-53778095D01*
X186031904Y-53778095D01*
X186127142Y-53730476D01*
X186174761Y-53682857D01*
X186222380Y-53587619D01*
X186222380Y-53444761D01*
X185555714Y-54206666D02*
X186222380Y-54206666D01*
X185650952Y-54206666D02*
X185603333Y-54254285D01*
X185555714Y-54349523D01*
X185555714Y-54492380D01*
X185603333Y-54587619D01*
X185698571Y-54635238D01*
X186222380Y-54635238D01*
X186174761Y-55492380D02*
X186222380Y-55397142D01*
X186222380Y-55206666D01*
X186174761Y-55111428D01*
X186079523Y-55063809D01*
X185698571Y-55063809D01*
X185603333Y-55111428D01*
X185555714Y-55206666D01*
X185555714Y-55397142D01*
X185603333Y-55492380D01*
X185698571Y-55540000D01*
X185793809Y-55540000D01*
X185889047Y-55063809D01*
X186174761Y-55920952D02*
X186222380Y-56016190D01*
X186222380Y-56206666D01*
X186174761Y-56301904D01*
X186079523Y-56349523D01*
X186031904Y-56349523D01*
X185936666Y-56301904D01*
X185889047Y-56206666D01*
X185889047Y-56063809D01*
X185841428Y-55968571D01*
X185746190Y-55920952D01*
X185698571Y-55920952D01*
X185603333Y-55968571D01*
X185555714Y-56063809D01*
X185555714Y-56206666D01*
X185603333Y-56301904D01*
%TO.C,J2*%
X188952380Y-51936666D02*
X189666666Y-51936666D01*
X189809523Y-51889047D01*
X189904761Y-51793809D01*
X189952380Y-51650952D01*
X189952380Y-51555714D01*
X189047619Y-52365238D02*
X189000000Y-52412857D01*
X188952380Y-52508095D01*
X188952380Y-52746190D01*
X189000000Y-52841428D01*
X189047619Y-52889047D01*
X189142857Y-52936666D01*
X189238095Y-52936666D01*
X189380952Y-52889047D01*
X189952380Y-52317619D01*
X189952380Y-52936666D01*
X201802380Y-50811904D02*
X201802380Y-50335714D01*
X200802380Y-50335714D01*
X201802380Y-51145238D02*
X201135714Y-51145238D01*
X200802380Y-51145238D02*
X200850000Y-51097619D01*
X200897619Y-51145238D01*
X200850000Y-51192857D01*
X200802380Y-51145238D01*
X200897619Y-51145238D01*
X201135714Y-51621428D02*
X201802380Y-51621428D01*
X201230952Y-51621428D02*
X201183333Y-51669047D01*
X201135714Y-51764285D01*
X201135714Y-51907142D01*
X201183333Y-52002380D01*
X201278571Y-52050000D01*
X201802380Y-52050000D01*
X201754761Y-52907142D02*
X201802380Y-52811904D01*
X201802380Y-52621428D01*
X201754761Y-52526190D01*
X201659523Y-52478571D01*
X201278571Y-52478571D01*
X201183333Y-52526190D01*
X201135714Y-52621428D01*
X201135714Y-52811904D01*
X201183333Y-52907142D01*
X201278571Y-52954761D01*
X201373809Y-52954761D01*
X201469047Y-52478571D01*
X200802380Y-53573809D02*
X200802380Y-53764285D01*
X200850000Y-53859523D01*
X200945238Y-53954761D01*
X201135714Y-54002380D01*
X201469047Y-54002380D01*
X201659523Y-53954761D01*
X201754761Y-53859523D01*
X201802380Y-53764285D01*
X201802380Y-53573809D01*
X201754761Y-53478571D01*
X201659523Y-53383333D01*
X201469047Y-53335714D01*
X201135714Y-53335714D01*
X200945238Y-53383333D01*
X200850000Y-53478571D01*
X200802380Y-53573809D01*
X200802380Y-54430952D02*
X201611904Y-54430952D01*
X201707142Y-54478571D01*
X201754761Y-54526190D01*
X201802380Y-54621428D01*
X201802380Y-54811904D01*
X201754761Y-54907142D01*
X201707142Y-54954761D01*
X201611904Y-55002380D01*
X200802380Y-55002380D01*
X200802380Y-55335714D02*
X200802380Y-55907142D01*
X201802380Y-55621428D02*
X200802380Y-55621428D01*
%TO.C,J1*%
X158882380Y-51826666D02*
X159596666Y-51826666D01*
X159739523Y-51779047D01*
X159834761Y-51683809D01*
X159882380Y-51540952D01*
X159882380Y-51445714D01*
X159882380Y-52826666D02*
X159882380Y-52255238D01*
X159882380Y-52540952D02*
X158882380Y-52540952D01*
X159025238Y-52445714D01*
X159120476Y-52350476D01*
X159168095Y-52255238D01*
X170712380Y-50298571D02*
X170712380Y-49822380D01*
X169712380Y-49822380D01*
X170712380Y-50631904D02*
X170045714Y-50631904D01*
X169712380Y-50631904D02*
X169760000Y-50584285D01*
X169807619Y-50631904D01*
X169760000Y-50679523D01*
X169712380Y-50631904D01*
X169807619Y-50631904D01*
X170045714Y-51108095D02*
X170712380Y-51108095D01*
X170140952Y-51108095D02*
X170093333Y-51155714D01*
X170045714Y-51250952D01*
X170045714Y-51393809D01*
X170093333Y-51489047D01*
X170188571Y-51536666D01*
X170712380Y-51536666D01*
X170664761Y-52393809D02*
X170712380Y-52298571D01*
X170712380Y-52108095D01*
X170664761Y-52012857D01*
X170569523Y-51965238D01*
X170188571Y-51965238D01*
X170093333Y-52012857D01*
X170045714Y-52108095D01*
X170045714Y-52298571D01*
X170093333Y-52393809D01*
X170188571Y-52441428D01*
X170283809Y-52441428D01*
X170379047Y-51965238D01*
X170712380Y-52870000D02*
X169712380Y-52870000D01*
X170712380Y-53346190D02*
X169712380Y-53346190D01*
X170712380Y-53917619D01*
X169712380Y-53917619D01*
%TO.C,C15*%
X152632857Y-67437142D02*
X152680476Y-67484761D01*
X152823333Y-67532380D01*
X152918571Y-67532380D01*
X153061428Y-67484761D01*
X153156666Y-67389523D01*
X153204285Y-67294285D01*
X153251904Y-67103809D01*
X153251904Y-66960952D01*
X153204285Y-66770476D01*
X153156666Y-66675238D01*
X153061428Y-66580000D01*
X152918571Y-66532380D01*
X152823333Y-66532380D01*
X152680476Y-66580000D01*
X152632857Y-66627619D01*
X151680476Y-67532380D02*
X152251904Y-67532380D01*
X151966190Y-67532380D02*
X151966190Y-66532380D01*
X152061428Y-66675238D01*
X152156666Y-66770476D01*
X152251904Y-66818095D01*
X150775714Y-66532380D02*
X151251904Y-66532380D01*
X151299523Y-67008571D01*
X151251904Y-66960952D01*
X151156666Y-66913333D01*
X150918571Y-66913333D01*
X150823333Y-66960952D01*
X150775714Y-67008571D01*
X150728095Y-67103809D01*
X150728095Y-67341904D01*
X150775714Y-67437142D01*
X150823333Y-67484761D01*
X150918571Y-67532380D01*
X151156666Y-67532380D01*
X151251904Y-67484761D01*
X151299523Y-67437142D01*
%TO.C,C11*%
X166782857Y-83217142D02*
X166830476Y-83264761D01*
X166973333Y-83312380D01*
X167068571Y-83312380D01*
X167211428Y-83264761D01*
X167306666Y-83169523D01*
X167354285Y-83074285D01*
X167401904Y-82883809D01*
X167401904Y-82740952D01*
X167354285Y-82550476D01*
X167306666Y-82455238D01*
X167211428Y-82360000D01*
X167068571Y-82312380D01*
X166973333Y-82312380D01*
X166830476Y-82360000D01*
X166782857Y-82407619D01*
X165830476Y-83312380D02*
X166401904Y-83312380D01*
X166116190Y-83312380D02*
X166116190Y-82312380D01*
X166211428Y-82455238D01*
X166306666Y-82550476D01*
X166401904Y-82598095D01*
X164878095Y-83312380D02*
X165449523Y-83312380D01*
X165163809Y-83312380D02*
X165163809Y-82312380D01*
X165259047Y-82455238D01*
X165354285Y-82550476D01*
X165449523Y-82598095D01*
%TO.C,C1*%
X153166666Y-53017142D02*
X153214285Y-53064761D01*
X153357142Y-53112380D01*
X153452380Y-53112380D01*
X153595238Y-53064761D01*
X153690476Y-52969523D01*
X153738095Y-52874285D01*
X153785714Y-52683809D01*
X153785714Y-52540952D01*
X153738095Y-52350476D01*
X153690476Y-52255238D01*
X153595238Y-52160000D01*
X153452380Y-52112380D01*
X153357142Y-52112380D01*
X153214285Y-52160000D01*
X153166666Y-52207619D01*
X152214285Y-53112380D02*
X152785714Y-53112380D01*
X152500000Y-53112380D02*
X152500000Y-52112380D01*
X152595238Y-52255238D01*
X152690476Y-52350476D01*
X152785714Y-52398095D01*
%TO.C,R4*%
X206036666Y-62032380D02*
X206370000Y-61556190D01*
X206608095Y-62032380D02*
X206608095Y-61032380D01*
X206227142Y-61032380D01*
X206131904Y-61080000D01*
X206084285Y-61127619D01*
X206036666Y-61222857D01*
X206036666Y-61365714D01*
X206084285Y-61460952D01*
X206131904Y-61508571D01*
X206227142Y-61556190D01*
X206608095Y-61556190D01*
X205179523Y-61365714D02*
X205179523Y-62032380D01*
X205417619Y-60984761D02*
X205655714Y-61699047D01*
X205036666Y-61699047D01*
%TO.C,C9*%
X169206666Y-70637142D02*
X169254285Y-70684761D01*
X169397142Y-70732380D01*
X169492380Y-70732380D01*
X169635238Y-70684761D01*
X169730476Y-70589523D01*
X169778095Y-70494285D01*
X169825714Y-70303809D01*
X169825714Y-70160952D01*
X169778095Y-69970476D01*
X169730476Y-69875238D01*
X169635238Y-69780000D01*
X169492380Y-69732380D01*
X169397142Y-69732380D01*
X169254285Y-69780000D01*
X169206666Y-69827619D01*
X168730476Y-70732380D02*
X168540000Y-70732380D01*
X168444761Y-70684761D01*
X168397142Y-70637142D01*
X168301904Y-70494285D01*
X168254285Y-70303809D01*
X168254285Y-69922857D01*
X168301904Y-69827619D01*
X168349523Y-69780000D01*
X168444761Y-69732380D01*
X168635238Y-69732380D01*
X168730476Y-69780000D01*
X168778095Y-69827619D01*
X168825714Y-69922857D01*
X168825714Y-70160952D01*
X168778095Y-70256190D01*
X168730476Y-70303809D01*
X168635238Y-70351428D01*
X168444761Y-70351428D01*
X168349523Y-70303809D01*
X168301904Y-70256190D01*
X168254285Y-70160952D01*
%TO.C,C16*%
X154042857Y-80867142D02*
X154090476Y-80914761D01*
X154233333Y-80962380D01*
X154328571Y-80962380D01*
X154471428Y-80914761D01*
X154566666Y-80819523D01*
X154614285Y-80724285D01*
X154661904Y-80533809D01*
X154661904Y-80390952D01*
X154614285Y-80200476D01*
X154566666Y-80105238D01*
X154471428Y-80010000D01*
X154328571Y-79962380D01*
X154233333Y-79962380D01*
X154090476Y-80010000D01*
X154042857Y-80057619D01*
X153090476Y-80962380D02*
X153661904Y-80962380D01*
X153376190Y-80962380D02*
X153376190Y-79962380D01*
X153471428Y-80105238D01*
X153566666Y-80200476D01*
X153661904Y-80248095D01*
X152233333Y-79962380D02*
X152423809Y-79962380D01*
X152519047Y-80010000D01*
X152566666Y-80057619D01*
X152661904Y-80200476D01*
X152709523Y-80390952D01*
X152709523Y-80771904D01*
X152661904Y-80867142D01*
X152614285Y-80914761D01*
X152519047Y-80962380D01*
X152328571Y-80962380D01*
X152233333Y-80914761D01*
X152185714Y-80867142D01*
X152138095Y-80771904D01*
X152138095Y-80533809D01*
X152185714Y-80438571D01*
X152233333Y-80390952D01*
X152328571Y-80343333D01*
X152519047Y-80343333D01*
X152614285Y-80390952D01*
X152661904Y-80438571D01*
X152709523Y-80533809D01*
%TO.C,R7*%
X199891666Y-64252380D02*
X200225000Y-63776190D01*
X200463095Y-64252380D02*
X200463095Y-63252380D01*
X200082142Y-63252380D01*
X199986904Y-63300000D01*
X199939285Y-63347619D01*
X199891666Y-63442857D01*
X199891666Y-63585714D01*
X199939285Y-63680952D01*
X199986904Y-63728571D01*
X200082142Y-63776190D01*
X200463095Y-63776190D01*
X199558333Y-63252380D02*
X198891666Y-63252380D01*
X199320238Y-64252380D01*
%TO.C,R6*%
X156416666Y-64252380D02*
X156750000Y-63776190D01*
X156988095Y-64252380D02*
X156988095Y-63252380D01*
X156607142Y-63252380D01*
X156511904Y-63300000D01*
X156464285Y-63347619D01*
X156416666Y-63442857D01*
X156416666Y-63585714D01*
X156464285Y-63680952D01*
X156511904Y-63728571D01*
X156607142Y-63776190D01*
X156988095Y-63776190D01*
X155559523Y-63252380D02*
X155750000Y-63252380D01*
X155845238Y-63300000D01*
X155892857Y-63347619D01*
X155988095Y-63490476D01*
X156035714Y-63680952D01*
X156035714Y-64061904D01*
X155988095Y-64157142D01*
X155940476Y-64204761D01*
X155845238Y-64252380D01*
X155654761Y-64252380D01*
X155559523Y-64204761D01*
X155511904Y-64157142D01*
X155464285Y-64061904D01*
X155464285Y-63823809D01*
X155511904Y-63728571D01*
X155559523Y-63680952D01*
X155654761Y-63633333D01*
X155845238Y-63633333D01*
X155940476Y-63680952D01*
X155988095Y-63728571D01*
X156035714Y-63823809D01*
%TO.C,U2*%
X159043884Y-67882792D02*
X159043884Y-68692316D01*
X158996265Y-68787554D01*
X158948646Y-68835173D01*
X158853408Y-68882792D01*
X158662932Y-68882792D01*
X158567694Y-68835173D01*
X158520075Y-68787554D01*
X158472456Y-68692316D01*
X158472456Y-67882792D01*
X158043884Y-67978031D02*
X157996265Y-67930412D01*
X157901027Y-67882792D01*
X157662932Y-67882792D01*
X157567694Y-67930412D01*
X157520075Y-67978031D01*
X157472456Y-68073269D01*
X157472456Y-68168507D01*
X157520075Y-68311364D01*
X158091503Y-68882792D01*
X157472456Y-68882792D01*
%TO.C,J5*%
X101223333Y-50942380D02*
X101223333Y-51656666D01*
X101270952Y-51799523D01*
X101366190Y-51894761D01*
X101509047Y-51942380D01*
X101604285Y-51942380D01*
X100270952Y-50942380D02*
X100747142Y-50942380D01*
X100794761Y-51418571D01*
X100747142Y-51370952D01*
X100651904Y-51323333D01*
X100413809Y-51323333D01*
X100318571Y-51370952D01*
X100270952Y-51418571D01*
X100223333Y-51513809D01*
X100223333Y-51751904D01*
X100270952Y-51847142D01*
X100318571Y-51894761D01*
X100413809Y-51942380D01*
X100651904Y-51942380D01*
X100747142Y-51894761D01*
X100794761Y-51847142D01*
%TO.C,R1*%
X155146666Y-50892380D02*
X155480000Y-50416190D01*
X155718095Y-50892380D02*
X155718095Y-49892380D01*
X155337142Y-49892380D01*
X155241904Y-49940000D01*
X155194285Y-49987619D01*
X155146666Y-50082857D01*
X155146666Y-50225714D01*
X155194285Y-50320952D01*
X155241904Y-50368571D01*
X155337142Y-50416190D01*
X155718095Y-50416190D01*
X154194285Y-50892380D02*
X154765714Y-50892380D01*
X154480000Y-50892380D02*
X154480000Y-49892380D01*
X154575238Y-50035238D01*
X154670476Y-50130476D01*
X154765714Y-50178095D01*
%TO.C,R9*%
X172166666Y-61852380D02*
X172500000Y-61376190D01*
X172738095Y-61852380D02*
X172738095Y-60852380D01*
X172357142Y-60852380D01*
X172261904Y-60900000D01*
X172214285Y-60947619D01*
X172166666Y-61042857D01*
X172166666Y-61185714D01*
X172214285Y-61280952D01*
X172261904Y-61328571D01*
X172357142Y-61376190D01*
X172738095Y-61376190D01*
X171690476Y-61852380D02*
X171500000Y-61852380D01*
X171404761Y-61804761D01*
X171357142Y-61757142D01*
X171261904Y-61614285D01*
X171214285Y-61423809D01*
X171214285Y-61042857D01*
X171261904Y-60947619D01*
X171309523Y-60900000D01*
X171404761Y-60852380D01*
X171595238Y-60852380D01*
X171690476Y-60900000D01*
X171738095Y-60947619D01*
X171785714Y-61042857D01*
X171785714Y-61280952D01*
X171738095Y-61376190D01*
X171690476Y-61423809D01*
X171595238Y-61471428D01*
X171404761Y-61471428D01*
X171309523Y-61423809D01*
X171261904Y-61376190D01*
X171214285Y-61280952D01*
%TO.C,C2*%
X156926666Y-61957142D02*
X156974285Y-62004761D01*
X157117142Y-62052380D01*
X157212380Y-62052380D01*
X157355238Y-62004761D01*
X157450476Y-61909523D01*
X157498095Y-61814285D01*
X157545714Y-61623809D01*
X157545714Y-61480952D01*
X157498095Y-61290476D01*
X157450476Y-61195238D01*
X157355238Y-61100000D01*
X157212380Y-61052380D01*
X157117142Y-61052380D01*
X156974285Y-61100000D01*
X156926666Y-61147619D01*
X156545714Y-61147619D02*
X156498095Y-61100000D01*
X156402857Y-61052380D01*
X156164761Y-61052380D01*
X156069523Y-61100000D01*
X156021904Y-61147619D01*
X155974285Y-61242857D01*
X155974285Y-61338095D01*
X156021904Y-61480952D01*
X156593333Y-62052380D01*
X155974285Y-62052380D01*
%TO.C,R10*%
X187532857Y-60852380D02*
X187866190Y-60376190D01*
X188104285Y-60852380D02*
X188104285Y-59852380D01*
X187723333Y-59852380D01*
X187628095Y-59900000D01*
X187580476Y-59947619D01*
X187532857Y-60042857D01*
X187532857Y-60185714D01*
X187580476Y-60280952D01*
X187628095Y-60328571D01*
X187723333Y-60376190D01*
X188104285Y-60376190D01*
X186580476Y-60852380D02*
X187151904Y-60852380D01*
X186866190Y-60852380D02*
X186866190Y-59852380D01*
X186961428Y-59995238D01*
X187056666Y-60090476D01*
X187151904Y-60138095D01*
X185961428Y-59852380D02*
X185866190Y-59852380D01*
X185770952Y-59900000D01*
X185723333Y-59947619D01*
X185675714Y-60042857D01*
X185628095Y-60233333D01*
X185628095Y-60471428D01*
X185675714Y-60661904D01*
X185723333Y-60757142D01*
X185770952Y-60804761D01*
X185866190Y-60852380D01*
X185961428Y-60852380D01*
X186056666Y-60804761D01*
X186104285Y-60757142D01*
X186151904Y-60661904D01*
X186199523Y-60471428D01*
X186199523Y-60233333D01*
X186151904Y-60042857D01*
X186104285Y-59947619D01*
X186056666Y-59900000D01*
X185961428Y-59852380D01*
%TO.C,C10*%
X171132857Y-75327142D02*
X171180476Y-75374761D01*
X171323333Y-75422380D01*
X171418571Y-75422380D01*
X171561428Y-75374761D01*
X171656666Y-75279523D01*
X171704285Y-75184285D01*
X171751904Y-74993809D01*
X171751904Y-74850952D01*
X171704285Y-74660476D01*
X171656666Y-74565238D01*
X171561428Y-74470000D01*
X171418571Y-74422380D01*
X171323333Y-74422380D01*
X171180476Y-74470000D01*
X171132857Y-74517619D01*
X170180476Y-75422380D02*
X170751904Y-75422380D01*
X170466190Y-75422380D02*
X170466190Y-74422380D01*
X170561428Y-74565238D01*
X170656666Y-74660476D01*
X170751904Y-74708095D01*
X169561428Y-74422380D02*
X169466190Y-74422380D01*
X169370952Y-74470000D01*
X169323333Y-74517619D01*
X169275714Y-74612857D01*
X169228095Y-74803333D01*
X169228095Y-75041428D01*
X169275714Y-75231904D01*
X169323333Y-75327142D01*
X169370952Y-75374761D01*
X169466190Y-75422380D01*
X169561428Y-75422380D01*
X169656666Y-75374761D01*
X169704285Y-75327142D01*
X169751904Y-75231904D01*
X169799523Y-75041428D01*
X169799523Y-74803333D01*
X169751904Y-74612857D01*
X169704285Y-74517619D01*
X169656666Y-74470000D01*
X169561428Y-74422380D01*
%TO.C,R5*%
X152926666Y-55452380D02*
X153260000Y-54976190D01*
X153498095Y-55452380D02*
X153498095Y-54452380D01*
X153117142Y-54452380D01*
X153021904Y-54500000D01*
X152974285Y-54547619D01*
X152926666Y-54642857D01*
X152926666Y-54785714D01*
X152974285Y-54880952D01*
X153021904Y-54928571D01*
X153117142Y-54976190D01*
X153498095Y-54976190D01*
X152021904Y-54452380D02*
X152498095Y-54452380D01*
X152545714Y-54928571D01*
X152498095Y-54880952D01*
X152402857Y-54833333D01*
X152164761Y-54833333D01*
X152069523Y-54880952D01*
X152021904Y-54928571D01*
X151974285Y-55023809D01*
X151974285Y-55261904D01*
X152021904Y-55357142D01*
X152069523Y-55404761D01*
X152164761Y-55452380D01*
X152402857Y-55452380D01*
X152498095Y-55404761D01*
X152545714Y-55357142D01*
%TO.C,C6*%
X192066666Y-66477142D02*
X192114285Y-66524761D01*
X192257142Y-66572380D01*
X192352380Y-66572380D01*
X192495238Y-66524761D01*
X192590476Y-66429523D01*
X192638095Y-66334285D01*
X192685714Y-66143809D01*
X192685714Y-66000952D01*
X192638095Y-65810476D01*
X192590476Y-65715238D01*
X192495238Y-65620000D01*
X192352380Y-65572380D01*
X192257142Y-65572380D01*
X192114285Y-65620000D01*
X192066666Y-65667619D01*
X191209523Y-65572380D02*
X191400000Y-65572380D01*
X191495238Y-65620000D01*
X191542857Y-65667619D01*
X191638095Y-65810476D01*
X191685714Y-66000952D01*
X191685714Y-66381904D01*
X191638095Y-66477142D01*
X191590476Y-66524761D01*
X191495238Y-66572380D01*
X191304761Y-66572380D01*
X191209523Y-66524761D01*
X191161904Y-66477142D01*
X191114285Y-66381904D01*
X191114285Y-66143809D01*
X191161904Y-66048571D01*
X191209523Y-66000952D01*
X191304761Y-65953333D01*
X191495238Y-65953333D01*
X191590476Y-66000952D01*
X191638095Y-66048571D01*
X191685714Y-66143809D01*
%TO.C,C3*%
X197716666Y-68817142D02*
X197764285Y-68864761D01*
X197907142Y-68912380D01*
X198002380Y-68912380D01*
X198145238Y-68864761D01*
X198240476Y-68769523D01*
X198288095Y-68674285D01*
X198335714Y-68483809D01*
X198335714Y-68340952D01*
X198288095Y-68150476D01*
X198240476Y-68055238D01*
X198145238Y-67960000D01*
X198002380Y-67912380D01*
X197907142Y-67912380D01*
X197764285Y-67960000D01*
X197716666Y-68007619D01*
X197383333Y-67912380D02*
X196764285Y-67912380D01*
X197097619Y-68293333D01*
X196954761Y-68293333D01*
X196859523Y-68340952D01*
X196811904Y-68388571D01*
X196764285Y-68483809D01*
X196764285Y-68721904D01*
X196811904Y-68817142D01*
X196859523Y-68864761D01*
X196954761Y-68912380D01*
X197240476Y-68912380D01*
X197335714Y-68864761D01*
X197383333Y-68817142D01*
%TO.C,C7*%
X151596666Y-58677142D02*
X151644285Y-58724761D01*
X151787142Y-58772380D01*
X151882380Y-58772380D01*
X152025238Y-58724761D01*
X152120476Y-58629523D01*
X152168095Y-58534285D01*
X152215714Y-58343809D01*
X152215714Y-58200952D01*
X152168095Y-58010476D01*
X152120476Y-57915238D01*
X152025238Y-57820000D01*
X151882380Y-57772380D01*
X151787142Y-57772380D01*
X151644285Y-57820000D01*
X151596666Y-57867619D01*
X151263333Y-57772380D02*
X150596666Y-57772380D01*
X151025238Y-58772380D01*
%TO.C,C17*%
X148112857Y-70807142D02*
X148160476Y-70854761D01*
X148303333Y-70902380D01*
X148398571Y-70902380D01*
X148541428Y-70854761D01*
X148636666Y-70759523D01*
X148684285Y-70664285D01*
X148731904Y-70473809D01*
X148731904Y-70330952D01*
X148684285Y-70140476D01*
X148636666Y-70045238D01*
X148541428Y-69950000D01*
X148398571Y-69902380D01*
X148303333Y-69902380D01*
X148160476Y-69950000D01*
X148112857Y-69997619D01*
X147160476Y-70902380D02*
X147731904Y-70902380D01*
X147446190Y-70902380D02*
X147446190Y-69902380D01*
X147541428Y-70045238D01*
X147636666Y-70140476D01*
X147731904Y-70188095D01*
X146827142Y-69902380D02*
X146160476Y-69902380D01*
X146589047Y-70902380D01*
%TO.C,R3*%
X194166666Y-62052380D02*
X194500000Y-61576190D01*
X194738095Y-62052380D02*
X194738095Y-61052380D01*
X194357142Y-61052380D01*
X194261904Y-61100000D01*
X194214285Y-61147619D01*
X194166666Y-61242857D01*
X194166666Y-61385714D01*
X194214285Y-61480952D01*
X194261904Y-61528571D01*
X194357142Y-61576190D01*
X194738095Y-61576190D01*
X193833333Y-61052380D02*
X193214285Y-61052380D01*
X193547619Y-61433333D01*
X193404761Y-61433333D01*
X193309523Y-61480952D01*
X193261904Y-61528571D01*
X193214285Y-61623809D01*
X193214285Y-61861904D01*
X193261904Y-61957142D01*
X193309523Y-62004761D01*
X193404761Y-62052380D01*
X193690476Y-62052380D01*
X193785714Y-62004761D01*
X193833333Y-61957142D01*
%TO.C,C8*%
X167766666Y-64757142D02*
X167814285Y-64804761D01*
X167957142Y-64852380D01*
X168052380Y-64852380D01*
X168195238Y-64804761D01*
X168290476Y-64709523D01*
X168338095Y-64614285D01*
X168385714Y-64423809D01*
X168385714Y-64280952D01*
X168338095Y-64090476D01*
X168290476Y-63995238D01*
X168195238Y-63900000D01*
X168052380Y-63852380D01*
X167957142Y-63852380D01*
X167814285Y-63900000D01*
X167766666Y-63947619D01*
X167195238Y-64280952D02*
X167290476Y-64233333D01*
X167338095Y-64185714D01*
X167385714Y-64090476D01*
X167385714Y-64042857D01*
X167338095Y-63947619D01*
X167290476Y-63900000D01*
X167195238Y-63852380D01*
X167004761Y-63852380D01*
X166909523Y-63900000D01*
X166861904Y-63947619D01*
X166814285Y-64042857D01*
X166814285Y-64090476D01*
X166861904Y-64185714D01*
X166909523Y-64233333D01*
X167004761Y-64280952D01*
X167195238Y-64280952D01*
X167290476Y-64328571D01*
X167338095Y-64376190D01*
X167385714Y-64471428D01*
X167385714Y-64661904D01*
X167338095Y-64757142D01*
X167290476Y-64804761D01*
X167195238Y-64852380D01*
X167004761Y-64852380D01*
X166909523Y-64804761D01*
X166861904Y-64757142D01*
X166814285Y-64661904D01*
X166814285Y-64471428D01*
X166861904Y-64376190D01*
X166909523Y-64328571D01*
X167004761Y-64280952D01*
%TO.C,C5*%
X173706666Y-66477142D02*
X173754285Y-66524761D01*
X173897142Y-66572380D01*
X173992380Y-66572380D01*
X174135238Y-66524761D01*
X174230476Y-66429523D01*
X174278095Y-66334285D01*
X174325714Y-66143809D01*
X174325714Y-66000952D01*
X174278095Y-65810476D01*
X174230476Y-65715238D01*
X174135238Y-65620000D01*
X173992380Y-65572380D01*
X173897142Y-65572380D01*
X173754285Y-65620000D01*
X173706666Y-65667619D01*
X172801904Y-65572380D02*
X173278095Y-65572380D01*
X173325714Y-66048571D01*
X173278095Y-66000952D01*
X173182857Y-65953333D01*
X172944761Y-65953333D01*
X172849523Y-66000952D01*
X172801904Y-66048571D01*
X172754285Y-66143809D01*
X172754285Y-66381904D01*
X172801904Y-66477142D01*
X172849523Y-66524761D01*
X172944761Y-66572380D01*
X173182857Y-66572380D01*
X173278095Y-66524761D01*
X173325714Y-66477142D01*
%TO.C,R2*%
X167756666Y-61962380D02*
X168090000Y-61486190D01*
X168328095Y-61962380D02*
X168328095Y-60962380D01*
X167947142Y-60962380D01*
X167851904Y-61010000D01*
X167804285Y-61057619D01*
X167756666Y-61152857D01*
X167756666Y-61295714D01*
X167804285Y-61390952D01*
X167851904Y-61438571D01*
X167947142Y-61486190D01*
X168328095Y-61486190D01*
X167375714Y-61057619D02*
X167328095Y-61010000D01*
X167232857Y-60962380D01*
X166994761Y-60962380D01*
X166899523Y-61010000D01*
X166851904Y-61057619D01*
X166804285Y-61152857D01*
X166804285Y-61248095D01*
X166851904Y-61390952D01*
X167423333Y-61962380D01*
X166804285Y-61962380D01*
%TO.C,C12*%
X163992857Y-68057142D02*
X164040476Y-68104761D01*
X164183333Y-68152380D01*
X164278571Y-68152380D01*
X164421428Y-68104761D01*
X164516666Y-68009523D01*
X164564285Y-67914285D01*
X164611904Y-67723809D01*
X164611904Y-67580952D01*
X164564285Y-67390476D01*
X164516666Y-67295238D01*
X164421428Y-67200000D01*
X164278571Y-67152380D01*
X164183333Y-67152380D01*
X164040476Y-67200000D01*
X163992857Y-67247619D01*
X163040476Y-68152380D02*
X163611904Y-68152380D01*
X163326190Y-68152380D02*
X163326190Y-67152380D01*
X163421428Y-67295238D01*
X163516666Y-67390476D01*
X163611904Y-67438095D01*
X162659523Y-67247619D02*
X162611904Y-67200000D01*
X162516666Y-67152380D01*
X162278571Y-67152380D01*
X162183333Y-67200000D01*
X162135714Y-67247619D01*
X162088095Y-67342857D01*
X162088095Y-67438095D01*
X162135714Y-67580952D01*
X162707142Y-68152380D01*
X162088095Y-68152380D01*
%TO.C,R8*%
X206291666Y-64452380D02*
X206625000Y-63976190D01*
X206863095Y-64452380D02*
X206863095Y-63452380D01*
X206482142Y-63452380D01*
X206386904Y-63500000D01*
X206339285Y-63547619D01*
X206291666Y-63642857D01*
X206291666Y-63785714D01*
X206339285Y-63880952D01*
X206386904Y-63928571D01*
X206482142Y-63976190D01*
X206863095Y-63976190D01*
X205720238Y-63880952D02*
X205815476Y-63833333D01*
X205863095Y-63785714D01*
X205910714Y-63690476D01*
X205910714Y-63642857D01*
X205863095Y-63547619D01*
X205815476Y-63500000D01*
X205720238Y-63452380D01*
X205529761Y-63452380D01*
X205434523Y-63500000D01*
X205386904Y-63547619D01*
X205339285Y-63642857D01*
X205339285Y-63690476D01*
X205386904Y-63785714D01*
X205434523Y-63833333D01*
X205529761Y-63880952D01*
X205720238Y-63880952D01*
X205815476Y-63928571D01*
X205863095Y-63976190D01*
X205910714Y-64071428D01*
X205910714Y-64261904D01*
X205863095Y-64357142D01*
X205815476Y-64404761D01*
X205720238Y-64452380D01*
X205529761Y-64452380D01*
X205434523Y-64404761D01*
X205386904Y-64357142D01*
X205339285Y-64261904D01*
X205339285Y-64071428D01*
X205386904Y-63976190D01*
X205434523Y-63928571D01*
X205529761Y-63880952D01*
%TO.C,C4*%
X206826666Y-66777142D02*
X206874285Y-66824761D01*
X207017142Y-66872380D01*
X207112380Y-66872380D01*
X207255238Y-66824761D01*
X207350476Y-66729523D01*
X207398095Y-66634285D01*
X207445714Y-66443809D01*
X207445714Y-66300952D01*
X207398095Y-66110476D01*
X207350476Y-66015238D01*
X207255238Y-65920000D01*
X207112380Y-65872380D01*
X207017142Y-65872380D01*
X206874285Y-65920000D01*
X206826666Y-65967619D01*
X205969523Y-66205714D02*
X205969523Y-66872380D01*
X206207619Y-65824761D02*
X206445714Y-66539047D01*
X205826666Y-66539047D01*
%TD*%
M02*
