%TF.GenerationSoftware,KiCad,Pcbnew,5.1.6-c6e7f7d~87~ubuntu18.04.1*%
%TF.CreationDate,2021-03-25T20:54:19+01:00*%
%TF.ProjectId,bz-hat,627a2d68-6174-42e6-9b69-6361645f7063,rev?*%
%TF.SameCoordinates,Original*%
%TF.FileFunction,Soldermask,Top*%
%TF.FilePolarity,Negative*%
%FSLAX46Y46*%
G04 Gerber Fmt 4.6, Leading zero omitted, Abs format (unit mm)*
G04 Created by KiCad (PCBNEW 5.1.6-c6e7f7d~87~ubuntu18.04.1) date 2021-03-25 20:54:19*
%MOMM*%
%LPD*%
G01*
G04 APERTURE LIST*
%ADD10O,1.800000X1.800000*%
%ADD11R,1.800000X1.800000*%
%ADD12C,4.100000*%
%ADD13C,1.900000*%
%ADD14C,1.448000*%
%ADD15C,3.500000*%
%ADD16C,6.000000*%
%ADD17O,2.900000X1.900000*%
%ADD18O,3.148000X1.950000*%
%ADD19C,1.600000*%
%ADD20C,1.200000*%
%ADD21C,2.200000*%
G04 APERTURE END LIST*
D10*
%TO.C,J6*%
X204260000Y-86200000D03*
X201720000Y-86200000D03*
X199180000Y-86200000D03*
X196640000Y-86200000D03*
X194100000Y-86200000D03*
X191560000Y-86200000D03*
X189020000Y-86200000D03*
X186480000Y-86200000D03*
X183940000Y-86200000D03*
X181400000Y-86200000D03*
X178860000Y-86200000D03*
X176320000Y-86200000D03*
X173780000Y-86200000D03*
X171240000Y-86200000D03*
X168700000Y-86200000D03*
X166160000Y-86200000D03*
X163620000Y-86200000D03*
X161080000Y-86200000D03*
X158540000Y-86200000D03*
D11*
X156000000Y-86200000D03*
%TD*%
D12*
%TO.C,RV1*%
X99250000Y-62500000D03*
X89750000Y-62500000D03*
D13*
X97000000Y-70000000D03*
X94500000Y-70000000D03*
X92000000Y-70000000D03*
%TD*%
D12*
%TO.C,RV4*%
X99250000Y-87500000D03*
X89750000Y-87500000D03*
D13*
X97000000Y-95000000D03*
X94500000Y-95000000D03*
X92000000Y-95000000D03*
%TD*%
D12*
%TO.C,RV3*%
X124250000Y-87500000D03*
X114750000Y-87500000D03*
D13*
X122000000Y-95000000D03*
X119500000Y-95000000D03*
X117000000Y-95000000D03*
%TD*%
D12*
%TO.C,RV2*%
X124250000Y-62500000D03*
X114750000Y-62500000D03*
D13*
X122000000Y-70000000D03*
X119500000Y-70000000D03*
X117000000Y-70000000D03*
%TD*%
D14*
%TO.C,REF\u002A\u002A*%
X211400000Y-126800000D03*
%TD*%
%TO.C,REF\u002A\u002A*%
X216600000Y-54200000D03*
%TD*%
%TO.C,REF\u002A\u002A*%
X83200000Y-127200000D03*
%TD*%
D15*
%TO.C,REF\u002A\u002A*%
X152025000Y-85700000D03*
%TD*%
%TO.C,REF\u002A\u002A*%
X152040000Y-48600000D03*
%TD*%
%TO.C,REF\u002A\u002A*%
X208203000Y-85694000D03*
%TD*%
%TO.C,REF\u002A\u002A*%
X208225000Y-48600000D03*
%TD*%
D16*
%TO.C,REF\u002A\u002A*%
X216500000Y-126500000D03*
%TD*%
%TO.C,REF\u002A\u002A*%
X216500000Y-48500000D03*
%TD*%
D11*
%TO.C,J4*%
X131230000Y-53370000D03*
D10*
X133770000Y-53370000D03*
X131230000Y-55910000D03*
X133770000Y-55910000D03*
X131230000Y-58450000D03*
X133770000Y-58450000D03*
X131230000Y-60990000D03*
X133770000Y-60990000D03*
X131230000Y-63530000D03*
X133770000Y-63530000D03*
X131230000Y-66070000D03*
X133770000Y-66070000D03*
X131230000Y-68610000D03*
X133770000Y-68610000D03*
X131230000Y-71150000D03*
X133770000Y-71150000D03*
X131230000Y-73690000D03*
X133770000Y-73690000D03*
X131230000Y-76230000D03*
X133770000Y-76230000D03*
X131230000Y-78770000D03*
X133770000Y-78770000D03*
X131230000Y-81310000D03*
X133770000Y-81310000D03*
X131230000Y-83850000D03*
X133770000Y-83850000D03*
X131230000Y-86390000D03*
X133770000Y-86390000D03*
X131230000Y-88930000D03*
X133770000Y-88930000D03*
X131230000Y-91470000D03*
X133770000Y-91470000D03*
X131230000Y-94010000D03*
X133770000Y-94010000D03*
X131230000Y-96550000D03*
X133770000Y-96550000D03*
X131230000Y-99090000D03*
X133770000Y-99090000D03*
X131230000Y-101630000D03*
X133770000Y-101630000D03*
%TD*%
D17*
%TO.C,J3*%
X178000000Y-54700000D03*
X178000000Y-49200000D03*
X180000000Y-46800000D03*
%TD*%
%TO.C,J2*%
X193000000Y-54700000D03*
X193000000Y-49200000D03*
X195000000Y-46800000D03*
%TD*%
%TO.C,J1*%
X163000000Y-54700000D03*
X163000000Y-49200000D03*
X165000000Y-46800000D03*
%TD*%
D18*
%TO.C,SW3*%
X142200000Y-99000000D03*
X142200000Y-94000000D03*
X154700000Y-99000000D03*
X154700000Y-94000000D03*
%TD*%
D19*
%TO.C,SW2*%
X175600000Y-109600000D03*
X184400000Y-118400000D03*
D20*
X175500000Y-118500000D03*
D21*
X177460000Y-114000000D03*
X180000000Y-114000000D03*
%TD*%
D10*
%TO.C,J5*%
X111600000Y-51200000D03*
X109060000Y-51200000D03*
X106520000Y-51200000D03*
D11*
X103980000Y-51200000D03*
%TD*%
D18*
%TO.C,SW1*%
X205000000Y-99000000D03*
X205000000Y-94000000D03*
X217500000Y-99000000D03*
X217500000Y-94000000D03*
%TD*%
%TO.C,SW5*%
X184000000Y-99000000D03*
X184000000Y-94000000D03*
X196500000Y-99000000D03*
X196500000Y-94000000D03*
%TD*%
%TO.C,SW4*%
X163000000Y-99000000D03*
X163000000Y-94000000D03*
X175500000Y-99000000D03*
X175500000Y-94000000D03*
%TD*%
D16*
%TO.C,REF\u002A\u002A*%
X132500000Y-106500000D03*
%TD*%
%TO.C,REF\u002A\u002A*%
X132500000Y-48500000D03*
%TD*%
%TO.C,REF\u002A\u002A*%
X83500000Y-106500000D03*
%TD*%
%TO.C,REF\u002A\u002A*%
X83500000Y-48500000D03*
%TD*%
M02*
